<?xml version="1.0" standalone="no"?>
<!DOCTYPE svg PUBLIC "-//W3C//DTD SVG 1.1//EN" "http://www.w3.org/Graphics/SVG/1.1/DTD/svg11.dtd" >
<svg xmlns="http://www.w3.org/2000/svg" xmlns:xlink="http://www.w3.org/1999/xlink" version="1.1">
<metadata>
Created by FontForge 20200314 at Tue Aug 21 00:29:44 2012
 By Unknown
Copyright (c) 2006 Linotype GmbH, www.linotype.com. All rights reserved. This font software may not be reproduced, modified, disclosed or transferred without the express written approval of Linotype GmbH.
</metadata>
<defs>
<font id="VoltaW01-Regular" horiz-adv-x="500" >
  <font-face 
    font-family="VoltaW01-Regular"
    font-weight="400"
    font-stretch="normal"
    units-per-em="1000"
    panose-1="2 4 5 3 6 7 5 6 3 4"
    ascent="800"
    descent="-200"
    x-height="457"
    cap-height="667"
    bbox="-36 -223 1296 917"
    underline-thickness="50"
    underline-position="-150"
    unicode-range="U+0002-E308"
  />
<missing-glyph horiz-adv-x="300" 
 />
    <glyph glyph-name=".notdef" horiz-adv-x="300" 
 />
    <glyph glyph-name=".null" horiz-adv-x="0" 
 />
    <glyph glyph-name="uni000D" unicode="&#xd;" horiz-adv-x="0" 
 />
    <glyph glyph-name="glyph234" horiz-adv-x="0" 
 />
    <glyph glyph-name="glyph234" horiz-adv-x="0" 
 />
    <glyph glyph-name="uni0002" horiz-adv-x="0" 
 />
    <glyph glyph-name="uni0009" unicode="&#x9;" horiz-adv-x="0" 
 />
    <glyph glyph-name="uni000A" unicode="&#xa;" horiz-adv-x="0" 
 />
    <glyph glyph-name="space" unicode=" " horiz-adv-x="300" 
 />
    <glyph glyph-name="exclam" unicode="!" horiz-adv-x="378" 
d="M167 172q0 18 -2.5 50t-6.5 75.5t-10.5 95.5t-13.5 109q-2 14 -3 25.5t-1 21.5q0 35 16 55t44 20q27 0 44 -20.5t17 -52.5q0 -8 -0.5 -14t-2 -17.5t-4.5 -32.5t-9 -59q-4 -26 -9.5 -66t-10 -79.5t-7.5 -71t-3 -40.5v-14h-38v15zM184 105q24 0 40.5 -16.5t16.5 -40.5
q0 -23 -17 -40t-41 -17q-23 0 -39.5 16.5t-16.5 40.5q0 25 16 41t41 16z" />
    <glyph glyph-name="quotedbl" unicode="&#x22;" horiz-adv-x="344" 
d="M46 667h95l-15 -267h-66zM203 667h95l-14 -267h-66z" />
    <glyph glyph-name="numbersign" unicode="#" horiz-adv-x="492" 
d="M290 245l21 165h-108l-21 -165h108zM105 0l26 200h-82v45h88l22 165h-87v44h93l26 196h44l-26 -196h109l26 196h43l-25 -196h80v-44h-86l-21 -165h86v-44h-93l-26 -201h-45l26 201h-107l-26 -201h-45z" />
    <glyph glyph-name="dollar" unicode="$" horiz-adv-x="695" 
d="M322 -17q-32 9 -52.5 15.5t-43.5 14.5q-17 7 -28.5 11t-20 6.5t-14 3.5t-10.5 1q-34 0 -35 -35h-39v217h39q10 -73 63.5 -121t140.5 -61v222l-44 5q-63 7 -98.5 17.5t-58.5 28.5q-26 20 -38.5 48t-12.5 61q0 40 18.5 75.5t51 62t75 42t90.5 15.5h17v77h50v-81
q29 -7 46.5 -12t40.5 -13q14 -5 26.5 -7.5t23.5 -2.5q22 0 24 28h43v-191h-43q-3 51 -47 90.5t-114 54.5v-200l62 -6q88 -8 139.5 -54.5t51.5 -118.5q0 -29 -10.5 -57.5t-30.5 -50.5q-18 -20 -41 -36t-49.5 -27t-54 -17.5t-54.5 -6.5h-13v-82h-50v84zM322 560h-22
q-27 0 -52.5 -9t-45 -24.5t-31.5 -35.5t-12 -42q0 -36 26.5 -56t85.5 -28l51 -6v201zM372 34q48 5 81 20t55 42q27 32 27 67q0 25 -14 44q-8 11 -17 18.5t-21.5 12.5t-30.5 8t-45 6l-35 3v-221z" />
    <glyph glyph-name="percent" unicode="%" horiz-adv-x="838" 
d="M191 615q36 0 66.5 -11.5t52 -32.5t33.5 -50t12 -64t-11.5 -64t-33.5 -49.5t-52.5 -31.5t-67.5 -11t-67 11.5t-51.5 32t-33 50t-11.5 65.5q0 34 12.5 62.5t34 49t51.5 32t66 11.5zM192 581q-21 0 -38.5 -9t-30.5 -25t-20.5 -38t-7.5 -47q0 -57 26.5 -91.5t70.5 -34.5
q45 0 72 34t27 91q0 53 -27.5 86.5t-71.5 33.5zM165 5l468 630l39 -31l-466 -630zM647 309q36 0 66.5 -11.5t52 -32.5t33.5 -50t12 -64t-11.5 -64t-33.5 -49.5t-52.5 -31.5t-67.5 -11t-67 11.5t-51.5 32t-33 50t-11.5 65.5q0 34 12.5 62.5t34 49t51.5 32t66 11.5zM648 275
q-21 0 -38.5 -9t-30.5 -25t-20.5 -38t-7.5 -47q0 -57 26.5 -91.5t70.5 -34.5q45 0 72 34t27 91q0 53 -27.5 86.5t-71.5 33.5z" />
    <glyph glyph-name="ampersand" unicode="&#x26;" horiz-adv-x="813" 
d="M756 174q0 -60 -6 -92.5t-20 -53.5q-15 -22 -38.5 -34.5t-49.5 -12.5q-41 0 -82.5 17t-80.5 50q-56 -34 -106.5 -50.5t-102.5 -16.5q-45 0 -84 13.5t-67.5 37t-45 55.5t-16.5 69q0 119 164 187q-13 25 -18 45.5t-5 49.5q0 75 36.5 121t96.5 46q24 0 45 -9t36.5 -24.5
t24.5 -37t9 -45.5q0 -23 -6.5 -42t-21.5 -37.5t-39 -36.5t-59 -39q30 -47 76 -98.5t98 -96.5q30 38 47.5 70t17.5 50q0 22 -17 30q-3 2 -6 3t-9 1.5t-17 1t-32 0.5h-14v48h275v-48q-38 0 -57.5 -3t-30.5 -11q-14 -11 -27 -34l-36 -66q-15 -27 -26 -43.5t-22 -30.5
q38 -28 61.5 -38.5t46.5 -10.5q36 0 51 33q3 6 4.5 12t3 15t3 22.5t2.5 33.5h44zM294 382q2 5 13 8q12 2 26 13.5t25.5 26.5t19 32t7.5 31q0 24 -17 42.5t-40 18.5q-27 0 -47.5 -21.5t-20.5 -50.5q0 -55 34 -100zM426 85q-48 38 -92.5 89t-79.5 105q-2 4 -8 12
q-95 -48 -95 -124q0 -26 11.5 -47.5t31.5 -38t47.5 -25.5t59.5 -9q30 0 57 8t68 30z" />
    <glyph glyph-name="quotesingle" unicode="'" horiz-adv-x="189" 
d="M46 667h97l-14 -267h-68z" />
    <glyph glyph-name="parenleft" unicode="(" horiz-adv-x="391" 
d="M325 -128q-42 3 -82 17.5t-72 38.5q-31 23 -53 54.5t-36.5 73t-21 94.5t-6.5 121q0 142 29.5 227t95.5 130q31 22 66 33.5t80 15.5v-50q-64 -12 -109 -54q-24 -21 -40.5 -50.5t-21.5 -61.5q-7 -42 -10.5 -91t-3.5 -106q0 -64 4 -109.5t13.5 -78.5t25.5 -57t40 -45
q22 -19 45 -31t57 -21v-50z" />
    <glyph glyph-name="parenright" unicode=")" horiz-adv-x="391" 
d="M67 -78q41 11 69.5 27.5t52.5 42.5q18 20 30 43t19.5 54.5t10.5 73.5t3 100q0 104 -9.5 166.5t-29.5 97.5q-47 82 -146 100v50q45 -4 80 -16t66 -33q65 -45 95 -129.5t30 -226.5q0 -68 -6.5 -121.5t-21 -95t-36.5 -73t-53 -54.5q-32 -24 -72 -38.5t-82 -17.5v50z" />
    <glyph glyph-name="asterisk" unicode="*" horiz-adv-x="605" 
d="M301 448l-42 -110q-21 -52 -56 -52q-20 0 -33.5 14.5t-13.5 34.5q0 30 33 57l88 73l-122 10q-31 2 -44.5 13.5t-13.5 35.5q0 20 12.5 34t30.5 14q17 0 43 -15l103 -63l-28 118q-2 7 -2.5 13.5t-0.5 11.5q0 21 14 35t34 14t32.5 -13t12.5 -34q0 -7 -1 -14.5t-3 -14.5
l-28 -116l93 55q12 7 20 11.5t13.5 7t10 3t10.5 0.5q20 0 33 -14.5t13 -34.5t-13 -33q-8 -8 -20 -11t-42 -5l-109 -8l83 -68q21 -17 30 -30.5t9 -27.5q0 -21 -12.5 -35t-32.5 -14t-33 12.5t-26 44.5z" />
    <glyph glyph-name="plus" unicode="+" 
d="M226 320h-205v46h205v194h48v-194h205v-46h-205v-194h-48v194z" />
    <glyph glyph-name="comma" unicode="," horiz-adv-x="295" 
d="M86 -96q30 17 49.5 45.5t20.5 54.5l-9 -3t-8 -1q-23 0 -37 14t-14 36q0 24 16 39.5t41 15.5q29 0 46 -19.5t17 -51.5q0 -48 -25 -86.5t-79 -73.5z" />
    <glyph glyph-name="hyphen" unicode="-" horiz-adv-x="246" 
d="M0 267h246v-67h-246v67z" />
    <glyph glyph-name="period" unicode="." horiz-adv-x="295" 
d="M147 105q24 0 40.5 -16.5t16.5 -40.5q0 -23 -17 -40t-41 -17q-23 0 -39.5 16.5t-16.5 40.5q0 25 16 41t41 16z" />
    <glyph glyph-name="slash" unicode="/" horiz-adv-x="412" 
d="M300 667h68l-287 -785h-71z" />
    <glyph glyph-name="zero" unicode="0" horiz-adv-x="695" 
d="M350 624q68 0 125 -24t98.5 -66.5t64.5 -102t23 -129.5t-23 -128t-65 -100t-100 -65t-128 -23q-68 0 -125 24.5t-98 67.5t-64.5 102t-23.5 129q0 69 27.5 131.5t78.5 107.5q41 37 95 56.5t115 19.5zM346 572q-43 0 -80 -20t-64 -55t-42 -83t-15 -105q0 -60 15 -110
t42 -86t64.5 -56t82.5 -20q44 0 81 20t63.5 55t41.5 84t15 108q0 58 -15 107.5t-42 85t-64.5 55.5t-82.5 20z" />
    <glyph glyph-name="one" unicode="1" horiz-adv-x="695" 
d="M181 48h26q40 0 58.5 5t28.5 19q7 10 10 30t3 68v249q0 27 -4.5 45t-16 28t-31.5 14t-51 4h-9v52h10q60 0 93.5 14t56.5 48h43v-453q0 -29 0.5 -46.5t2 -28t5 -16.5t8.5 -11q22 -21 80 -21h20v-48h-333v48z" />
    <glyph glyph-name="two" unicode="2" horiz-adv-x="695" 
d="M99 0q5 51 16 86.5t35 63t64 51.5t103 52q64 29 95.5 49t48.5 43q28 40 28 83q0 31 -12 56.5t-33 44t-50 29t-64 10.5q-36 0 -67 -10t-52 -30q-14 -13 -21 -29t-11 -41q6 1 12 1.5t9 0.5q26 0 41.5 -15.5t15.5 -40.5q0 -28 -18 -45.5t-47 -17.5q-37 0 -60.5 27.5
t-23.5 72.5q0 40 18 73.5t51 58t78 38t99 13.5t98.5 -14.5t77 -41t50.5 -62.5t18 -79q0 -104 -93 -163q-10 -6 -23 -12.5t-30.5 -14t-41 -16t-55.5 -19.5q-48 -17 -78.5 -30t-50 -26.5t-30 -28.5t-17.5 -36h249q30 0 47.5 4t28.5 13q27 22 27 68v9h49v-175h-481z" />
    <glyph glyph-name="three" unicode="3" horiz-adv-x="695" 
d="M247 343h79q54 0 85.5 9t53.5 32q14 13 21.5 31.5t7.5 39.5q0 26 -12 48t-33.5 37.5t-51.5 24.5t-65 9q-46 0 -86 -15t-66 -42q48 -11 48 -55q0 -26 -17 -42.5t-43 -16.5q-27 0 -45.5 18.5t-18.5 46.5q0 32 19.5 60.5t52.5 49.5t77.5 33.5t94.5 12.5q48 0 94 -11t81 -31
t57 -55t22 -72q0 -35 -17.5 -63t-49.5 -44q-18 -10 -36 -15t-52 -11q31 -7 48.5 -12.5t35.5 -15.5q41 -23 64 -58t23 -76q0 -38 -20.5 -69.5t-57 -55t-86 -36.5t-107.5 -13t-107 11.5t-85 32t-56.5 48.5t-20.5 61q0 30 18.5 49t48.5 19q28 0 45.5 -17.5t17.5 -44.5
q0 -48 -48 -57q35 -27 69.5 -38.5t83.5 -11.5q88 0 138.5 36.5t50.5 99.5q0 33 -15 59t-42 40q-23 12 -54.5 17t-84.5 5h-59v48z" />
    <glyph glyph-name="four" unicode="4" horiz-adv-x="695" 
d="M295 48h13q34 0 54.5 4.5t32 17t15.5 36t4 61.5v19h-338v55l384 383h43v-390h117v-48h-117v-19q0 -47 6.5 -70t21.5 -34q21 -15 67 -15h12v-48h-315v48zM414 234v277l-273 -277h273z" />
    <glyph glyph-name="five" unicode="5" horiz-adv-x="695" 
d="M138 610h409v-81h-361v-163q38 29 81.5 42.5t97.5 13.5q53 0 97.5 -15.5t76.5 -44t49.5 -68t17.5 -87.5q0 -51 -19 -91.5t-54.5 -69.5t-85.5 -44.5t-111 -15.5q-53 0 -98 13t-78 35.5t-51.5 54t-18.5 67.5q0 31 19.5 50.5t49.5 19.5q29 0 47 -16.5t18 -43.5
q0 -26 -16 -42.5t-43 -18.5q20 -32 58.5 -49t90.5 -17q41 0 76 12.5t60.5 35t39.5 52.5t14 66q0 34 -13.5 63.5t-36.5 52t-54 35.5t-66 13q-43 0 -81 -15.5t-61 -41.5h-54v298z" />
    <glyph glyph-name="six" unicode="6" horiz-adv-x="695" 
d="M166 309q87 114 215 114q52 0 102 -19.5t87 -54.5q62 -59 62 -140q0 -49 -20.5 -90t-57.5 -70.5t-88 -46t-112 -16.5q-149 0 -225 95q-32 40 -49 93t-17 111q0 74 24 136t67.5 107t102.5 70.5t130 25.5q45 0 84.5 -10t69 -27.5t46.5 -41t17 -50.5t-18 -45.5t-44 -18.5
t-43.5 17t-17.5 42q0 28 24 44q-52 40 -119 40q-41 0 -77 -15t-64.5 -41.5t-48 -64t-26.5 -82.5q-2 -8 -2.5 -14t-1 -12.5t-0.5 -14.5v-21zM359 361q-38 0 -71.5 -12.5t-58 -33.5t-39 -49.5t-14.5 -60.5q0 -35 14 -65.5t37.5 -53.5t55.5 -36t68 -13q37 0 70 13.5t57.5 36.5
t39 53.5t14.5 64.5q0 33 -13.5 61.5t-36.5 49.5t-54.5 33t-68.5 12z" />
    <glyph glyph-name="seven" unicode="7" horiz-adv-x="695" 
d="M405 70q0 -84 -64 -84q-32 0 -48.5 21t-16.5 59q0 40 15.5 91.5t45.5 111.5t73.5 126t98.5 136h-241q-32 0 -53 -4.5t-34 -15t-18.5 -29t-6.5 -45.5h-52v173h488v-55q-25 -28 -44.5 -52t-36 -48t-31 -49.5t-29.5 -55.5q-13 -27 -22 -52t-14 -52.5t-7.5 -59.5t-2.5 -73
v-43z" />
    <glyph glyph-name="eight" unicode="8" horiz-adv-x="695" 
d="M247 315q-36 8 -55.5 15t-38.5 18q-67 37 -67 107q0 38 18 69.5t51 53.5t79 34t103 12q121 0 198 -44q36 -21 58.5 -56t22.5 -73q0 -33 -17.5 -62t-49.5 -47q-17 -10 -34 -14.5t-48 -9.5q80 -15 123 -53.5t43 -95.5q0 -39 -21.5 -72t-59 -58t-89 -39t-110.5 -14
q-100 0 -184 38q-106 49 -106 144q0 38 20.5 70.5t57.5 50.5q11 6 21.5 10t22.5 7t27 5t35 4zM343 573q-74 0 -118 -31t-44 -82q0 -58 43.5 -90t121.5 -32q85 0 128 32q21 17 33 38t12 43q0 27 -17 53.5t-45 43.5q-20 12 -50 18.5t-64 6.5zM347 285q-39 0 -71.5 -8
t-56.5 -23t-37 -35.5t-13 -45.5q0 -28 14 -52.5t38.5 -42.5t57.5 -28.5t71 -10.5q39 0 71.5 9.5t56.5 26.5t37.5 40.5t13.5 51.5q0 26 -13.5 47.5t-37.5 37.5t-57.5 24.5t-73.5 8.5z" />
    <glyph glyph-name="nine" unicode="9" horiz-adv-x="695" 
d="M529 301q-87 -115 -215 -115q-52 0 -102 19.5t-87 54.5q-62 59 -62 140q0 49 20.5 90t57.5 71t88 46.5t112 16.5q149 0 225 -95q32 -40 49 -93t17 -111q0 -74 -24 -136t-67.5 -107t-103 -70.5t-129.5 -25.5q-45 0 -84.5 10t-69 27.5t-46.5 41t-17 50.5t18 45.5t44 18.5
t43.5 -17t17.5 -42q0 -28 -24 -45q52 -39 119 -39q40 0 76 15t64.5 41.5t48 64t27.5 82.5q1 8 2 14t1.5 12.5t0.5 14.5v21zM345 578q-38 0 -71 -13.5t-58 -37t-39 -54.5t-14 -66q0 -34 13 -63t36.5 -50.5t55 -33.5t68.5 -12q38 0 71.5 12.5t58 33.5t39 50t14.5 62
q0 35 -13.5 66.5t-37.5 55t-55.5 37t-67.5 13.5z" />
    <glyph glyph-name="colon" unicode=":" horiz-adv-x="295" 
d="M147 105q24 0 40.5 -16.5t16.5 -40.5q0 -23 -17 -40t-41 -17q-23 0 -39.5 16.5t-16.5 40.5q0 25 16 41t41 16zM147 438q24 0 40.5 -16.5t16.5 -40.5q0 -23 -17 -40t-41 -17q-23 0 -39.5 16.5t-16.5 40.5q0 25 16 41t41 16z" />
    <glyph glyph-name="semicolon" unicode=";" horiz-adv-x="295" 
d="M86 -96q30 17 49.5 45.5t20.5 54.5l-9 -3t-8 -1q-23 0 -37 14t-14 36q0 24 16 39.5t41 15.5q29 0 46 -19.5t17 -51.5q0 -48 -25 -86.5t-79 -73.5zM147 438q24 0 40.5 -16.5t16.5 -40.5q0 -23 -17 -40t-41 -17q-23 0 -39.5 16.5t-16.5 40.5q0 25 16 41t41 16z" />
    <glyph glyph-name="less" unicode="&#x3c;" 
d="M450 20l-400 224v43l400 224v-52l-346 -192v-2l346 -192v-53z" />
    <glyph glyph-name="equal" unicode="=" 
d="M48 389h404v-46h-404v46zM48 196h404v-45h-404v45z" />
    <glyph glyph-name="greater" unicode="&#x3e;" 
d="M50 73l346 192v2l-346 192v52l400 -224v-43l-400 -224v53z" />
    <glyph glyph-name="question" unicode="?" horiz-adv-x="644" 
d="M273 156q0 27 3.5 48.5t13 41.5t26 39t40.5 42q44 40 61.5 69t17.5 61q0 51 -38 82t-99 31q-88 0 -124 -51q15 -5 24 -19t9 -34q0 -26 -15.5 -42.5t-39.5 -16.5q-28 0 -46.5 21.5t-18.5 54.5q0 30 17.5 55.5t47.5 45t71 30.5t88 11q52 0 97 -12.5t78 -35t51.5 -53
t18.5 -66.5q0 -45 -25.5 -81t-82.5 -71q-39 -23 -62.5 -39.5t-36 -32.5t-17.5 -34t-6 -44h-53zM303 105q24 0 40.5 -16.5t16.5 -40.5q0 -23 -17 -40t-41 -17q-23 0 -39.5 16.5t-16.5 40.5q0 25 16 41t41 16z" />
    <glyph glyph-name="at" unicode="@" horiz-adv-x="1071" 
d="M649 96q-24 -48 -68 -73.5t-99 -25.5q-58 0 -93.5 30t-35.5 77q0 60 62 93q14 7 24.5 12t25.5 10t39 11.5t66 17.5q22 5 37 10.5t25 11.5q16 14 16 33q0 29 -30 48.5t-72 19.5q-52 0 -83 -31q11 -8 15 -14.5t4 -16.5q0 -20 -14.5 -33.5t-34.5 -13.5q-23 0 -37.5 16
t-14.5 40q0 41 46 66t122 25q73 0 117 -28q29 -17 41.5 -47.5t12.5 -83.5v-133q0 -40 6.5 -55t25.5 -15t39 12t37 33t28 49t11 60q0 61 -14.5 120t-49 105t-93 74t-146.5 28q-86 0 -148.5 -26.5t-103.5 -72t-61 -106.5t-20 -130q0 -71 20.5 -127.5t63 -96t107.5 -60.5
t155 -21q39 0 68.5 4t53 10t42.5 13.5t37 15.5l-10 -32q-15 -6 -33.5 -12.5t-42.5 -12t-54 -9t-69 -3.5q-107 0 -187.5 23.5t-134.5 66.5t-81 104.5t-27 136.5t27 141t81 114.5t133.5 77t184.5 28.5q70 0 140 -23.5t126.5 -68.5t92 -110.5t35.5 -150.5q0 -45 -22.5 -89
t-59.5 -73q-29 -22 -62 -32t-81 -10q-38 0 -61.5 25t-23.5 63v11zM649 246q-6 -9 -12.5 -15.5t-17.5 -12t-28.5 -11.5t-45.5 -14q-57 -16 -82 -36.5t-25 -49.5q0 -26 18 -42t47 -16q27 0 53 10.5t46 28t32.5 40.5t13.5 47z" />
    <glyph glyph-name="A" unicode="A" horiz-adv-x="894" 
d="M-19 52h29q34 0 58 11.5t43 35.5q7 9 17 23t20 29.5t19 30.5t15 26l246 459h38l267 -494l20 -35t14.5 -23.5t13 -17t15.5 -15.5q19 -17 38 -23.5t48 -6.5h31v-52h-386v52h33q90 0 90 49q0 19 -13 45l-48 92h-330l-45 -87q-13 -25 -15 -43q-1 -8 4.5 -19t13.5 -18
q20 -19 73 -19h34v-52h-343v52zM563 286l-139 271l-139 -271h278z" />
    <glyph glyph-name="B" unicode="B" horiz-adv-x="788" 
d="M34 52h21q73 0 100 29q10 11 13.5 24t3.5 40v378q0 29 -5 43.5t-19 25.5q-29 23 -93 23h-21v52h409q67 0 106 -4.5t67 -15.5q50 -20 80 -60t30 -87q0 -54 -41 -96t-113 -59q35 -7 54.5 -13.5t38.5 -18.5q37 -24 56.5 -61t19.5 -83q0 -38 -14 -69t-40 -53.5t-62.5 -34.5
t-80.5 -12h-510v52zM428 371q91 0 141.5 31t50.5 88q0 20 -7.5 39t-20 35t-30 27t-37.5 16q-15 4 -37.5 6t-44.5 2h-173v-244h158zM415 52q33 0 56 0.5t40.5 2.5t30 5.5t24.5 8.5q31 14 49.5 45t18.5 69q0 64 -46.5 100t-128.5 36h-189v-267h145z" />
    <glyph glyph-name="C" unicode="C" horiz-adv-x="775" 
d="M738 214q-11 -41 -27 -68.5t-43 -55.5q-52 -54 -118.5 -81.5t-144.5 -27.5q-80 0 -147 26.5t-115.5 73.5t-75.5 112t-27 143q0 76 26.5 140.5t74 110.5t113.5 72t144 26q22 0 42 -2t42.5 -6.5t49.5 -13t63 -20.5q24 -9 41 -9q38 0 44 38h48v-246h-45q-7 44 -17 70t-29 49
q-34 40 -91 63.5t-120 23.5q-69 0 -120.5 -24.5t-90.5 -75.5q-32 -43 -49.5 -93t-17.5 -101q0 -60 21.5 -112.5t58.5 -92t87 -62.5t106 -23q51 0 101.5 20t88.5 55q21 19 34 38t29 53h64z" />
    <glyph glyph-name="D" unicode="D" horiz-adv-x="855" 
d="M34 52h21q73 0 100 29q10 11 13.5 24t3.5 40v378q0 29 -5 43.5t-19 25.5q-29 23 -93 23h-21v52h414q92 0 156.5 -24.5t116.5 -78.5q45 -47 69 -106t24 -125q0 -139 -101 -238q-96 -95 -238 -95h-441v52zM378 52q79 0 134.5 16.5t98.5 52.5q44 38 67 91.5t23 119.5
q0 60 -19.5 111t-57.5 89q-44 44 -103 63.5t-147 19.5h-104v-563h108z" />
    <glyph glyph-name="E" unicode="E" horiz-adv-x="775" 
d="M34 52h21q73 0 100 29q10 11 13.5 24t3.5 40v378q0 29 -5 43.5t-19 25.5q-29 23 -93 23h-21v52h668v-232h-47q-4 52 -13.5 86.5t-28.5 55.5t-49 29.5t-74 8.5h-221v-246h105q58 0 81 45q8 18 11 38t4 59h48v-345h-48q-1 44 -6 73.5t-16 47t-29 25t-45 7.5h-105v-267h219
q23 0 39 1t28 3.5t20.5 6.5t16.5 11q14 11 24.5 26t17.5 36t12 50t9 69h47v-255h-668v52z" />
    <glyph glyph-name="F" unicode="F" horiz-adv-x="718" 
d="M30 52h21q73 0 100 29q10 11 13.5 24t3.5 40v378q0 29 -5 43.5t-19 25.5q-29 23 -93 23h-21v52h657v-232h-48q0 27 -1 47.5t-4.5 36.5t-9 28.5t-14.5 23.5q-17 23 -46 33.5t-78 10.5h-221v-246h106q47 0 68.5 34t26.5 113h48v-350h-48q-2 49 -7 73t-17 44
q-11 17 -29.5 26.5t-41.5 9.5h-106v-174q0 -30 5 -44.5t19 -25.5q29 -23 93 -23h21v-52h-373v52z" />
    <glyph glyph-name="G" unicode="G" horiz-adv-x="851" 
d="M633 86q-11 -12 -20 -21t-17.5 -16t-17.5 -13t-20 -12q-38 -22 -82.5 -33t-90.5 -11q-73 0 -136 27.5t-109.5 75.5t-73 113t-26.5 140q0 76 26 140t72 110.5t110 72.5t139 26q23 0 43.5 -2t41.5 -6t44 -10.5t50 -15.5q15 -5 25 -7t18 -2q34 0 37 34h48v-249h-48
q-2 31 -7 51t-16 41q-29 54 -85.5 85t-124.5 31q-56 0 -104 -22t-83 -61t-54.5 -92.5t-19.5 -116.5t21 -117.5t57 -95.5t84.5 -64.5t104.5 -23.5q33 0 66 12t59 32t42 44.5t16 50.5q0 17 -10 33t-25 22q-23 11 -87 11h-15v48h369v-48h-12q-24 0 -39 -0.5t-25.5 -3
t-17.5 -6.5t-15 -10q-15 -12 -21.5 -33t-6.5 -56v-138h-28z" />
    <glyph glyph-name="H" unicode="H" horiz-adv-x="962" 
d="M34 52h21q73 0 100 29q10 11 13.5 24t3.5 40v378q0 29 -5 43.5t-19 25.5q-29 23 -93 23h-21v52h376v-52h-21q-73 0 -100 -29q-10 -11 -13.5 -24t-3.5 -39v-154h416v154q0 29 -5 43.5t-19 25.5q-29 23 -93 23h-21v52h377v-52h-21q-73 0 -100 -29q-10 -11 -13.5 -24
t-3.5 -39v-378q0 -30 5 -44.5t19 -25.5q29 -23 93 -23h21v-52h-377v52h21q73 0 100 29q10 11 13.5 24t3.5 40v174h-416v-174q0 -30 5 -44.5t19 -25.5q29 -23 93 -23h21v-52h-376v52z" />
    <glyph glyph-name="I" unicode="I" horiz-adv-x="459" 
d="M42 52h21q73 0 100 29q10 11 13.5 24t3.5 40v378q0 29 -5 43.5t-19 25.5q-29 23 -93 23h-21v52h376v-52h-21q-73 0 -100 -29q-10 -11 -13.5 -24t-3.5 -39v-378q0 -30 5 -44.5t19 -25.5q29 -23 93 -23h21v-52h-376v52z" />
    <glyph glyph-name="J" unicode="J" horiz-adv-x="535" 
d="M279 523q0 29 -5 43.5t-19 25.5q-29 23 -93 23h-21v52h375v-52h-21q-73 0 -100 -29q-10 -11 -13.5 -24t-3.5 -39v-365q0 -104 -80 -148q-25 -14 -54.5 -21.5t-60.5 -7.5q-37 0 -68 10t-53.5 27.5t-35 41.5t-12.5 53q0 32 17.5 51.5t46.5 19.5q26 0 44.5 -17t18.5 -42
q0 -20 -8 -32t-31 -24q28 -39 78 -39q99 0 99 142v351z" />
    <glyph glyph-name="K" unicode="K" horiz-adv-x="917" 
d="M34 52h21q73 0 100 29q10 11 13.5 24t3.5 40v378q0 29 -5 43.5t-19 25.5q-29 23 -93 23h-21v52h377v-52h-21q-73 0 -100 -29q-10 -11 -13.5 -24t-3.5 -39v-218l319 226q27 19 38 31t11 22q0 30 -80 30h-19v53h330v-53h-15q-31 0 -60 -11t-64 -36l-217 -152l211 -258
q25 -31 45 -51t37.5 -32t34.5 -17t37 -5h12v-52h-351v52h19q80 0 80 33q0 16 -25 47l-178 231l-165 -122v-96q0 -30 5 -44.5t19 -25.5q29 -23 93 -23h21v-52h-377v52z" />
    <glyph glyph-name="L" unicode="L" horiz-adv-x="700" 
d="M34 52h21q73 0 100 29q10 11 13.5 24t3.5 40v378q0 29 -5 43.5t-19 25.5q-29 23 -93 23h-21v52h384v-52h-31q-73 0 -100 -29q-10 -11 -13.5 -24t-3.5 -39v-471h188q109 0 140 88q6 17 10 40.5t9 74.5h48v-255h-631v52z" />
    <glyph glyph-name="M" unicode="M" horiz-adv-x="1114" 
d="M34 52h21q73 0 100 29q10 11 13.5 24t3.5 40v378q0 29 -5 43.5t-19 25.5q-29 23 -93 23h-21v52h261l267 -547l263 547h255v-52h-21q-73 0 -100 -29q-10 -11 -13.5 -24t-3.5 -39v-378q0 -30 5 -44.5t19 -25.5q29 -23 93 -23h21v-52h-378v52h21q73 0 100 29q10 11 13.5 24
t3.5 40v439l-278 -584h-50l-285 584v-439q0 -30 5 -44.5t19 -25.5q29 -23 93 -23h21v-52h-331v52z" />
    <glyph glyph-name="N" unicode="N" horiz-adv-x="971" 
d="M224 562v-417q0 -30 5 -44.5t19 -25.5q29 -23 93 -23h21v-52h-331v52h21q73 0 100 29q10 11 13.5 24t3.5 40v378q0 29 -5 43.5t-19 25.5q-29 23 -93 23h-21v52h226l491 -511v367q0 29 -5 43.5t-19 25.5q-29 23 -93 23h-21v52h330v-52h-21q-73 0 -100 -29
q-10 -11 -13.5 -24t-3.5 -39v-532h-33z" />
    <glyph glyph-name="O" unicode="O" horiz-adv-x="870" 
d="M447 686q81 0 151.5 -27t122 -74t81.5 -111t30 -138q0 -76 -30 -141t-82.5 -112.5t-125 -74.5t-156.5 -27q-78 0 -147 21.5t-120 61.5q-61 48 -96 120t-35 150q0 37 9 74.5t25 71.5t39 63.5t52 52.5q56 44 128.5 67t153.5 23zM440 629q-59 0 -110 -23t-89.5 -63.5
t-60.5 -94.5t-22 -116t22 -116t59.5 -94t88 -63.5t107.5 -23.5q58 0 109 23.5t89 64t60 95t22 116.5q0 54 -18 105.5t-52 90.5q-38 45 -93.5 72t-111.5 27z" />
    <glyph glyph-name="P" unicode="P" horiz-adv-x="681" 
d="M34 52h21q73 0 100 29q10 11 13.5 24t3.5 40v378q0 29 -5 43.5t-19 25.5q-29 23 -93 23h-21v52h408q69 0 112 -15t71 -48q40 -48 40 -110q0 -42 -19.5 -80t-54.5 -61q-49 -34 -152 -34h-169v-174q0 -30 5 -44.5t19 -25.5q29 -23 93 -23h31v-52h-384v52zM413 371
q68 0 106.5 32t38.5 88q0 59 -39 91.5t-110 32.5h-139v-244h143z" />
    <glyph glyph-name="Q" unicode="Q" horiz-adv-x="870" 
d="M798 30q-1 -39 -8 -61.5t-24 -45.5q-37 -49 -96 -49q-27 0 -53.5 11t-47.5 31q-23 22 -51 73q-29 -4 -53 -6t-38 -2q-67 0 -133.5 22.5t-120.5 64.5q-65 51 -99 118.5t-34 148.5q0 75 31 141.5t89 117.5q107 92 267 92q98 0 177 -30.5t134 -90.5q44 -48 68.5 -109
t24.5 -124q0 -36 -8.5 -72t-24 -70t-38 -63.5t-49.5 -52.5q-12 -10 -23 -17.5t-24 -15t-29 -15t-38 -16.5q27 -44 44.5 -59.5t40.5 -15.5q11 0 23 5.5t21 14.5q12 13 17.5 29t7.5 46h47zM300 67q8 33 16.5 52t21.5 31q33 31 78 31q46 0 80.5 -25.5t68.5 -85.5
q72 42 110.5 110t38.5 152q0 62 -22 116t-59.5 94.5t-89 63.5t-109.5 23q-59 0 -110 -22.5t-88.5 -62.5t-59 -93.5t-21.5 -115.5q0 -165 145 -268zM343 50q25 -8 43.5 -11t44.5 -3q12 0 22.5 1t30.5 4q-21 44 -39.5 61.5t-43.5 17.5q-52 0 -58 -70z" />
    <glyph glyph-name="R" unicode="R" horiz-adv-x="844" 
d="M34 52h21q73 0 100 29q10 11 13.5 24t3.5 40v378q0 29 -5 43.5t-19 25.5q-29 23 -93 23h-21v52h448q63 0 105 -10t73 -32q30 -21 46.5 -53t16.5 -69q0 -40 -19 -73t-55 -55q-19 -12 -38.5 -19.5t-54.5 -15.5q31 -5 52.5 -16t34.5 -31.5t19 -51.5t6 -76q2 -66 13 -93
t38 -27q26 0 42 31q7 14 10 35.5t5 65.5h54q0 -29 -1.5 -49.5t-4.5 -36.5t-7.5 -28.5t-11.5 -24.5q-35 -57 -108 -57q-75 0 -107 58q-6 12 -10 23.5t-6.5 27.5t-3.5 39.5t-1 59.5q-1 70 -29 100t-93 30h-177v-174q0 -30 5 -44.5t19 -25.5q29 -23 93 -23h21v-52h-374v52z
M444 371q81 0 128 32.5t47 88.5q0 43 -27 73q-12 14 -26.5 23.5t-32.5 15.5t-42 8.5t-55 2.5h-166v-244h174z" />
    <glyph glyph-name="S" unicode="S" horiz-adv-x="721" 
d="M47 246h48q5 -29 11.5 -50t16 -37.5t22.5 -29.5t31 -25q22 -15 48 -27.5t53.5 -21t55.5 -13.5t54 -5q44 0 84.5 12.5t69.5 35.5q47 35 47 90q0 28 -13.5 52t-36.5 38q-25 16 -77 21l-145 12q-42 3 -71.5 7t-51 8.5t-37 11t-29.5 15.5q-33 21 -53.5 60.5t-20.5 83.5
t19.5 81t55 64t84 42t106.5 15q45 0 90 -8.5t77 -23.5q26 -11 46 -17.5t31 -6.5q7 0 14 4.5t10 9.5q2 3 3 7t3 16h48v-210h-48q-5 25 -11.5 43t-16.5 32t-23 25.5t-32 22.5q-39 24 -86.5 37t-95.5 13q-38 0 -71.5 -10t-58 -27.5t-38.5 -41t-14 -50.5q0 -26 14.5 -47
t39.5 -32q20 -8 80 -14l139 -11q39 -3 67 -6.5t49 -9t37.5 -13.5t33.5 -20q36 -26 57 -67.5t21 -86.5t-20 -86.5t-54 -67.5q-36 -28 -88.5 -43.5t-110.5 -15.5q-45 0 -94.5 10t-91.5 27q-29 12 -52.5 19t-36.5 7q-40 0 -40 -44h-48v246z" />
    <glyph glyph-name="T" unicode="T" horiz-adv-x="760" 
d="M194 52h21q73 0 100 29q10 11 13.5 24t3.5 40v470h-115q-35 0 -65.5 -11t-45.5 -31q-9 -11 -15 -22.5t-9.5 -27.5t-6 -37t-3.5 -50h-48v231h712v-231h-47q0 45 -3 68t-11 41q-30 70 -116 70h-127v-470q0 -30 5 -44.5t19 -25.5q29 -23 93 -23h21v-52h-376v52z" />
    <glyph glyph-name="U" unicode="U" horiz-adv-x="948" 
d="M725 523q0 29 -5 43.5t-19 25.5q-29 23 -93 23h-21v52h338v-52h-21q-73 0 -100 -29q-10 -11 -13.5 -24t-3.5 -39v-288q0 -126 -77 -190t-229 -64q-153 0 -236.5 68.5t-83.5 193.5v280q0 29 -5 43.5t-19 25.5q-29 23 -93 23h-21v52h377v-52h-21q-73 0 -100 -29
q-11 -11 -14 -23.5t-3 -39.5v-271q0 -100 62 -157t171 -57t169.5 51.5t60.5 145.5v288z" />
    <glyph glyph-name="V" unicode="V" horiz-adv-x="917" 
d="M174 489q-21 38 -38 62.5t-33.5 38.5t-34.5 19.5t-42 5.5h-32v52h391v-52h-38q-46 0 -66 -11.5t-20 -37.5q0 -11 9.5 -34.5t23.5 -50.5l196 -365l184 356q14 27 21.5 51t7.5 41q0 24 -20 37.5t-55 13.5h-46v52h341v-52h-32q-23 0 -42 -6t-36 -21t-34 -39t-36 -60
l-258 -489h-43z" />
    <glyph glyph-name="W" unicode="W" horiz-adv-x="1293" 
d="M184 477q-13 31 -22.5 51t-17.5 32.5t-16 20.5t-18 14q-30 19 -91 19h-21v53h403v-53h-25q-65 0 -89.5 -10.5t-24.5 -36.5q0 -10 5.5 -29.5t13.5 -38.5l153 -360l220 528h41l224 -528l148 356q8 19 13.5 38.5t5.5 30.5q0 26 -28 40q-13 6 -32.5 8t-58.5 2h-18v53h347v-53
h-23q-30 0 -52 -5.5t-39.5 -19.5t-31.5 -37t-28 -57l-203 -495h-43l-222 525l-220 -525h-46z" />
    <glyph glyph-name="X" unicode="X" horiz-adv-x="873" 
d="M24 52h17q20 0 42 9.5t51.5 32.5t69.5 61.5t96 97.5l74 78l-195 205q-42 44 -72.5 61t-67.5 17h-15v53h350v-53h-23q-32 0 -46.5 -7.5t-14.5 -24.5q0 -12 8.5 -28t21.5 -30l124 -125l110 113q41 44 41 70q0 18 -16 25t-56 7h-15v53h317v-53h-16q-33 0 -57.5 -8t-53.5 -29
q-17 -12 -34 -27t-31 -29l-155 -159l225 -231q16 -17 26 -27t17 -16.5t13 -10t13 -7.5q34 -18 69 -18h14v-52h-363v52h22q28 0 41 2.5t23 9.5q5 3 9 9t4 11q0 7 -2.5 13.5t-8.5 16t-17.5 22t-29.5 31.5l-120 128l-114 -120q-28 -29 -39.5 -47.5t-11.5 -35.5q0 -40 73 -40h19
v-52h-316v52z" />
    <glyph glyph-name="Y" unicode="Y" horiz-adv-x="833" 
d="M227 52h21q73 0 100 29q10 11 13.5 24t3.5 40v141l-184 256q-16 22 -30 36t-29.5 22t-35 11t-46.5 3h-21v53h380v-53h-32q-79 0 -79 -41q0 -6 0.5 -10.5t3 -9.5t8 -14t16.5 -24l121 -180l133 181q14 20 19 30.5t5 23.5q0 23 -21 33.5t-70 10.5h-18v53h329v-53h-17
q-48 0 -87 -23.5t-78 -76.5l-167 -228v-141q0 -30 5 -44.5t19 -25.5q29 -23 93 -23h21v-52h-376v52z" />
    <glyph glyph-name="Z" unicode="Z" horiz-adv-x="706" 
d="M34 47l481 568h-265q-97 0 -131 -54q-11 -18 -16 -43.5t-7 -77.5h-48v227h600v-47l-479 -568h303q45 0 70.5 12.5t45.5 44.5q14 22 21.5 51.5t13.5 82.5h48v-243h-637v47z" />
    <glyph glyph-name="bracketleft" unicode="[" horiz-adv-x="391" 
d="M99 667h202v-43h-126v-695h126v-47h-202v785z" />
    <glyph glyph-name="backslash" unicode="\" horiz-adv-x="412" 
d="M44 667h68l290 -785h-71z" />
    <glyph glyph-name="bracketright" unicode="]" horiz-adv-x="391" 
d="M90 -75h126v695h-126v47h202v-785h-202v43z" />
    <glyph glyph-name="asciicircum" unicode="^" 
d="M56 310l171 381h46l170 -381h-51l-141 324h-2l-141 -324h-52z" />
    <glyph glyph-name="underscore" unicode="_" 
d="M0 -69h500v-57h-500v57z" />
    <glyph glyph-name="grave" unicode="`" 
d="M107 672h116l77 -134h-77z" />
    <glyph glyph-name="a" unicode="a" horiz-adv-x="611" 
d="M390 102q-29 -56 -80.5 -86t-116.5 -30q-69 0 -110.5 34.5t-41.5 91.5q0 35 19 63.5t54 46.5q16 9 27.5 14t28.5 10.5t46 13t81 20.5q50 13 71 28q20 14 20 38q0 16 -9.5 31t-25.5 25.5t-37.5 17t-45.5 6.5q-33 0 -57 -9t-42 -28q13 -9 17.5 -17t4.5 -19q0 -23 -17 -39
t-41 -16q-26 0 -43.5 18.5t-17.5 46.5q0 24 14.5 44t40.5 34.5t62.5 22t81.5 7.5q83 0 136 -32q34 -21 49 -57t15 -99v-157q0 -46 8 -62t31 -16q25 0 34.5 20t9.5 71v45h43v-74q0 -59 -29 -91.5t-80 -32.5q-45 0 -72.5 29t-27.5 74v13zM390 278q-8 -11 -15.5 -18t-20 -13.5
t-33 -13.5t-53.5 -16q-68 -20 -98 -44t-30 -58q0 -31 21.5 -50t55.5 -19q32 0 62.5 12.5t54 33.5t38.5 48t16 56z" />
    <glyph glyph-name="b" unicode="b" horiz-adv-x="611" 
d="M92 536q0 48 -14.5 65.5t-54.5 17.5h-7v48h158v-300q26 51 72 77.5t105 26.5q48 0 89 -17.5t70 -49.5t45.5 -76t16.5 -96q0 -54 -16 -99t-45 -78t-68.5 -51t-87.5 -18q-60 0 -109 30q-11 6 -20 12.5t-17 15t-16.5 19t-18.5 25.5l-28 -88h-54v536zM326 417
q-33 0 -60.5 -13.5t-47.5 -37.5t-31 -57t-11 -72q0 -44 11 -80.5t31.5 -63t48.5 -41t62 -14.5q33 0 60 14t46.5 39t30 59.5t10.5 76.5t-11 77t-30.5 60t-47.5 39t-61 14z" />
    <glyph glyph-name="c" unicode="c" horiz-adv-x="515" 
d="M487 138q-48 -152 -209 -152q-51 0 -95 19t-76 52t-50.5 78t-18.5 97q0 53 19 97t53 75.5t81.5 49t104.5 17.5q38 0 70.5 -8.5t56 -24t36.5 -36.5t13 -46q0 -26 -17 -44.5t-42 -18.5q-23 0 -39 15.5t-16 37.5q0 30 29 44q-32 36 -91 36q-35 0 -64.5 -14t-50.5 -39.5
t-32.5 -61t-11.5 -78.5q0 -42 12 -77t33 -60.5t50 -39.5t64 -14q48 0 84 26t50 70h57z" />
    <glyph glyph-name="d" unicode="d" horiz-adv-x="632" 
d="M432 87q-38 -54 -81 -78t-100 -24q-47 0 -86 18.5t-67.5 51.5t-44 78.5t-15.5 99.5t16 98t45 75t70 48t91 17q54 0 96 -22t76 -70v142q0 30 -4 49t-14.5 30t-28.5 15t-46 4h-10v48h185v-519q0 -31 4 -50.5t14.5 -30.5t29 -15t47.5 -4v-48h-177v87zM282 418
q-33 0 -60.5 -13.5t-47.5 -38t-31 -58.5t-11 -74q0 -42 11.5 -78t31 -62.5t46.5 -41.5t59 -15q31 0 59.5 15.5t49.5 41.5t33.5 61.5t12.5 74.5q0 40 -11.5 74.5t-32 60t-48.5 39.5t-61 14z" />
    <glyph glyph-name="e" unicode="e" horiz-adv-x="562" 
d="M513 141q-21 -73 -78.5 -114t-138.5 -41q-57 0 -104.5 18t-81.5 50.5t-53 78t-19 99.5q0 52 18.5 95.5t52 75.5t79 50t99.5 18q72 0 127 -32.5t84 -92.5q14 -29 19.5 -59.5t6.5 -76.5h-388q4 -77 49.5 -123t117.5 -46q33 0 65.5 12.5t52.5 32.5q11 11 18.5 23t16.5 32h57
zM428 258q-2 31 -7 53t-15 41q-18 34 -50.5 52.5t-73.5 18.5q-66 0 -104.5 -43.5t-41.5 -121.5h292z" />
    <glyph glyph-name="f" unicode="f" horiz-adv-x="395" 
d="M28 48h14q29 0 47.5 4.5t28.5 18t13.5 37t3.5 61.5v240h-107v48h107v40q0 41 12 75t34 58t52.5 37.5t68.5 13.5q28 0 51.5 -7.5t40.5 -20.5t27 -31t10 -39q0 -28 -16 -45.5t-42 -17.5q-23 0 -38.5 15t-15.5 38q0 36 30 47q-18 19 -44 19q-41 0 -64 -35t-23 -96v-51h120
v-48h-120v-237q0 -26 0.5 -42t2.5 -27t5.5 -18t9.5 -13q22 -24 82 -24h21v-48h-311v48z" />
    <glyph glyph-name="g" unicode="g" horiz-adv-x="675" 
d="M408 46q56 0 90 -7.5t56 -24.5q17 -14 27.5 -36.5t10.5 -46.5q0 -74 -76 -114t-217 -40q-80 0 -138 11t-88 31q-45 31 -45 74q0 29 18.5 52t53.5 37q-32 14 -49 38t-17 56q0 38 24.5 65t67.5 37q-28 26 -41 53t-13 62q0 38 17 70.5t46 56.5t69 37.5t87 13.5
q57 0 97.5 -17t81.5 -57q17 29 44.5 44.5t59.5 15.5q19 0 36.5 -7.5t30 -20.5t20 -31t7.5 -38q0 -27 -17.5 -46.5t-42.5 -19.5q-22 0 -38 15t-16 36q0 41 50 47q-8 10 -16 14t-20 4q-23 0 -39.5 -11t-33.5 -37q8 -15 12.5 -34t4.5 -36q0 -36 -17.5 -67t-48 -53.5t-72 -35.5
t-90.5 -13q-38 0 -64.5 7t-57.5 25q-29 -7 -44.5 -22t-15.5 -36q0 -29 22 -40t78 -11h206zM289 426q-27 0 -50.5 -10t-40.5 -27t-27 -40t-10 -49q0 -60 36.5 -97t94.5 -37q28 0 51.5 9.5t40.5 27t27 41t10 51.5q0 27 -10 51t-28 42t-42 28t-52 10zM216 -31q-63 0 -96 -17.5
t-33 -50.5q0 -37 50 -56.5t144 -19.5q42 0 83 4t66 10q67 18 67 65q0 29 -29.5 47t-77.5 18h-174z" />
    <glyph glyph-name="h" unicode="h" horiz-adv-x="653" 
d="M12 48q29 0 47.5 4t29 15t14.5 30.5t4 50.5v372q0 30 -4 49.5t-14.5 30.5t-29 15t-47.5 4v48h177v-305q56 110 178 110q40 0 72 -14t55 -40t35.5 -63t12.5 -82v-125q0 -31 4 -50.5t14.5 -30.5t29 -15t47.5 -4v-48h-275v48q29 0 47.5 4t29 15t14.5 30.5t4 50.5v117
q0 69 -32.5 107t-90.5 38q-35 0 -64 -14.5t-48 -40.5q-18 -24 -25.5 -54.5t-7.5 -78.5v-74q0 -31 4 -50.5t14.5 -30.5t29 -15t47.5 -4v-48h-272v48z" />
    <glyph glyph-name="i" unicode="i" horiz-adv-x="337" 
d="M30 48h10q28 0 46 4t28.5 15t14.5 30t4 49v165q0 30 -4 49t-14.5 30t-28.5 15t-46 4h-10v48h184v-309q0 -31 4 -50.5t14.5 -30.5t29 -15t47.5 -4v-48h-279v48zM159 662q26 0 43 -17t17 -42t-17.5 -42.5t-42.5 -17.5t-42 17t-17 42q0 26 16.5 43t42.5 17z" />
    <glyph glyph-name="j" unicode="j" horiz-adv-x="324" 
d="M131 311q0 29 -4 48t-14.5 30t-28.5 15.5t-46 4.5h-10v48h186v-469q0 -58 -8 -95t-27 -61q-19 -26 -51 -40.5t-69 -14.5q-42 0 -68.5 22.5t-26.5 57.5q0 26 17 43.5t43 17.5q25 0 41.5 -16t16.5 -39q0 -15 -7 -25t-24 -19q8 -4 16 -4q32 0 50 32q4 8 7 16t4.5 18.5
t2 25.5t0.5 37v367zM163 662q26 0 43 -17t17 -42t-17.5 -42.5t-42.5 -17.5t-42 17t-17 42q0 26 16.5 43t42.5 17z" />
    <glyph glyph-name="k" unicode="k" horiz-adv-x="644" 
d="M16 48h10q28 0 46 4t28.5 15t14.5 30t4 49v375q0 30 -4 49t-14.5 30t-28.5 15t-46 4h-10v48h184v-449l149 132q24 21 24 35t-17.5 19.5t-63.5 5.5h-9v47h312v-47h-8q-45 0 -86 -14.5t-74 -43.5l-66 -58l152 -189q45 -57 103 -57h5v-48h-272v48q0 1 1 1l32 -2q2 0 6.5 1
t10 2.5t10.5 3.5t8 3q8 6 8 14q0 10 -14 27l-111 145l-100 -88v-7q0 -31 4 -50.5t14.5 -30.5t29 -15t47.5 -4v-48h-279v48z" />
    <glyph glyph-name="l" unicode="l" horiz-adv-x="328" 
d="M21 48h10q28 0 46 4t28.5 15t14.5 30t4 49v375q0 30 -4 49t-14.5 30t-28.5 15t-46 4h-10v48h184v-519q0 -31 4 -50.5t14.5 -30.5t29 -15t47.5 -4v-48h-279v48z" />
    <glyph glyph-name="m" unicode="m" horiz-adv-x="978" 
d="M28 48h10q28 0 46 4t28.5 15t14.5 30t4 49v165q0 30 -4 49t-14.5 30t-28.5 15t-46 4h-10v48h181v-93q24 51 68.5 79t100.5 28q64 0 105 -32q17 -14 28 -31t23 -49q15 32 28 48.5t34 30.5q23 16 51.5 24.5t57.5 8.5q45 0 81 -18.5t56 -50.5q7 -12 12 -24.5t8 -28t4.5 -35
t1.5 -46.5v-120q0 -31 4 -50.5t14.5 -30.5t29 -15t47.5 -4v-48h-273v48q29 0 47.5 4t29 15t14.5 30.5t4 50.5v117q0 146 -110 146q-65 0 -100.5 -49t-35.5 -137v-77q0 -31 4 -50.5t14.5 -30.5t29 -15t47.5 -4v-48h-270v48q29 0 47.5 4t29 15t14.5 30.5t4 50.5v110
q0 78 -25.5 115t-79.5 37q-65 0 -103 -47t-38 -125v-90q0 -31 4 -50.5t14.5 -30.5t29 -15t47.5 -4v-48h-280v48z" />
    <glyph glyph-name="n" unicode="n" horiz-adv-x="676" 
d="M28 48h10q28 0 46 4t28.5 15t14.5 30t4 49v165q0 30 -4 49t-14.5 30t-28.5 15t-46 4h-10v48h181v-98q31 60 73 86t106 26q80 0 129 -50q13 -14 22.5 -29t15 -34t8 -43t2.5 -57v-110q0 -31 4 -50.5t14.5 -30.5t29 -15t47.5 -4v-48h-275v48q29 0 47.5 4t29 15t14.5 30.5
t4 50.5v127q0 134 -122 134q-23 0 -44 -6.5t-38 -18.5q-34 -24 -48.5 -64t-14.5 -108v-64q0 -31 4 -50.5t14.5 -30.5t29 -15t47.5 -4v-48h-280v48z" />
    <glyph glyph-name="o" unicode="o" horiz-adv-x="587" 
d="M296 471q54 0 103.5 -20t84.5 -56q29 -30 46.5 -76t17.5 -94q0 -53 -19 -96.5t-52.5 -75.5t-80.5 -49.5t-103 -17.5t-103 17.5t-80.5 49.5t-52.5 75.5t-19 96.5q0 54 19 99t53 78t81.5 51t104.5 18zM295 423q-73 0 -115.5 -53.5t-42.5 -145.5q0 -88 42 -139t114 -51
t114 51.5t42 139.5q0 44 -11 80.5t-31.5 62.5t-49 40.5t-62.5 14.5z" />
    <glyph glyph-name="p" unicode="p" horiz-adv-x="614" 
d="M-5 -161h10q28 0 46 4t28.5 15t14.5 30t4 49v374q0 29 -4 48t-14.5 30t-28.5 15.5t-46 4.5h-10v48h187v-82q35 50 77 73t98 23q49 0 89.5 -17.5t69.5 -49t44.5 -76.5t15.5 -100q0 -50 -13 -89t-41 -74q-32 -38 -73 -58.5t-89 -20.5q-57 0 -104.5 28t-73.5 77v-116
q0 -39 4 -65.5t13.5 -42.5t25 -23t39.5 -7h21v-46h-290v48zM332 416q-33 0 -60.5 -13.5t-47.5 -37t-31.5 -56.5t-11.5 -72q0 -42 11.5 -77.5t31.5 -61.5t47.5 -41t59.5 -15t59 14.5t47 40t31.5 61t11.5 76.5q0 40 -11 73.5t-30.5 57.5t-46.5 37.5t-60 13.5z" />
    <glyph glyph-name="q" unicode="q" horiz-adv-x="640" 
d="M331 -161h10q28 0 46 4.5t28.5 15.5t14.5 30t4 48v155q-74 -106 -182 -106q-88 0 -151 69q-33 36 -48 77.5t-15 96.5q0 54 16 99t44.5 76.5t68.5 49t88 17.5q59 0 102.5 -24.5t76.5 -77.5v88h186v-48h-10q-28 0 -46 -4t-28.5 -15t-14.5 -30t-4 -49v-374q0 -30 4 -49
t14.5 -30t28.5 -15t46 -4h10v-48h-289v48zM284 413q-33 0 -60.5 -13.5t-47.5 -38t-31 -58t-11 -72.5q0 -41 11.5 -75.5t31.5 -59.5t47 -39.5t59 -14.5t59.5 14.5t48 39.5t32 59.5t11.5 74.5q0 41 -11 74.5t-30.5 57.5t-47.5 37.5t-61 13.5z" />
    <glyph glyph-name="r" unicode="r" horiz-adv-x="478" 
d="M28 48q29 0 47.5 4t29 15t14.5 30.5t4 50.5v161q0 31 -4 50.5t-14.5 30.5t-29 15t-47.5 4v48h173v-128q57 142 157 142q40 0 66.5 -26t26.5 -65q0 -32 -18.5 -53.5t-45.5 -21.5q-22 0 -38 15t-16 35q0 19 12.5 30.5t32.5 12.5q-15 25 -39 25q-52 0 -98 -87
q-22 -40 -31 -78.5t-9 -89.5q0 -35 4.5 -58.5t15.5 -37.5t30 -19.5t48 -5.5h15v-47h-286v48z" />
    <glyph glyph-name="s" unicode="s" horiz-adv-x="511" 
d="M59 177h43q5 -26 10.5 -41.5t16.5 -29.5q23 -30 63 -49t82 -19q48 0 78.5 22.5t30.5 57.5q0 31 -21 47.5t-68 22.5l-104 12q-66 8 -103 43t-37 89q0 29 13.5 54.5t36.5 44t55 29.5t68 11q19 0 35 -1.5t31 -5t30.5 -9t33.5 -13.5q13 -6 24 -6q17 0 20 21h38v-148h-38
q-8 29 -16 45.5t-23 30.5q-21 20 -51.5 31t-64.5 11q-48 0 -79.5 -21.5t-31.5 -55.5q0 -27 17.5 -41t55.5 -18l109 -12q45 -5 72.5 -16.5t47.5 -34.5q35 -40 35 -92q0 -32 -13.5 -59t-37.5 -47.5t-56.5 -32t-69.5 -11.5q-16 0 -28.5 1t-27.5 5.5t-36.5 12t-55.5 21.5
q-12 5 -19 5q-10 0 -14.5 -7t-7.5 -24h-43v177z" />
    <glyph glyph-name="t" unicode="t" horiz-adv-x="373" 
d="M282 178h43v-44q0 -46 -6.5 -72t-23.5 -43q-30 -33 -88 -33q-67 0 -93 44q-6 9 -9.5 19t-6 23t-3 32t-0.5 46v259h-92v43q119 3 133 167h46v-162h144v-48h-144v-257q0 -42 2.5 -60t9.5 -28q13 -18 38 -18q27 0 40 22q6 12 8 28.5t2 51.5v30z" />
    <glyph glyph-name="u" unicode="u" horiz-adv-x="646" 
d="M446 99q-61 -113 -174 -113q-43 0 -78.5 14.5t-59.5 42.5q-21 25 -30 55.5t-9 78.5v149q0 48 -14.5 65.5t-54.5 17.5h-7v48h158v-272q0 -63 32 -100.5t86 -37.5q29 0 59.5 14.5t52.5 40.5q20 24 29.5 54t9.5 73v80q0 31 -4 50.5t-14.5 30.5t-29 15t-47.5 4v48h175v-309
q0 -31 4 -50.5t14.5 -30.5t29 -15t47.5 -4v-48h-175v99z" />
    <glyph glyph-name="v" unicode="v" horiz-adv-x="641" 
d="M118 318q-16 27 -28.5 44t-26 27t-30.5 14.5t-42 6.5v47h306v-47h-12q-91 0 -89 -39q2 -18 12 -37l134 -237l116 203q16 29 23 46t7 28q0 19 -21.5 27.5t-72.5 8.5h-13v47h269v-47h-6q-23 0 -38 -3.5t-28 -14.5t-27 -32.5t-35 -58.5l-178 -315h-31z" />
    <glyph glyph-name="w" unicode="w" horiz-adv-x="927" 
d="M114 321q-13 28 -23.5 45t-23.5 26.5t-30 13t-43 4.5v47h316v-47h-15q-54 0 -79.5 -10.5t-25.5 -33.5q0 -19 16 -51l107 -215l149 357h33l154 -357l101 210q17 36 17 61q0 39 -90 39h-16v47h271v-47h-5q-44 0 -69 -16q-7 -4 -12 -8.5t-10 -12.5t-11.5 -20.5t-16.5 -32.5
l-159 -334h-41l-146 345l-147 -345h-37z" />
    <glyph glyph-name="x" unicode="x" horiz-adv-x="679" 
d="M25 48h9q21 0 35.5 2t27.5 7.5t26.5 16t33.5 28.5l139 126l-154 131q-19 16 -32 26t-25.5 15.5t-25.5 7.5t-32 2v47h288v-47l-23 -1q-28 -2 -39 -6.5t-11 -15.5q0 -15 27 -39l85 -73l74 72q12 12 19 18.5t10 10t3.5 6t0.5 6.5q0 13 -15 17.5t-53 4.5h-10v47h262v-47
q-24 -2 -39.5 -4t-28 -8t-26 -16.5t-33.5 -28.5l-126 -111l165 -140q21 -19 34.5 -29.5t23.5 -16t19 -7t21 -1.5h5v-48h-293v48h15q42 0 57.5 5t15.5 18q0 11 -9.5 23.5t-35.5 34.5l-71 62l-79 -71q-15 -14 -23 -21.5t-12 -12t-4.5 -7.5t-0.5 -7q0 -14 14 -19t50 -5h15v-48
h-274v48z" />
    <glyph glyph-name="y" unicode="y" horiz-adv-x="633" 
d="M289 -23l-182 362q-23 40 -48 56t-65 15v47h304v-47q-63 0 -85 -7.5t-22 -27.5q0 -9 5.5 -23.5t18.5 -40.5l122 -245l128 257q16 32 16 50q0 37 -87 37h-22v47h267v-47q-22 0 -37 -2.5t-26.5 -10.5t-21.5 -22t-22 -36l-231 -442q-32 -63 -68.5 -91.5t-83.5 -28.5
q-25 0 -46.5 8t-37 21.5t-24.5 32t-9 39.5q0 29 17 48t43 19q23 0 39 -15.5t16 -38.5q0 -19 -11.5 -31.5t-28.5 -14.5q12 -11 20.5 -15t20.5 -4q31 0 56 21.5t53 70.5z" />
    <glyph glyph-name="z" unicode="z" horiz-adv-x="540" 
d="M38 48l340 361h-170q-34 0 -56 -5t-34.5 -18t-17.5 -36t-5 -58v-20h-48v185h442v-48l-339 -361h182q32 0 53.5 5t35 17.5t19.5 33t7 51.5l1 41h50v-196h-460v48z" />
    <glyph glyph-name="braceleft" unicode="{" 
d="M370 -186q-5 -1 -9 -1h-6q-30 0 -52 1.5t-37.5 5.5t-26.5 10.5t-20 16.5q-17 18 -24 45t-7 70v157q0 48 -12.5 71.5t-44.5 34.5v45q31 10 44 33.5t13 69.5v171q0 38 8 62.5t25 41.5q18 18 47 25t86 7h6.5t9.5 -1v-55q-28 -1 -46.5 -6.5t-29 -18.5t-15 -34.5t-4.5 -54.5
v-150q0 -48 -12 -72.5t-43 -41.5q31 -17 43 -43t12 -73v-147q0 -35 4.5 -57t15 -35.5t29 -19t46.5 -6.5v-51z" />
    <glyph glyph-name="bar" unicode="|" 
d="M206 667h89v-834h-89v834z" />
    <glyph glyph-name="braceright" unicode="}" 
d="M130 -131q28 1 46.5 6.5t29 18.5t15 34.5t4.5 54.5v150q0 48 12 72.5t43 41.5q-31 17 -43 43t-12 73v147q0 34 -4.5 56.5t-15 36t-29 19t-46.5 6.5v52h15q30 0 52 -1.5t37.5 -5.5t26.5 -10.5t20 -16.5q17 -18 24 -45t7 -70v-157q0 -49 13 -72t45 -34v-45q-32 -11 -45 -34
t-13 -69v-171q0 -38 -8 -62.5t-25 -41.5q-18 -18 -47 -25t-86 -7h-6.5t-9.5 1v55z" />
    <glyph glyph-name="asciitilde" unicode="~" 
d="M52 228q2 54 27 85t65 31q28 0 55.5 -10.5t54.5 -23t52 -23t48 -10.5q24 0 36 17t14 48h44q-5 -63 -29 -89t-59 -26q-27 0 -56 10.5t-56.5 23t-52.5 23t-44 10.5q-26 0 -39 -18.5t-15 -47.5h-45z" />
    <glyph glyph-name="uni00A0" unicode="&#xa0;" horiz-adv-x="300" 
 />
    <glyph glyph-name="exclamdown" unicode="&#xa1;" horiz-adv-x="378" 
d="M173 305h38v-15q0 -18 2.5 -50t6.5 -75.5t10 -95.5t14 -109q2 -14 3 -25.5t1 -21.5q0 -35 -16 -55t-44 -20q-27 0 -44 20.5t-17 52.5v14t1.5 17.5t5 32.5t9.5 59q4 26 9.5 66t10 79.5t7.5 71t3 40.5v14zM195 471q23 0 39.5 -16.5t16.5 -40.5q0 -25 -16 -41t-41 -16
q-24 0 -40.5 16.5t-16.5 40.5q0 23 17 40t41 17z" />
    <glyph glyph-name="cent" unicode="&#xa2;" horiz-adv-x="695" 
d="M338 80q-47 7 -85 27.5t-65 51.5t-42 71t-15 87q0 46 15.5 87t43.5 72t65.5 50.5t82.5 23.5v74h50v-74q75 -5 119 -37t44 -80q0 -24 -16 -40.5t-41 -16.5q-22 0 -37 14t-15 34q0 28 24 45q-13 17 -33.5 26t-44.5 10v-371h6q35 0 67 25t49 66h55q-42 -130 -177 -145v-80
h-50v80zM338 501q-25 -7 -45.5 -24t-35 -41.5t-22.5 -54.5t-8 -64q0 -67 29 -114.5t82 -64.5v363z" />
    <glyph glyph-name="sterling" unicode="&#xa3;" horiz-adv-x="695" 
d="M99 0q2 63 38 101.5t94 38.5q8 0 18.5 -0.5t21.5 -1.5q17 14 27.5 33t10.5 39t-14 35.5t-50 35.5h-160v48h93q-38 35 -53 61t-15 58q0 42 23 80.5t62 61.5q26 17 62 25.5t76 8.5q18 0 34 -1.5t34.5 -5.5t41.5 -11t54 -17q18 -6 30 -6q21 0 24 27h45v-204h-45
q-5 40 -15.5 63.5t-32.5 44.5q-28 27 -66 41.5t-81 14.5q-32 0 -59 -7t-47 -19.5t-31 -29.5t-11 -38q0 -29 18.5 -51t68.5 -51q23 -13 38 -23.5t28 -21.5h136v-48h-109q5 -10 6 -16.5t1 -14.5q0 -29 -19.5 -57.5t-62.5 -64.5q14 -2 25.5 -5.5t21.5 -7.5l62 -24
q39 -14 70 -14q60 0 75 77h44q0 -36 -11.5 -67t-30.5 -54.5t-44.5 -37t-53.5 -13.5q-14 0 -23.5 0.5t-23.5 4.5t-38.5 12.5t-67.5 24.5q-71 27 -121 27q-26 0 -38 -11t-15 -40h-45z" />
    <glyph glyph-name="currency" unicode="&#xa4;" horiz-adv-x="435" 
d="M218 527q28 0 56 -11.5t46 -31.5l65 72l34 -35l-72 -70q14 -24 21.5 -55.5t7.5 -63.5q0 -35 -7.5 -66.5t-21.5 -54.5l70 -71l-34 -35l-64 72q-19 -21 -48 -32t-55 -11q-27 0 -55.5 11t-45.5 31l-63 -71l-34 35l69 70q-14 23 -22.5 55t-8.5 64q0 34 8.5 65.5t23.5 56.5
l-71 69l35 36l63 -72q18 20 46.5 31.5t56.5 11.5zM217 481q-50 0 -80 -41.5t-30 -110.5q0 -37 9.5 -65t25 -47t35 -28.5t39.5 -9.5q22 0 42 9.5t35 28.5t24 47.5t9 66.5q0 31 -7.5 58.5t-21.5 48t-34.5 32t-45.5 11.5z" />
    <glyph glyph-name="yen" unicode="&#xa5;" horiz-adv-x="695" 
d="M187 49h18q68 0 89 33q6 9 7.5 17t2.5 29h-104v56h104v50h-104v55h89l-141 218q-14 21 -25.5 34t-25 20.5t-30 10.5t-39.5 3h-18v49h323v-49h-27q-68 0 -68 -39q0 -6 0.5 -10t2.5 -9t7 -12.5t14 -21.5l103 -170l113 170q13 18 17 28.5t4 21.5q0 23 -18 32.5t-60 9.5h-15
v49h280v-49h-14q-41 0 -74 -22.5t-66 -71.5l-128 -192h91v-55h-106v-50h106v-56h-106q1 -20 2.5 -28.5t7.5 -17.5q21 -33 89 -33h19v-49h-320v49z" />
    <glyph glyph-name="brokenbar" unicode="&#xa6;" 
d="M206 667h89v-337h-89v337zM206 153h89v-320h-89v320z" />
    <glyph glyph-name="section" unicode="&#xa7;" horiz-adv-x="605" 
d="M191 129q-33 17 -55 31t-35 28.5t-18 31t-5 37.5q0 92 108 148q-56 29 -77.5 57.5t-21.5 70.5q0 33 15.5 61.5t42.5 48.5t64.5 31.5t81.5 11.5q43 0 79.5 -8t63.5 -22.5t42 -34.5t15 -43q0 -26 -16 -43t-41 -17q-23 0 -40 15t-17 36q0 18 13.5 31t31.5 11h4
q-14 16 -46.5 25.5t-75.5 9.5q-62 0 -99.5 -22t-37.5 -57q0 -44 83 -85l143 -72q39 -20 64.5 -35t39.5 -30t19.5 -31t5.5 -37t-5.5 -38.5t-18.5 -35t-34.5 -36t-54.5 -41.5q56 -31 79 -60.5t23 -71.5q0 -34 -17.5 -63.5t-47.5 -51t-71.5 -33.5t-89.5 -12q-45 0 -85 12
t-70.5 32.5t-48.5 47.5t-18 57q0 32 18.5 52t47.5 20q24 0 40.5 -15.5t16.5 -37.5q0 -20 -14.5 -33.5t-37.5 -13.5h-7t-9 2q14 -34 57.5 -54.5t100.5 -20.5q30 0 55 6.5t43.5 18t29 27.5t10.5 35q0 28 -19.5 48t-70.5 46zM367 151q23 15 38.5 26.5t24.5 22t13 20.5t4 21
q0 24 -17 42.5t-56 36.5l-145 68q-45 -26 -63 -46.5t-18 -43.5q0 -12 4 -21.5t13.5 -18.5t25.5 -18.5t41 -21.5z" />
    <glyph glyph-name="dieresis" unicode="&#xa8;" 
d="M366 662q24 0 40.5 -16.5t16.5 -40.5q0 -23 -17 -40t-41 -17q-23 0 -39.5 16.5t-16.5 40.5q0 25 16 41t41 16zM134 662q24 0 40.5 -16.5t16.5 -40.5q0 -23 -17 -40t-41 -17q-23 0 -39.5 16.5t-16.5 40.5q0 25 16 41t41 16z" />
    <glyph glyph-name="copyright" unicode="&#xa9;" horiz-adv-x="781" 
d="M395 679q70 0 131.5 -27.5t108 -74.5t73.5 -110t27 -134t-27 -134t-73.5 -110t-109.5 -74t-134 -27t-134 27t-110 74t-74 110t-27 134q0 72 27 135.5t74.5 110t111 73.5t136.5 27zM395 637q-64 0 -119 -23.5t-96 -64.5t-64.5 -96.5t-23.5 -119.5q0 -63 23.5 -118
t64.5 -96t95 -65t116 -24q61 0 115.5 24t95 65t64 96t23.5 118q0 62 -23.5 117.5t-63.5 97t-93.5 65.5t-113.5 24zM586 262q-18 -64 -72.5 -102t-127.5 -38q-48 0 -88 16t-69.5 44t-45.5 67t-16 86q0 46 16 84.5t44.5 66.5t68 43.5t86.5 15.5q13 0 25 -1t25 -4t29 -8t39 -13
q17 -5 25 -5q23 0 26 23h29v-148h-27q-5 26 -10.5 41.5t-17.5 29.5q-20 24 -54 38t-72 14q-81 0 -126 -60q-20 -26 -30.5 -56t-10.5 -60q0 -36 13 -67.5t35.5 -55t52 -37.5t63.5 -14q30 0 60.5 12t53.5 33q13 11 20.5 23t17.5 32h38z" />
    <glyph glyph-name="ordfeminine" unicode="&#xaa;" horiz-adv-x="396" 
d="M349 382h35v-47q0 -36 -19 -56.5t-53 -20.5q-56 0 -65 58q-18 -26 -50.5 -42t-69.5 -16q-43 0 -70 21.5t-27 56.5q0 45 48 68q10 5 17 8t17.5 6t28.5 8t51 13q33 7 44 16q9 6 9 19q0 18 -20 31t-49 13q-37 0 -56 -18q12 -9 12 -22q0 -14 -11.5 -24.5t-28.5 -10.5t-29 12
t-12 29q0 30 35 48.5t92 18.5q51 0 86 -19q23 -13 32.5 -35t9.5 -60v-93q0 -26 4 -34.5t16 -8.5q13 0 18 11t5 40v30zM246 423q-6 -5 -10.5 -8t-11.5 -5.5t-18 -5.5t-30 -9q-41 -11 -58.5 -24.5t-17.5 -32.5q0 -17 12 -27.5t32 -10.5q19 0 37 7t32 19t23 27.5t9 32.5z" />
    <glyph glyph-name="guillemotleft" unicode="&#xab;" horiz-adv-x="459" 
d="M209 234l118 116h76l-120 -116l120 -117h-76zM57 234l118 116h75l-119 -116l119 -117h-75z" />
    <glyph glyph-name="logicalnot" unicode="&#xac;" 
d="M403 344h-354v45h402v-209h-48v164z" />
    <glyph glyph-name="uni00AD" unicode="&#xad;" horiz-adv-x="246" 
d="M0 267h246v-67h-246v67z" />
    <glyph glyph-name="registered" unicode="&#xae;" horiz-adv-x="413" 
d="M117 421h5q16 0 22.5 6t6.5 21v110q0 15 -6.5 20.5t-22.5 5.5h-5v15h108q58 0 58 -47q0 -37 -40 -48q15 -2 21 -13t6 -37q1 -20 3 -27.5t9 -7.5q8 0 10.5 8.5t3.5 29.5h13q0 -17 -1.5 -24.5t-4.5 -15.5q-10 -16 -26 -16q-18 0 -26 16q-3 8 -3.5 15.5t-1.5 28.5
q0 37 -30 37h-42v-50q0 -15 6 -21t22 -6h5v-15h-90v15zM216 513q20 0 31.5 9.5t11.5 25.5q0 9 -4.5 17t-10.5 13q-6 3 -12.5 4.5t-17.5 1.5h-40v-71h42zM215 671q34 0 63.5 -13.5t52 -36t35.5 -53t13 -64.5t-13 -64.5t-35.5 -53t-53 -35.5t-64.5 -13q-35 0 -65 13t-53 35.5
t-36 53t-13 64.5q0 35 13 65.5t36 53t54 35.5t66 13zM215 651q-31 0 -57.5 -11.5t-46 -31.5t-31 -46.5t-11.5 -57.5q0 -30 11.5 -56.5t31 -46.5t45.5 -31.5t56 -11.5t56 11.5t45.5 31.5t30.5 46.5t11 56.5t-11 56.5t-30.5 47t-45 32t-54.5 11.5z" />
    <glyph glyph-name="macron" unicode="&#xaf;" 
d="M79 639h343v-68h-343v68z" />
    <glyph glyph-name="degree" unicode="&#xb0;" 
d="M250 665q30 0 56 -11.5t45.5 -31t30.5 -46t11 -56.5q0 -29 -11.5 -55t-31 -45.5t-45.5 -31t-55 -11.5q-30 0 -56.5 11t-46 30.5t-30.5 46t-11 56.5t11 56t30.5 45.5t46 31t56.5 11.5zM248 625q-21 0 -39.5 -8t-32.5 -22.5t-22 -33.5t-8 -40t8 -40t22.5 -33.5t33.5 -22.5
t40 -8t39.5 8t32.5 22t22.5 32.5t8.5 39.5q0 45 -30 75.5t-75 30.5z" />
    <glyph glyph-name="plusminus" unicode="&#xb1;" 
d="M226 320h-178v45h178v198h48v-198h178v-45h-178v-206h-48v206zM48 45h404v-45h-404v45z" />
    <glyph glyph-name="uni00B2" unicode="&#xb2;" horiz-adv-x="449" 
d="M68 241q3 32 10 54.5t22 39.5t40 32t64 32q29 12 48.5 23t31.5 22.5t17 24.5t5 29q0 34 -25.5 55.5t-66.5 21.5q-35 0 -58.5 -14.5t-27.5 -39.5q46 0 46 -38q0 -18 -12.5 -30t-31.5 -12q-25 0 -40.5 17.5t-15.5 46.5q0 25 11.5 45.5t32 35.5t49 23.5t62.5 8.5
q68 0 110.5 -33.5t42.5 -87.5q0 -65 -59 -100q-12 -8 -32.5 -16t-59.5 -22q-29 -10 -46 -16.5t-27 -12.5t-16 -13t-13 -19h145q32 0 45 10t13 35v10h39v-112h-303z" />
    <glyph glyph-name="uni00B3" unicode="&#xb3;" horiz-adv-x="449" 
d="M158 452h53q98 0 98 61q0 29 -26.5 47.5t-67.5 18.5q-24 0 -43.5 -6t-39.5 -20q24 -13 24 -35q0 -17 -12 -28.5t-29 -11.5q-19 0 -31.5 12.5t-12.5 30.5q0 20 12 38t33 31t49 20.5t60 7.5q34 0 63.5 -8t50.5 -21.5t33 -33t12 -41.5q0 -31 -18 -50t-58 -30q86 -28 86 -96
q0 -23 -13 -42.5t-35.5 -34t-54 -22.5t-67.5 -8q-37 0 -68 7t-53.5 20t-35 30.5t-12.5 38.5q0 20 12.5 32.5t32.5 12.5t32 -11.5t12 -29.5q0 -25 -23 -36q22 -14 39 -19t43 -5q52 0 81.5 20.5t29.5 55.5q0 18 -8.5 32.5t-23.5 22.5q-14 7 -32.5 9.5t-50.5 2.5h-41v38z" />
    <glyph glyph-name="acute" unicode="&#xb4;" 
d="M288 672h115l-115 -134h-78z" />
    <glyph glyph-name="mu" unicode="&#xb5;" horiz-adv-x="539" 
d="M21 -162q22 0 35.5 2t21.5 7t11 13.5t3 22.5v548q0 27 -14 35t-57 9v28l150 5v-397q0 -44 21 -65t56 -21q25 0 46.5 13t36.5 34.5t23.5 51t8.5 62.5v245q0 27 -13.5 35t-54.5 9v28l148 5v-435q0 -14 3 -22.5t11 -13.5t21.5 -7t35.5 -2v-27l-149 -5v74h-2
q-22 -34 -50.5 -56t-78.5 -23q-35 0 -63 9v-189h-150v27z" />
    <glyph glyph-name="paragraph" unicode="&#xb6;" horiz-adv-x="563" 
d="M231 314h-16q-40 0 -73.5 13t-58 36t-38 55t-13.5 71q0 51 23 91.5t65 62.5q46 24 130 24h239v-38h-58v-742h-47v742h-106v-742h-47v427z" />
    <glyph glyph-name="periodcentered" unicode="&#xb7;" horiz-adv-x="695" 
d="M347 290q24 0 40.5 -16.5t16.5 -40.5q0 -23 -17 -40t-41 -17q-23 0 -39.5 16.5t-16.5 40.5q0 25 16 41t41 16z" />
    <glyph glyph-name="cedilla" unicode="&#xb8;" 
d="M204 -127q7 -30 40 -30q17 0 26.5 8.5t9.5 22.5q0 17 -12 27.5t-32 10.5h-7.5t-8.5 -1l12 89h41l-8 -61q39 -4 57 -18.5t18 -42.5q0 -32 -25.5 -52t-67.5 -20q-74 0 -87 67h44z" />
    <glyph glyph-name="uni00B9" unicode="&#xb9;" horiz-adv-x="449" 
d="M118 278h20q20 0 31.5 1.5t17 8.5t7 20t1.5 37v147q0 30 -11.5 39.5t-46.5 9.5h-10v40h11q36 0 55.5 8.5t32.5 28.5h34v-272q0 -32 1.5 -42t7.5 -15q11 -11 44 -11h17v-38h-212v38z" />
    <glyph glyph-name="ordmasculine" unicode="&#xba;" horiz-adv-x="381" 
d="M192 551q34 0 63.5 -11t51 -31t33.5 -47.5t12 -59.5t-12 -58t-33.5 -45.5t-51 -30t-65.5 -10.5t-65.5 10.5t-51 30t-33.5 46t-12 58.5q0 33 12 60t34 46.5t52 30.5t66 11zM191 516q-43 0 -68 -30.5t-25 -83.5q0 -51 25 -80t67 -29t67 29t25 80q0 52 -24.5 83t-66.5 31z
" />
    <glyph glyph-name="guillemotright" unicode="&#xbb;" horiz-adv-x="459" 
d="M177 234l-120 116h75l118 -116l-118 -117h-75zM329 234l-120 116h76l118 -116l-118 -117h-76z" />
    <glyph glyph-name="onequarter" unicode="&#xbc;" horiz-adv-x="1013" 
d="M118 278h20q20 0 31.5 1.5t17 8.5t7 20t1.5 37v147q0 30 -11.5 39.5t-46.5 9.5h-10v40h11q36 0 55.5 8.5t32.5 28.5h34v-272q0 -32 1.5 -42t7.5 -15q11 -11 44 -11h17v-38h-212v38zM252 5l468 630l39 -31l-466 -630zM751 38h12q19 0 31 2.5t18.5 9t8.5 19.5t2 34v7h-206
v39l237 229h33v-230h72v-38h-72v-7q0 -40 10.5 -52.5t42.5 -12.5h12v-38h-201v38zM823 148v148l-150 -148h150z" />
    <glyph glyph-name="onehalf" unicode="&#xbd;" horiz-adv-x="1013" 
d="M118 278h20q20 0 31.5 1.5t17 8.5t7 20t1.5 37v147q0 30 -11.5 39.5t-46.5 9.5h-10v40h11q36 0 55.5 8.5t32.5 28.5h34v-272q0 -32 1.5 -42t7.5 -15q11 -11 44 -11h17v-38h-212v38zM252 5l468 630l39 -31l-466 -630zM631 0q4 33 11 55.5t21.5 40t39.5 32t64 31.5
q58 24 80 45.5t22 53.5q0 34 -25.5 55.5t-66.5 21.5q-35 0 -58.5 -14.5t-27.5 -39.5q46 0 46 -38q0 -18 -12.5 -30t-31.5 -12q-25 0 -40.5 17.5t-15.5 46.5q0 25 11.5 45.5t32 35.5t49 23.5t62.5 8.5q68 0 110.5 -33.5t42.5 -87.5q0 -65 -59 -100q-12 -8 -31.5 -16
t-60.5 -22q-29 -10 -46 -16.5t-27 -13t-16 -13.5t-13 -19h145q32 0 45 10t13 36v10h39v-113h-303z" />
    <glyph glyph-name="threequarters" unicode="&#xbe;" horiz-adv-x="1013" 
d="M158 452h53q98 0 98 61q0 29 -26.5 47.5t-67.5 18.5q-24 0 -43.5 -6t-39.5 -20q24 -13 24 -35q0 -17 -12 -28.5t-29 -11.5q-19 0 -31.5 12.5t-12.5 30.5q0 20 12 38t33 31t49 20.5t60 7.5q34 0 63.5 -8t50.5 -21.5t33 -33t12 -41.5q0 -31 -18 -50t-58 -30q86 -28 86 -96
q0 -23 -13 -42.5t-35.5 -34t-54 -22.5t-67.5 -8q-37 0 -68 7t-53.5 20t-35 30.5t-12.5 38.5q0 20 12.5 32.5t32.5 12.5t32 -11.5t12 -29.5q0 -25 -23 -36q22 -14 39 -19t43 -5q52 0 81.5 20.5t29.5 55.5q0 18 -8.5 32.5t-23.5 22.5q-14 7 -32.5 9.5t-50.5 2.5h-41v38zM253 5
l467 630l39 -31l-466 -630zM752 38h12q19 0 31 2.5t18.5 9t8.5 19.5t2 34v7h-206v39l237 229h33v-230h71v-38h-71v-7q0 -40 10.5 -52.5t42.5 -12.5h12v-38h-201v38zM824 148v148l-150 -148h150z" />
    <glyph glyph-name="questiondown" unicode="&#xbf;" horiz-adv-x="644" 
d="M371 306q0 -27 -3.5 -48.5t-13 -41.5t-26 -39.5t-40.5 -41.5q-22 -20 -37 -37t-24.5 -32t-13.5 -30t-4 -31q0 -51 38 -82t99 -31q87 0 123 51q-14 5 -23 19t-9 34q0 26 15.5 42.5t39.5 16.5q28 0 46 -21.5t18 -54.5q0 -30 -17.5 -55.5t-47.5 -45t-70.5 -30.5t-87.5 -11
q-53 0 -97.5 12.5t-77.5 35t-51.5 53t-18.5 66.5q0 45 25.5 81t82.5 71q39 23 62 39.5t36 32.5t17.5 34t6.5 44h53zM341 471q23 0 39.5 -16.5t16.5 -40.5q0 -25 -16 -41t-41 -16q-24 0 -40.5 16.5t-16.5 40.5q0 23 17 40t41 17z" />
    <glyph glyph-name="Agrave" unicode="&#xc0;" horiz-adv-x="894" 
d="M-19 52h29q34 0 58 11.5t43 35.5q7 9 17 23t20 29.5t19 30.5t15 26l246 459h38l267 -494l20 -35t14.5 -23.5t13 -17t15.5 -15.5q19 -17 38 -23.5t48 -6.5h31v-52h-386v52h33q90 0 90 49q0 19 -13 45l-48 92h-330l-45 -87q-13 -25 -15 -43q-1 -8 4.5 -19t13.5 -18
q20 -19 73 -19h34v-52h-343v52zM563 286l-139 271l-139 -271h278zM261 861h133l107 -114h-94z" />
    <glyph glyph-name="Aacute" unicode="&#xc1;" horiz-adv-x="894" 
d="M-19 52h29q34 0 58 11.5t43 35.5q7 9 17 23t20 29.5t19 30.5t15 26l246 459h38l267 -494l20 -35t14.5 -23.5t13 -17t15.5 -15.5q19 -17 38 -23.5t48 -6.5h31v-52h-386v52h33q90 0 90 49q0 19 -13 45l-48 92h-330l-45 -87q-13 -25 -15 -43q-1 -8 4.5 -19t13.5 -18
q20 -19 73 -19h34v-52h-343v52zM563 286l-139 271l-139 -271h278zM500 861h134l-146 -114h-94z" />
    <glyph glyph-name="Acircumflex" unicode="&#xc2;" horiz-adv-x="894" 
d="M-19 52h29q34 0 58 11.5t43 35.5q7 9 17 23t20 29.5t19 30.5t15 26l246 459h38l267 -494l20 -35t14.5 -23.5t13 -17t15.5 -15.5q19 -17 38 -23.5t48 -6.5h31v-52h-386v52h33q90 0 90 49q0 19 -13 45l-48 92h-330l-45 -87q-13 -25 -15 -43q-1 -8 4.5 -19t13.5 -18
q20 -19 73 -19h34v-52h-343v52zM563 286l-139 271l-139 -271h278zM250 782l198 98l197 -98l-56 -54l-141 68l-142 -68z" />
    <glyph glyph-name="Atilde" unicode="&#xc3;" horiz-adv-x="894" 
d="M-19 52h29q34 0 58 11.5t43 35.5q7 9 17 23t20 29.5t19 30.5t15 26l246 459h38l267 -494l20 -35t14.5 -23.5t13 -17t15.5 -15.5q19 -17 38 -23.5t48 -6.5h31v-52h-386v52h33q90 0 90 49q0 19 -13 45l-48 92h-330l-45 -87q-13 -25 -15 -43q-1 -8 4.5 -19t13.5 -18
q20 -19 73 -19h34v-52h-343v52zM563 286l-139 271l-139 -271h278zM224 756q29 52 64 76.5t80 24.5q24 0 50 -6l69 -16q52 -12 77 -12q47 0 70 38l36 -9q-20 -39 -36 -57t-40 -30q-34 -17 -69 -17q-12 0 -28.5 2t-29.5 5l-78 18q-26 6 -37.5 8t-22.5 2q-23 0 -37 -8t-28 -27z
" />
    <glyph glyph-name="Adieresis" unicode="&#xc4;" horiz-adv-x="894" 
d="M-19 52h29q34 0 58 11.5t43 35.5q7 9 17 23t20 29.5t19 30.5t15 26l246 459h38l267 -494l20 -35t14.5 -23.5t13 -17t15.5 -15.5q19 -17 38 -23.5t48 -6.5h31v-52h-386v52h33q90 0 90 49q0 19 -13 45l-48 92h-330l-45 -87q-13 -25 -15 -43q-1 -8 4.5 -19t13.5 -18
q20 -19 73 -19h34v-52h-343v52zM563 286l-139 271l-139 -271h278zM601 861q24 0 40.5 -16.5t16.5 -40.5q0 -23 -17 -40t-41 -17q-23 0 -39.5 16.5t-16.5 40.5q0 25 16 41t41 16zM293 862q24 0 41 -16.5t17 -40.5t-17 -41t-41 -17t-40.5 16.5t-16.5 41.5t16 41t41 16z" />
    <glyph glyph-name="Aring" unicode="&#xc5;" horiz-adv-x="894" 
d="M-19 52h29q34 0 58 11.5t43 35.5q7 9 17 23t20 29.5t19 30.5t15 26l246 459h38l267 -494l20 -35t14.5 -23.5t13 -17t15.5 -15.5q19 -17 38 -23.5t48 -6.5h31v-52h-386v52h33q90 0 90 49q0 19 -13 45l-48 92h-330l-45 -87q-13 -25 -15 -43q-1 -8 4.5 -19t13.5 -18
q20 -19 73 -19h34v-52h-343v52zM563 286l-139 271l-139 -271h278zM447 917q22 0 42 -8.5t34 -23t22.5 -34.5t8.5 -43q0 -21 -8.5 -40t-23 -33.5t-33.5 -22.5t-41 -8q-23 0 -42.5 8.5t-34 23t-23 34t-8.5 41.5t8.5 41t23 33.5t34 23t41.5 8.5zM447 856q-19 0 -32.5 -13.5
t-13.5 -32.5t13.5 -32.5t32.5 -13.5t32 13t13 32q0 20 -13 33.5t-32 13.5z" />
    <glyph glyph-name="AE" unicode="&#xc6;" horiz-adv-x="1224" 
d="M6 52h25q58 0 93 21q22 13 48.5 39t46.5 53l254 348q15 20 23.5 38.5t8.5 31.5q0 32 -80 32h-33v52h764v-229h-48q-7 55 -18 89.5t-31.5 54t-52.5 26.5t-81 7h-202v-244h80q30 0 54 8t38 22q14 16 20.5 40t9.5 72h47v-348h-47q-2 47 -8 77t-19 47t-35.5 23.5t-57.5 6.5
h-82v-267h229q39 0 67 11t46.5 35t29 62.5t13.5 93.5h48v-254h-672v52h21q73 0 100 29q10 11 13.5 24t3.5 40v98h-281l-56 -78q-28 -40 -28 -68q0 -25 19.5 -35t70.5 -10h31v-52h-372v52zM622 291v333l-244 -333h244z" />
    <glyph glyph-name="Ccedilla" unicode="&#xc7;" horiz-adv-x="764" 
d="M360 -131q10 -22 33 -22q14 0 23.5 8t9.5 20q0 14 -10 23.5t-26 9.5q-9 0 -20 -4l11 76q-39 5 -70 11.5t-56.5 15.5t-47.5 22t-44 30q-60 49 -93.5 121t-33.5 155q0 76 27 140.5t74.5 111t113 73t143.5 26.5q25 0 44.5 -1.5t40.5 -7t46.5 -14.5t62.5 -24q21 -9 47 -9
q17 0 25 8.5t13 30.5h47v-244h-47q-2 20 -5.5 35.5t-8.5 28.5t-12 24.5t-17 24.5q-34 44 -87 67.5t-116 23.5q-66 0 -120.5 -25t-93.5 -75q-32 -42 -49.5 -91.5t-17.5 -103.5q0 -61 21 -113t58 -90t88 -59.5t111 -21.5q58 0 103.5 20t88.5 65q20 20 31 37.5t21 40.5h63
q-34 -102 -114 -163t-192 -71l-6 -37q73 -12 73 -66q0 -31 -24.5 -50.5t-62.5 -19.5q-74 0 -92 63h47z" />
    <glyph glyph-name="Egrave" unicode="&#xc8;" horiz-adv-x="775" 
d="M34 52h21q73 0 100 29q10 11 13.5 24t3.5 40v378q0 29 -5 43.5t-19 25.5q-29 23 -93 23h-21v52h668v-232h-47q-4 52 -13.5 86.5t-28.5 55.5t-49 29.5t-74 8.5h-221v-246h105q58 0 81 45q8 18 11 38t4 59h48v-345h-48q-1 44 -6 73.5t-16 47t-29 25t-45 7.5h-105v-267h219
q23 0 39 1t28 3.5t20.5 6.5t16.5 11q14 11 24.5 26t17.5 36t12 50t9 69h47v-255h-668v52zM201 861h133l107 -114h-94z" />
    <glyph glyph-name="Eacute" unicode="&#xc9;" horiz-adv-x="775" 
d="M34 52h21q73 0 100 29q10 11 13.5 24t3.5 40v378q0 29 -5 43.5t-19 25.5q-29 23 -93 23h-21v52h668v-232h-47q-4 52 -13.5 86.5t-28.5 55.5t-49 29.5t-74 8.5h-221v-246h105q58 0 81 45q8 18 11 38t4 59h48v-345h-48q-1 44 -6 73.5t-16 47t-29 25t-45 7.5h-105v-267h219
q23 0 39 1t28 3.5t20.5 6.5t16.5 11q14 11 24.5 26t17.5 36t12 50t9 69h47v-255h-668v52zM440 861h134l-146 -114h-94z" />
    <glyph glyph-name="Ecircumflex" unicode="&#xca;" horiz-adv-x="775" 
d="M34 52h21q73 0 100 29q10 11 13.5 24t3.5 40v378q0 29 -5 43.5t-19 25.5q-29 23 -93 23h-21v52h668v-232h-47q-4 52 -13.5 86.5t-28.5 55.5t-49 29.5t-74 8.5h-221v-246h105q58 0 81 45q8 18 11 38t4 59h48v-345h-48q-1 44 -6 73.5t-16 47t-29 25t-45 7.5h-105v-267h219
q23 0 39 1t28 3.5t20.5 6.5t16.5 11q14 11 24.5 26t17.5 36t12 50t9 69h47v-255h-668v52zM190 782l198 98l197 -98l-56 -54l-141 68l-142 -68z" />
    <glyph glyph-name="Edieresis" unicode="&#xcb;" horiz-adv-x="775" 
d="M34 52h21q73 0 100 29q10 11 13.5 24t3.5 40v378q0 29 -5 43.5t-19 25.5q-29 23 -93 23h-21v52h668v-232h-47q-4 52 -13.5 86.5t-28.5 55.5t-49 29.5t-74 8.5h-221v-246h105q58 0 81 45q8 18 11 38t4 59h48v-345h-48q-1 44 -6 73.5t-16 47t-29 25t-45 7.5h-105v-267h219
q23 0 39 1t28 3.5t20.5 6.5t16.5 11q14 11 24.5 26t17.5 36t12 50t9 69h47v-255h-668v52zM541 861q24 0 40.5 -16.5t16.5 -40.5q0 -23 -17 -40t-41 -17q-23 0 -39.5 16.5t-16.5 40.5q0 25 16 41t41 16zM233 862q24 0 41 -16.5t17 -40.5t-17 -41t-41 -17t-40.5 16.5
t-16.5 41.5t16 41t41 16z" />
    <glyph glyph-name="Igrave" unicode="&#xcc;" horiz-adv-x="459" 
d="M42 52h21q73 0 100 29q10 11 13.5 24t3.5 40v378q0 29 -5 43.5t-19 25.5q-29 23 -93 23h-21v52h376v-52h-21q-73 0 -100 -29q-10 -11 -13.5 -24t-3.5 -39v-378q0 -30 5 -44.5t19 -25.5q29 -23 93 -23h21v-52h-376v52zM45 861h133l107 -114h-94z" />
    <glyph glyph-name="Iacute" unicode="&#xcd;" horiz-adv-x="459" 
d="M42 52h21q73 0 100 29q10 11 13.5 24t3.5 40v378q0 29 -5 43.5t-19 25.5q-29 23 -93 23h-21v52h376v-52h-21q-73 0 -100 -29q-10 -11 -13.5 -24t-3.5 -39v-378q0 -30 5 -44.5t19 -25.5q29 -23 93 -23h21v-52h-376v52zM284 861h134l-146 -114h-94z" />
    <glyph glyph-name="Icircumflex" unicode="&#xce;" horiz-adv-x="459" 
d="M42 52h21q73 0 100 29q10 11 13.5 24t3.5 40v378q0 29 -5 43.5t-19 25.5q-29 23 -93 23h-21v52h376v-52h-21q-73 0 -100 -29q-10 -11 -13.5 -24t-3.5 -39v-378q0 -30 5 -44.5t19 -25.5q29 -23 93 -23h21v-52h-376v52zM34 782l198 98l197 -98l-56 -54l-141 68l-142 -68z
" />
    <glyph glyph-name="Idieresis" unicode="&#xcf;" horiz-adv-x="459" 
d="M351 861q24 0 40.5 -16.5t16.5 -40.5q0 -23 -17 -40t-41 -17q-23 0 -39.5 16.5t-16.5 40.5q0 25 16 41t41 16zM110 862q24 0 41 -16.5t17 -40.5t-17 -41t-41 -17t-40.5 16.5t-16.5 41.5t16 41t41 16zM42 52h21q73 0 100 29q10 11 13.5 24t3.5 40v378q0 29 -5 43.5
t-19 25.5q-29 23 -93 23h-21v52h376v-52h-21q-73 0 -100 -29q-10 -11 -13.5 -24t-3.5 -39v-378q0 -30 5 -44.5t19 -25.5q29 -23 93 -23h21v-52h-376v52z" />
    <glyph glyph-name="Eth" unicode="&#xd0;" horiz-adv-x="847" 
d="M30 52h21q73 0 100 29q10 11 13.5 24t3.5 40v175h-124v50h124v153q0 29 -5 43.5t-19 25.5q-29 23 -93 23h-21v52h414q46 0 85 -6t72 -18.5t62 -32t55 -46.5q45 -48 69 -106.5t24 -124.5q0 -139 -101 -238q-98 -95 -239 -95h-441v52zM374 52q79 0 134.5 16.5t98.5 52.5
q45 37 68 91t23 120q0 60 -19.5 111t-57.5 89q-44 44 -103 63.5t-147 19.5h-105v-245h172v-50h-172v-268h108z" />
    <glyph glyph-name="Ntilde" unicode="&#xd1;" horiz-adv-x="971" 
d="M224 562v-417q0 -30 5 -44.5t19 -25.5q29 -23 93 -23h21v-52h-331v52h21q73 0 100 29q10 11 13.5 24t3.5 40v378q0 29 -5 43.5t-19 25.5q-29 23 -93 23h-21v52h226l491 -511v367q0 29 -5 43.5t-19 25.5q-29 23 -93 23h-21v52h330v-52h-21q-73 0 -100 -29
q-10 -11 -13.5 -24t-3.5 -39v-532h-33zM262 756q29 52 64 76.5t80 24.5q24 0 50 -6l69 -16q52 -12 77 -12q47 0 70 38l36 -9q-20 -39 -36 -57t-40 -30q-34 -17 -69 -17q-12 0 -28.5 2t-29.5 5l-78 18q-26 6 -37.5 8t-22.5 2q-23 0 -37 -8t-28 -27z" />
    <glyph glyph-name="Ograve" unicode="&#xd2;" horiz-adv-x="870" 
d="M447 686q81 0 151.5 -27t122 -74t81.5 -111t30 -138q0 -76 -30 -141t-82.5 -112.5t-125 -74.5t-156.5 -27q-78 0 -147 21.5t-120 61.5q-61 48 -96 120t-35 150q0 37 9 74.5t25 71.5t39 63.5t52 52.5q56 44 128.5 67t153.5 23zM440 629q-59 0 -110 -23t-89.5 -63.5
t-60.5 -94.5t-22 -116t22 -116t59.5 -94t88 -63.5t107.5 -23.5q58 0 109 23.5t89 64t60 95t22 116.5q0 54 -18 105.5t-52 90.5q-38 45 -93.5 72t-111.5 27zM249 861h133l107 -114h-94z" />
    <glyph glyph-name="Oacute" unicode="&#xd3;" horiz-adv-x="870" 
d="M447 686q81 0 151.5 -27t122 -74t81.5 -111t30 -138q0 -76 -30 -141t-82.5 -112.5t-125 -74.5t-156.5 -27q-78 0 -147 21.5t-120 61.5q-61 48 -96 120t-35 150q0 37 9 74.5t25 71.5t39 63.5t52 52.5q56 44 128.5 67t153.5 23zM440 629q-59 0 -110 -23t-89.5 -63.5
t-60.5 -94.5t-22 -116t22 -116t59.5 -94t88 -63.5t107.5 -23.5q58 0 109 23.5t89 64t60 95t22 116.5q0 54 -18 105.5t-52 90.5q-38 45 -93.5 72t-111.5 27zM488 861h134l-146 -114h-94z" />
    <glyph glyph-name="Ocircumflex" unicode="&#xd4;" horiz-adv-x="870" 
d="M447 686q81 0 151.5 -27t122 -74t81.5 -111t30 -138q0 -76 -30 -141t-82.5 -112.5t-125 -74.5t-156.5 -27q-78 0 -147 21.5t-120 61.5q-61 48 -96 120t-35 150q0 37 9 74.5t25 71.5t39 63.5t52 52.5q56 44 128.5 67t153.5 23zM440 629q-59 0 -110 -23t-89.5 -63.5
t-60.5 -94.5t-22 -116t22 -116t59.5 -94t88 -63.5t107.5 -23.5q58 0 109 23.5t89 64t60 95t22 116.5q0 54 -18 105.5t-52 90.5q-38 45 -93.5 72t-111.5 27zM238 782l198 98l197 -98l-56 -54l-141 68l-142 -68z" />
    <glyph glyph-name="Otilde" unicode="&#xd5;" horiz-adv-x="870" 
d="M447 686q81 0 151.5 -27t122 -74t81.5 -111t30 -138q0 -76 -30 -141t-82.5 -112.5t-125 -74.5t-156.5 -27q-78 0 -147 21.5t-120 61.5q-61 48 -96 120t-35 150q0 37 9 74.5t25 71.5t39 63.5t52 52.5q56 44 128.5 67t153.5 23zM440 629q-59 0 -110 -23t-89.5 -63.5
t-60.5 -94.5t-22 -116t22 -116t59.5 -94t88 -63.5t107.5 -23.5q58 0 109 23.5t89 64t60 95t22 116.5q0 54 -18 105.5t-52 90.5q-38 45 -93.5 72t-111.5 27zM212 756q29 52 64 76.5t80 24.5q24 0 50 -6l69 -16q52 -12 77 -12q47 0 70 38l36 -9q-20 -39 -36 -57t-40 -30
q-34 -17 -69 -17q-12 0 -28.5 2t-29.5 5l-78 18q-26 6 -37.5 8t-22.5 2q-23 0 -37 -8t-28 -27z" />
    <glyph glyph-name="Odieresis" unicode="&#xd6;" horiz-adv-x="870" 
d="M447 686q81 0 151.5 -27t122 -74t81.5 -111t30 -138q0 -76 -30 -141t-82.5 -112.5t-125 -74.5t-156.5 -27q-78 0 -147 21.5t-120 61.5q-61 48 -96 120t-35 150q0 37 9 74.5t25 71.5t39 63.5t52 52.5q56 44 128.5 67t153.5 23zM440 629q-59 0 -110 -23t-89.5 -63.5
t-60.5 -94.5t-22 -116t22 -116t59.5 -94t88 -63.5t107.5 -23.5q58 0 109 23.5t89 64t60 95t22 116.5q0 54 -18 105.5t-52 90.5q-38 45 -93.5 72t-111.5 27zM589 861q24 0 40.5 -16.5t16.5 -40.5q0 -23 -17 -40t-41 -17q-23 0 -39.5 16.5t-16.5 40.5q0 25 16 41t41 16z
M281 862q24 0 41 -16.5t17 -40.5t-17 -41t-41 -17t-40.5 16.5t-16.5 41.5t16 41t41 16z" />
    <glyph glyph-name="multiply" unicode="&#xd7;" 
d="M61 423l32 32l157 -158l160 161l34 -34l-160 -160l158 -159l-32 -32l-158 159l-163 -164l-34 33l163 164z" />
    <glyph glyph-name="Oslash" unicode="&#xd8;" horiz-adv-x="864" 
d="M38 9l96 87q-51 55 -74 112.5t-23 126.5q0 76 29.5 140t82 111t125 73.5t157.5 26.5q81 0 145.5 -19.5t118.5 -60.5l98 91l34 -37l-95 -88q22 -23 33.5 -38.5t23.5 -38.5q20 -39 30.5 -81.5t10.5 -83.5q0 -74 -30 -138t-83.5 -111t-126 -73.5t-156.5 -26.5
q-79 0 -142 19.5t-121 61.5l-99 -88zM630 549q-49 44 -93 62t-100 18q-66 0 -126 -29t-101 -81q-59 -76 -59 -189q0 -25 2.5 -46t8.5 -41.5t16 -41t25 -44.5zM233 118q55 -44 99 -62t97 -18q66 0 128.5 32t103.5 86q53 71 53 177q0 27 -3 49.5t-9 43.5t-16 41t-24 42z" />
    <glyph glyph-name="Ugrave" unicode="&#xd9;" horiz-adv-x="948" 
d="M725 523q0 29 -5 43.5t-19 25.5q-29 23 -93 23h-21v52h338v-52h-21q-73 0 -100 -29q-10 -11 -13.5 -24t-3.5 -39v-288q0 -126 -77 -190t-229 -64q-153 0 -236.5 68.5t-83.5 193.5v280q0 29 -5 43.5t-19 25.5q-29 23 -93 23h-21v52h377v-52h-21q-73 0 -100 -29
q-11 -11 -14 -23.5t-3 -39.5v-271q0 -100 62 -157t171 -57t169.5 51.5t60.5 145.5v288zM308 861h133l107 -114h-94z" />
    <glyph glyph-name="Uacute" unicode="&#xda;" horiz-adv-x="948" 
d="M725 523q0 29 -5 43.5t-19 25.5q-29 23 -93 23h-21v52h338v-52h-21q-73 0 -100 -29q-10 -11 -13.5 -24t-3.5 -39v-288q0 -126 -77 -190t-229 -64q-153 0 -236.5 68.5t-83.5 193.5v280q0 29 -5 43.5t-19 25.5q-29 23 -93 23h-21v52h377v-52h-21q-73 0 -100 -29
q-11 -11 -14 -23.5t-3 -39.5v-271q0 -100 62 -157t171 -57t169.5 51.5t60.5 145.5v288zM547 861h134l-146 -114h-94z" />
    <glyph glyph-name="Ucircumflex" unicode="&#xdb;" horiz-adv-x="948" 
d="M725 523q0 29 -5 43.5t-19 25.5q-29 23 -93 23h-21v52h338v-52h-21q-73 0 -100 -29q-10 -11 -13.5 -24t-3.5 -39v-288q0 -126 -77 -190t-229 -64q-153 0 -236.5 68.5t-83.5 193.5v280q0 29 -5 43.5t-19 25.5q-29 23 -93 23h-21v52h377v-52h-21q-73 0 -100 -29
q-11 -11 -14 -23.5t-3 -39.5v-271q0 -100 62 -157t171 -57t169.5 51.5t60.5 145.5v288zM297 782l198 98l197 -98l-56 -54l-141 68l-142 -68z" />
    <glyph glyph-name="Udieresis" unicode="&#xdc;" horiz-adv-x="948" 
d="M725 523q0 29 -5 43.5t-19 25.5q-29 23 -93 23h-21v52h338v-52h-21q-73 0 -100 -29q-10 -11 -13.5 -24t-3.5 -39v-288q0 -126 -77 -190t-229 -64q-153 0 -236.5 68.5t-83.5 193.5v280q0 29 -5 43.5t-19 25.5q-29 23 -93 23h-21v52h377v-52h-21q-73 0 -100 -29
q-11 -11 -14 -23.5t-3 -39.5v-271q0 -100 62 -157t171 -57t169.5 51.5t60.5 145.5v288zM648 861q24 0 40.5 -16.5t16.5 -40.5q0 -23 -17 -40t-41 -17q-23 0 -39.5 16.5t-16.5 40.5q0 25 16 41t41 16zM340 862q24 0 41 -16.5t17 -40.5t-17 -41t-41 -17t-40.5 16.5t-16.5 41.5
t16 41t41 16z" />
    <glyph glyph-name="Yacute" unicode="&#xdd;" horiz-adv-x="833" 
d="M227 52h21q73 0 100 29q10 11 13.5 24t3.5 40v141l-184 256q-16 22 -30 36t-29.5 22t-35 11t-46.5 3h-21v53h380v-53h-32q-79 0 -79 -41q0 -6 0.5 -10.5t3 -9.5t8 -14t16.5 -24l121 -180l133 181q14 20 19 30.5t5 23.5q0 23 -21 33.5t-70 10.5h-18v53h329v-53h-17
q-48 0 -87 -23.5t-78 -76.5l-167 -228v-141q0 -30 5 -44.5t19 -25.5q29 -23 93 -23h21v-52h-376v52zM469 861h134l-146 -114h-94z" />
    <glyph glyph-name="Thorn" unicode="&#xde;" horiz-adv-x="681" 
d="M35 52h21q73 0 100 29q10 11 13.5 24t3.5 40v378q0 29 -5 43.5t-19 25.5q-29 23 -93 23h-21v52h376v-53h-21q-80 0 -105 -36q-7 -9 -9 -17t-3 -28h142q69 0 112 -15t71 -48q40 -48 40 -109q0 -42 -19.5 -80t-54.5 -61q-49 -34 -152 -34h-139v-41q0 -30 5 -44.5t19 -25.5
q29 -23 93 -23h21v-52h-376v52zM386 238q68 0 106.5 32t38.5 87q0 59 -39 91.5t-109 32.5h-110v-243h113z" />
    <glyph glyph-name="germandbls" unicode="&#xdf;" horiz-adv-x="631" 
d="M31 48q29 0 47.5 4t29 15t14.5 30.5t4 50.5v182q0 44 -19 62t-65 18h-14v47h98q1 32 3.5 56t7.5 42.5t13 33.5t20 29q26 30 67.5 46.5t92.5 16.5q39 0 71.5 -10t56.5 -28t37 -42.5t13 -53.5q0 -43 -26 -68.5t-86 -39.5q29 -3 51 -8t39 -13t30.5 -19t26.5 -26
q25 -29 37.5 -68.5t12.5 -85.5q0 -51 -14 -94t-39 -73.5t-59.5 -48t-75.5 -17.5q-43 0 -75 21t-49 62q-8 21 -11.5 42.5t-3.5 59.5h42q2 -40 5.5 -60.5t12.5 -38.5q22 -41 63 -41q24 0 44 13.5t34 38t22 59t8 75.5q0 48 -13.5 88.5t-38.5 64.5q-22 22 -50 31.5t-78 11.5v47
q27 1 42 4t27 11q17 11 26 28.5t9 37.5q0 38 -28 63.5t-69 25.5q-57 0 -86 -37t-29 -107v-486h-178v48z" />
    <glyph glyph-name="agrave" unicode="&#xe0;" horiz-adv-x="611" 
d="M390 102q-29 -56 -80.5 -86t-116.5 -30q-69 0 -110.5 34.5t-41.5 91.5q0 35 19 63.5t54 46.5q16 9 27.5 14t28.5 10.5t46 13t81 20.5q50 13 71 28q20 14 20 38q0 16 -9.5 31t-25.5 25.5t-37.5 17t-45.5 6.5q-33 0 -57 -9t-42 -28q13 -9 17.5 -17t4.5 -19q0 -23 -17 -39
t-41 -16q-26 0 -43.5 18.5t-17.5 46.5q0 24 14.5 44t40.5 34.5t62.5 22t81.5 7.5q83 0 136 -32q34 -21 49 -57t15 -99v-157q0 -46 8 -62t31 -16q25 0 34.5 20t9.5 71v45h43v-74q0 -59 -29 -91.5t-80 -32.5q-45 0 -72.5 29t-27.5 74v13zM390 278q-8 -11 -15.5 -18t-20 -13.5
t-33 -13.5t-53.5 -16q-68 -20 -98 -44t-30 -58q0 -31 21.5 -50t55.5 -19q32 0 62.5 12.5t54 33.5t38.5 48t16 56zM129 672h116l77 -134h-77z" />
    <glyph glyph-name="aacute" unicode="&#xe1;" horiz-adv-x="611" 
d="M390 102q-29 -56 -80.5 -86t-116.5 -30q-69 0 -110.5 34.5t-41.5 91.5q0 35 19 63.5t54 46.5q16 9 27.5 14t28.5 10.5t46 13t81 20.5q50 13 71 28q20 14 20 38q0 16 -9.5 31t-25.5 25.5t-37.5 17t-45.5 6.5q-33 0 -57 -9t-42 -28q13 -9 17.5 -17t4.5 -19q0 -23 -17 -39
t-41 -16q-26 0 -43.5 18.5t-17.5 46.5q0 24 14.5 44t40.5 34.5t62.5 22t81.5 7.5q83 0 136 -32q34 -21 49 -57t15 -99v-157q0 -46 8 -62t31 -16q25 0 34.5 20t9.5 71v45h43v-74q0 -59 -29 -91.5t-80 -32.5q-45 0 -72.5 29t-27.5 74v13zM390 278q-8 -11 -15.5 -18t-20 -13.5
t-33 -13.5t-53.5 -16q-68 -20 -98 -44t-30 -58q0 -31 21.5 -50t55.5 -19q32 0 62.5 12.5t54 33.5t38.5 48t16 56zM310 672h115l-115 -134h-78z" />
    <glyph glyph-name="acircumflex" unicode="&#xe2;" horiz-adv-x="611" 
d="M390 102q-29 -56 -80.5 -86t-116.5 -30q-69 0 -110.5 34.5t-41.5 91.5q0 35 19 63.5t54 46.5q16 9 27.5 14t28.5 10.5t46 13t81 20.5q50 13 71 28q20 14 20 38q0 16 -9.5 31t-25.5 25.5t-37.5 17t-45.5 6.5q-33 0 -57 -9t-42 -28q13 -9 17.5 -17t4.5 -19q0 -23 -17 -39
t-41 -16q-26 0 -43.5 18.5t-17.5 46.5q0 24 14.5 44t40.5 34.5t62.5 22t81.5 7.5q83 0 136 -32q34 -21 49 -57t15 -99v-157q0 -46 8 -62t31 -16q25 0 34.5 20t9.5 71v45h43v-74q0 -59 -29 -91.5t-80 -32.5q-45 0 -72.5 29t-27.5 74v13zM390 278q-8 -11 -15.5 -18t-20 -13.5
t-33 -13.5t-53.5 -16q-68 -20 -98 -44t-30 -58q0 -31 21.5 -50t55.5 -19q32 0 62.5 12.5t54 33.5t38.5 48t16 56zM104 576l168 111l169 -111l-55 -53l-114 77l-114 -77z" />
    <glyph glyph-name="atilde" unicode="&#xe3;" horiz-adv-x="611" 
d="M390 102q-29 -56 -80.5 -86t-116.5 -30q-69 0 -110.5 34.5t-41.5 91.5q0 35 19 63.5t54 46.5q16 9 27.5 14t28.5 10.5t46 13t81 20.5q50 13 71 28q20 14 20 38q0 16 -9.5 31t-25.5 25.5t-37.5 17t-45.5 6.5q-33 0 -57 -9t-42 -28q13 -9 17.5 -17t4.5 -19q0 -23 -17 -39
t-41 -16q-26 0 -43.5 18.5t-17.5 46.5q0 24 14.5 44t40.5 34.5t62.5 22t81.5 7.5q83 0 136 -32q34 -21 49 -57t15 -99v-157q0 -46 8 -62t31 -16q25 0 34.5 20t9.5 71v45h43v-74q0 -59 -29 -91.5t-80 -32.5q-45 0 -72.5 29t-27.5 74v13zM390 278q-8 -11 -15.5 -18t-20 -13.5
t-33 -13.5t-53.5 -16q-68 -20 -98 -44t-30 -58q0 -31 21.5 -50t55.5 -19q32 0 62.5 12.5t54 33.5t38.5 48t16 56zM100 559q5 23 9 36t13 25q13 19 33.5 30t41.5 11q14 0 31 -4.5t48 -15.5q17 -7 29 -11t22 -6.5t18 -3.5t17 -1q41 0 48 33h33q-20 -102 -101 -102q-9 0 -16 1
t-16.5 3t-23.5 6.5t-35 11.5q-31 11 -49 15t-31 4q-34 0 -40 -32h-31z" />
    <glyph glyph-name="adieresis" unicode="&#xe4;" horiz-adv-x="611" 
d="M390 102q-29 -56 -80.5 -86t-116.5 -30q-69 0 -110.5 34.5t-41.5 91.5q0 35 19 63.5t54 46.5q16 9 27.5 14t28.5 10.5t46 13t81 20.5q50 13 71 28q20 14 20 38q0 16 -9.5 31t-25.5 25.5t-37.5 17t-45.5 6.5q-33 0 -57 -9t-42 -28q13 -9 17.5 -17t4.5 -19q0 -23 -17 -39
t-41 -16q-26 0 -43.5 18.5t-17.5 46.5q0 24 14.5 44t40.5 34.5t62.5 22t81.5 7.5q83 0 136 -32q34 -21 49 -57t15 -99v-157q0 -46 8 -62t31 -16q25 0 34.5 20t9.5 71v45h43v-74q0 -59 -29 -91.5t-80 -32.5q-45 0 -72.5 29t-27.5 74v13zM390 278q-8 -11 -15.5 -18t-20 -13.5
t-33 -13.5t-53.5 -16q-68 -20 -98 -44t-30 -58q0 -31 21.5 -50t55.5 -19q32 0 62.5 12.5t54 33.5t38.5 48t16 56zM388 662q24 0 40.5 -16.5t16.5 -40.5q0 -23 -17 -40t-41 -17q-23 0 -39.5 16.5t-16.5 40.5q0 25 16 41t41 16zM156 662q24 0 40.5 -16.5t16.5 -40.5
q0 -23 -17 -40t-41 -17q-23 0 -39.5 16.5t-16.5 40.5q0 25 16 41t41 16z" />
    <glyph glyph-name="aring" unicode="&#xe5;" horiz-adv-x="611" 
d="M390 102q-29 -56 -80.5 -86t-116.5 -30q-69 0 -110.5 34.5t-41.5 91.5q0 35 19 63.5t54 46.5q16 9 27.5 14t28.5 10.5t46 13t81 20.5q50 13 71 28q20 14 20 38q0 16 -9.5 31t-25.5 25.5t-37.5 17t-45.5 6.5q-33 0 -57 -9t-42 -28q13 -9 17.5 -17t4.5 -19q0 -23 -17 -39
t-41 -16q-26 0 -43.5 18.5t-17.5 46.5q0 24 14.5 44t40.5 34.5t62.5 22t81.5 7.5q83 0 136 -32q34 -21 49 -57t15 -99v-157q0 -46 8 -62t31 -16q25 0 34.5 20t9.5 71v45h43v-74q0 -59 -29 -91.5t-80 -32.5q-45 0 -72.5 29t-27.5 74v13zM390 278q-8 -11 -15.5 -18t-20 -13.5
t-33 -13.5t-53.5 -16q-68 -20 -98 -44t-30 -58q0 -31 21.5 -50t55.5 -19q32 0 62.5 12.5t54 33.5t38.5 48t16 56zM272 723q22 0 42 -8.5t34 -23t22.5 -34.5t8.5 -43q0 -21 -8.5 -40t-23 -33.5t-33.5 -22.5t-41 -8q-23 0 -42.5 8.5t-34 23t-23 34t-8.5 41.5t8.5 41t23 33.5
t34 23t41.5 8.5zM272 662q-19 0 -32.5 -13.5t-13.5 -33.5q0 -19 13.5 -32.5t32.5 -13.5t32 13t13 32q0 20 -13 34t-32 14z" />
    <glyph glyph-name="ae" unicode="&#xe6;" horiz-adv-x="890" 
d="M844 140q-11 -32 -24 -53t-37 -43q-34 -31 -71 -44.5t-87 -13.5q-104 0 -179 68q-17 15 -27.5 29.5t-20.5 36.5q-14 -29 -36 -53.5t-49 -42.5t-57.5 -28t-60.5 -10q-33 0 -61 10t-49 28t-33 42.5t-12 52.5q0 123 241 162q58 10 82.5 26t24.5 45q0 16 -9 30t-25 24t-37 16
t-46 6q-34 0 -57 -8.5t-42 -27.5q21 -11 21 -35t-16 -39.5t-41 -15.5q-26 0 -42.5 17t-16.5 44q0 50 52 79t140 29q64 0 106.5 -15.5t71.5 -50.5q38 37 76 51.5t94 14.5q154 0 213 -121q14 -28 19.5 -60t6.5 -80h-384q10 -79 54 -124.5t110 -45.5q99 0 154 100h54zM381 232
q0 14 1 21.5t3 19.5q-17 -10 -28 -16t-20.5 -10t-20 -7.5l-25.5 -8.5q-28 -8 -44.5 -13.5l-27 -9t-18 -7.5t-17.5 -9q-22 -13 -34 -31.5t-12 -38.5q0 -31 23 -52.5t55 -21.5q30 0 59.5 13t53 33t38.5 45.5t15 51.5v10.5t-1 12.5v18zM758 258q-2 74 -39.5 117.5t-98.5 43.5
t-100.5 -43t-47.5 -118h286z" />
    <glyph glyph-name="ccedilla" unicode="&#xe7;" horiz-adv-x="517" 
d="M236 -127q7 -30 40 -30q17 0 26.5 8.5t9.5 22.5q0 17 -12 27.5t-32 10.5h-6.5t-9.5 -1l10 73q-42 4 -72.5 16t-62.5 36q-41 32 -65 84.5t-24 109.5q0 52 19 96.5t53.5 76.5t81.5 50t103 18q33 0 62.5 -6t51.5 -18q29 -14 47.5 -41t18.5 -55q0 -25 -17.5 -42.5
t-42.5 -17.5q-23 0 -39 15.5t-16 38.5q0 30 27 41q-29 39 -87 39q-36 0 -66 -14.5t-51.5 -40.5t-33.5 -61.5t-12 -78.5q0 -42 12 -77.5t33 -60.5t51 -39t66 -14q48 0 80 23t54 73h56q-20 -70 -67 -109t-119 -43l-6 -44q39 -4 57 -18.5t18 -42.5q0 -32 -25.5 -52t-67.5 -20
q-38 0 -58.5 16t-28.5 51h44z" />
    <glyph glyph-name="egrave" unicode="&#xe8;" horiz-adv-x="562" 
d="M513 141q-21 -73 -78.5 -114t-138.5 -41q-57 0 -104.5 18t-81.5 50.5t-53 78t-19 99.5q0 52 18.5 95.5t52 75.5t79 50t99.5 18q72 0 127 -32.5t84 -92.5q14 -29 19.5 -59.5t6.5 -76.5h-388q4 -77 49.5 -123t117.5 -46q33 0 65.5 12.5t52.5 32.5q11 11 18.5 23t16.5 32h57
zM428 258q-2 31 -7 53t-15 41q-18 34 -50.5 52.5t-73.5 18.5q-66 0 -104.5 -43.5t-41.5 -121.5h292zM138 672h116l77 -134h-77z" />
    <glyph glyph-name="eacute" unicode="&#xe9;" horiz-adv-x="562" 
d="M513 141q-21 -73 -78.5 -114t-138.5 -41q-57 0 -104.5 18t-81.5 50.5t-53 78t-19 99.5q0 52 18.5 95.5t52 75.5t79 50t99.5 18q72 0 127 -32.5t84 -92.5q14 -29 19.5 -59.5t6.5 -76.5h-388q4 -77 49.5 -123t117.5 -46q33 0 65.5 12.5t52.5 32.5q11 11 18.5 23t16.5 32h57
zM428 258q-2 31 -7 53t-15 41q-18 34 -50.5 52.5t-73.5 18.5q-66 0 -104.5 -43.5t-41.5 -121.5h292zM319 672h115l-115 -134h-78z" />
    <glyph glyph-name="ecircumflex" unicode="&#xea;" horiz-adv-x="562" 
d="M513 141q-21 -73 -78.5 -114t-138.5 -41q-57 0 -104.5 18t-81.5 50.5t-53 78t-19 99.5q0 52 18.5 95.5t52 75.5t79 50t99.5 18q72 0 127 -32.5t84 -92.5q14 -29 19.5 -59.5t6.5 -76.5h-388q4 -77 49.5 -123t117.5 -46q33 0 65.5 12.5t52.5 32.5q11 11 18.5 23t16.5 32h57
zM428 258q-2 31 -7 53t-15 41q-18 34 -50.5 52.5t-73.5 18.5q-66 0 -104.5 -43.5t-41.5 -121.5h292zM113 576l168 111l169 -111l-55 -53l-114 77l-114 -77z" />
    <glyph glyph-name="edieresis" unicode="&#xeb;" horiz-adv-x="562" 
d="M513 141q-21 -73 -78.5 -114t-138.5 -41q-57 0 -104.5 18t-81.5 50.5t-53 78t-19 99.5q0 52 18.5 95.5t52 75.5t79 50t99.5 18q72 0 127 -32.5t84 -92.5q14 -29 19.5 -59.5t6.5 -76.5h-388q4 -77 49.5 -123t117.5 -46q33 0 65.5 12.5t52.5 32.5q11 11 18.5 23t16.5 32h57
zM428 258q-2 31 -7 53t-15 41q-18 34 -50.5 52.5t-73.5 18.5q-66 0 -104.5 -43.5t-41.5 -121.5h292zM397 662q24 0 40.5 -16.5t16.5 -40.5q0 -23 -17 -40t-41 -17q-23 0 -39.5 16.5t-16.5 40.5q0 25 16 41t41 16zM165 662q24 0 40.5 -16.5t16.5 -40.5q0 -23 -17 -40t-41 -17
q-23 0 -39.5 16.5t-16.5 40.5q0 25 16 41t41 16z" />
    <glyph glyph-name="igrave" unicode="&#xec;" horiz-adv-x="337" 
d="M30 48h10q28 0 46 4t28.5 15t14.5 30t4 49v165q0 30 -4 49t-14.5 30t-28.5 15t-46 4h-10v48h184v-309q0 -31 4 -50.5t14.5 -30.5t29 -15t47.5 -4v-48h-279v48zM27 672h116l77 -134h-77z" />
    <glyph glyph-name="iacute" unicode="&#xed;" horiz-adv-x="337" 
d="M30 48h10q28 0 46 4t28.5 15t14.5 30t4 49v165q0 30 -4 49t-14.5 30t-28.5 15t-46 4h-10v48h184v-309q0 -31 4 -50.5t14.5 -30.5t29 -15t47.5 -4v-48h-279v48zM208 672h115l-115 -134h-78z" />
    <glyph glyph-name="icircumflex" unicode="&#xee;" horiz-adv-x="337" 
d="M30 48h10q28 0 46 4t28.5 15t14.5 30t4 49v165q0 30 -4 49t-14.5 30t-28.5 15t-46 4h-10v48h184v-309q0 -31 4 -50.5t14.5 -30.5t29 -15t47.5 -4v-48h-279v48zM2 576l168 111l169 -111l-55 -53l-114 77l-114 -77z" />
    <glyph glyph-name="idieresis" unicode="&#xef;" horiz-adv-x="337" 
d="M214 662q24 0 40.5 -16.5t16.5 -40.5q0 -23 -17 -40t-41 -17q-23 0 -39.5 16.5t-16.5 40.5q0 25 16 41t41 16zM55 662q24 0 40.5 -16.5t16.5 -40.5q0 -23 -17 -40t-41 -17q-23 0 -39.5 16.5t-16.5 40.5q0 25 16 41t41 16zM30 48h10q28 0 46 4t28.5 15t14.5 30t4 49v165
q0 30 -4 49t-14.5 30t-28.5 15t-46 4h-10v48h184v-309q0 -31 4 -50.5t14.5 -30.5t29 -15t47.5 -4v-48h-279v48z" />
    <glyph glyph-name="eth" unicode="&#xf0;" horiz-adv-x="587" 
d="M132 542l91 58q-10 6 -23.5 12t-28.5 12t-28.5 11t-23.5 7l17 33l17 -4q22 -8 43.5 -15t43.5 -14q8 -3 12.5 -4.5t17.5 -8.5l106 68l23 -30l-87 -56q29 -17 50 -29.5t36.5 -24.5t28.5 -25t27 -29q48 -56 71 -118t23 -134q0 -62 -17.5 -111t-50 -83.5t-79 -53
t-105.5 -18.5q-58 0 -105.5 18t-81.5 50t-52.5 77.5t-18.5 100.5q0 136 118 206q29 17 61 26t61 9q19 0 45 -6t49 -15q7 -3 13 -7.5t17 -13.5q-17 27 -31.5 48t-31 38t-35.5 32t-44 32l-105 -69zM295 423q-73 0 -115.5 -53.5t-42.5 -145.5q0 -88 42 -139.5t114 -51.5
t114 51.5t42 139.5q0 45 -11 81.5t-31.5 62.5t-49 40.5t-62.5 14.5z" />
    <glyph glyph-name="ntilde" unicode="&#xf1;" horiz-adv-x="676" 
d="M28 48h10q28 0 46 4t28.5 15t14.5 30t4 49v165q0 30 -4 49t-14.5 30t-28.5 15t-46 4h-10v48h181v-98q31 60 73 86t106 26q80 0 129 -50q13 -14 22.5 -29t15 -34t8 -43t2.5 -57v-110q0 -31 4 -50.5t14.5 -30.5t29 -15t47.5 -4v-48h-275v48q29 0 47.5 4t29 15t14.5 30.5
t4 50.5v127q0 134 -122 134q-23 0 -44 -6.5t-38 -18.5q-34 -24 -48.5 -64t-14.5 -108v-64q0 -31 4 -50.5t14.5 -30.5t29 -15t47.5 -4v-48h-280v48zM166 559q5 23 9 36t13 25q13 19 33.5 30t41.5 11q14 0 31 -4.5t48 -15.5q17 -7 29 -11t22 -6.5t18 -3.5t17 -1q41 0 48 33h33
q-20 -102 -101 -102q-9 0 -16 1t-16.5 3t-23.5 6.5t-35 11.5q-31 11 -49 15t-31 4q-34 0 -40 -32h-31z" />
    <glyph glyph-name="ograve" unicode="&#xf2;" horiz-adv-x="587" 
d="M296 471q54 0 103.5 -20t84.5 -56q29 -30 46.5 -76t17.5 -94q0 -53 -19 -96.5t-52.5 -75.5t-80.5 -49.5t-103 -17.5t-103 17.5t-80.5 49.5t-52.5 75.5t-19 96.5q0 54 19 99t53 78t81.5 51t104.5 18zM295 423q-73 0 -115.5 -53.5t-42.5 -145.5q0 -88 42 -139t114 -51
t114 51.5t42 139.5q0 44 -11 80.5t-31.5 62.5t-49 40.5t-62.5 14.5zM150 672h116l77 -134h-77z" />
    <glyph glyph-name="oacute" unicode="&#xf3;" horiz-adv-x="587" 
d="M296 471q54 0 103.5 -20t84.5 -56q29 -30 46.5 -76t17.5 -94q0 -53 -19 -96.5t-52.5 -75.5t-80.5 -49.5t-103 -17.5t-103 17.5t-80.5 49.5t-52.5 75.5t-19 96.5q0 54 19 99t53 78t81.5 51t104.5 18zM295 423q-73 0 -115.5 -53.5t-42.5 -145.5q0 -88 42 -139t114 -51
t114 51.5t42 139.5q0 44 -11 80.5t-31.5 62.5t-49 40.5t-62.5 14.5zM331 672h115l-115 -134h-78z" />
    <glyph glyph-name="ocircumflex" unicode="&#xf4;" horiz-adv-x="587" 
d="M296 471q54 0 103.5 -20t84.5 -56q29 -30 46.5 -76t17.5 -94q0 -53 -19 -96.5t-52.5 -75.5t-80.5 -49.5t-103 -17.5t-103 17.5t-80.5 49.5t-52.5 75.5t-19 96.5q0 54 19 99t53 78t81.5 51t104.5 18zM295 423q-73 0 -115.5 -53.5t-42.5 -145.5q0 -88 42 -139t114 -51
t114 51.5t42 139.5q0 44 -11 80.5t-31.5 62.5t-49 40.5t-62.5 14.5zM125 576l168 111l169 -111l-55 -53l-114 77l-114 -77z" />
    <glyph glyph-name="otilde" unicode="&#xf5;" horiz-adv-x="587" 
d="M296 471q54 0 103.5 -20t84.5 -56q29 -30 46.5 -76t17.5 -94q0 -53 -19 -96.5t-52.5 -75.5t-80.5 -49.5t-103 -17.5t-103 17.5t-80.5 49.5t-52.5 75.5t-19 96.5q0 54 19 99t53 78t81.5 51t104.5 18zM295 423q-73 0 -115.5 -53.5t-42.5 -145.5q0 -88 42 -139t114 -51
t114 51.5t42 139.5q0 44 -11 80.5t-31.5 62.5t-49 40.5t-62.5 14.5zM121 559q5 23 9 36t13 25q13 19 33.5 30t41.5 11q14 0 31 -4.5t48 -15.5q17 -7 29 -11t22 -6.5t18 -3.5t17 -1q41 0 48 33h33q-20 -102 -101 -102q-9 0 -16 1t-16.5 3t-23.5 6.5t-35 11.5q-31 11 -49 15
t-31 4q-34 0 -40 -32h-31z" />
    <glyph glyph-name="odieresis" unicode="&#xf6;" horiz-adv-x="587" 
d="M296 471q54 0 103.5 -20t84.5 -56q29 -30 46.5 -76t17.5 -94q0 -53 -19 -96.5t-52.5 -75.5t-80.5 -49.5t-103 -17.5t-103 17.5t-80.5 49.5t-52.5 75.5t-19 96.5q0 54 19 99t53 78t81.5 51t104.5 18zM295 423q-73 0 -115.5 -53.5t-42.5 -145.5q0 -88 42 -139t114 -51
t114 51.5t42 139.5q0 44 -11 80.5t-31.5 62.5t-49 40.5t-62.5 14.5zM409 662q24 0 40.5 -16.5t16.5 -40.5q0 -23 -17 -40t-41 -17q-23 0 -39.5 16.5t-16.5 40.5q0 25 16 41t41 16zM177 662q24 0 40.5 -16.5t16.5 -40.5q0 -23 -17 -40t-41 -17q-23 0 -39.5 16.5t-16.5 40.5
q0 25 16 41t41 16z" />
    <glyph glyph-name="divide" unicode="&#xf7;" 
d="M250 401q-19 0 -30.5 12t-11.5 32t11.5 32t30.5 12q20 0 31 -12t11 -32t-11 -32t-31 -12zM48 290h404v-46h-404v46zM250 45q-19 0 -30.5 12t-11.5 32t11.5 32.5t30.5 12.5q20 0 31 -12.5t11 -32.5q0 -19 -11 -31.5t-31 -12.5z" />
    <glyph glyph-name="oslash" unicode="&#xf8;" horiz-adv-x="596" 
d="M36 18l56 54q-25 37 -36 75t-11 85q0 54 18.5 98t51.5 75.5t79.5 49t102.5 17.5q92 0 167 -48l58 54l35 -36l-58 -55q26 -33 39 -75t13 -88q0 -53 -19 -96.5t-52.5 -75t-80.5 -49t-104 -17.5q-93 0 -164 49l-58 -54zM408 373q-19 24 -48.5 37.5t-63.5 13.5
q-35 0 -64 -14.5t-49.5 -40.5t-32 -62.5t-11.5 -79.5q0 -56 19 -94zM188 90q20 -26 49.5 -41t62.5 -15q35 0 64 15t50 42t32.5 64t11.5 82q0 29 -4 48.5t-15 42.5z" />
    <glyph glyph-name="ugrave" unicode="&#xf9;" horiz-adv-x="646" 
d="M446 99q-61 -113 -174 -113q-43 0 -78.5 14.5t-59.5 42.5q-21 25 -30 55.5t-9 78.5v149q0 48 -14.5 65.5t-54.5 17.5h-7v48h158v-272q0 -63 32 -100.5t86 -37.5q29 0 59.5 14.5t52.5 40.5q20 24 29.5 54t9.5 73v80q0 31 -4 50.5t-14.5 30.5t-29 15t-47.5 4v48h175v-309
q0 -31 4 -50.5t14.5 -30.5t29 -15t47.5 -4v-48h-175v99zM147 672h116l77 -134h-77z" />
    <glyph glyph-name="uacute" unicode="&#xfa;" horiz-adv-x="646" 
d="M446 99q-61 -113 -174 -113q-43 0 -78.5 14.5t-59.5 42.5q-21 25 -30 55.5t-9 78.5v149q0 48 -14.5 65.5t-54.5 17.5h-7v48h158v-272q0 -63 32 -100.5t86 -37.5q29 0 59.5 14.5t52.5 40.5q20 24 29.5 54t9.5 73v80q0 31 -4 50.5t-14.5 30.5t-29 15t-47.5 4v48h175v-309
q0 -31 4 -50.5t14.5 -30.5t29 -15t47.5 -4v-48h-175v99zM328 672h115l-115 -134h-78z" />
    <glyph glyph-name="ucircumflex" unicode="&#xfb;" horiz-adv-x="646" 
d="M446 99q-61 -113 -174 -113q-43 0 -78.5 14.5t-59.5 42.5q-21 25 -30 55.5t-9 78.5v149q0 48 -14.5 65.5t-54.5 17.5h-7v48h158v-272q0 -63 32 -100.5t86 -37.5q29 0 59.5 14.5t52.5 40.5q20 24 29.5 54t9.5 73v80q0 31 -4 50.5t-14.5 30.5t-29 15t-47.5 4v48h175v-309
q0 -31 4 -50.5t14.5 -30.5t29 -15t47.5 -4v-48h-175v99zM122 576l168 111l169 -111l-55 -53l-114 77l-114 -77z" />
    <glyph glyph-name="udieresis" unicode="&#xfc;" horiz-adv-x="646" 
d="M446 99q-61 -113 -174 -113q-43 0 -78.5 14.5t-59.5 42.5q-21 25 -30 55.5t-9 78.5v149q0 48 -14.5 65.5t-54.5 17.5h-7v48h158v-272q0 -63 32 -100.5t86 -37.5q29 0 59.5 14.5t52.5 40.5q20 24 29.5 54t9.5 73v80q0 31 -4 50.5t-14.5 30.5t-29 15t-47.5 4v48h175v-309
q0 -31 4 -50.5t14.5 -30.5t29 -15t47.5 -4v-48h-175v99zM406 662q24 0 40.5 -16.5t16.5 -40.5q0 -23 -17 -40t-41 -17q-23 0 -39.5 16.5t-16.5 40.5q0 25 16 41t41 16zM174 662q24 0 40.5 -16.5t16.5 -40.5q0 -23 -17 -40t-41 -17q-23 0 -39.5 16.5t-16.5 40.5q0 25 16 41
t41 16z" />
    <glyph glyph-name="yacute" unicode="&#xfd;" horiz-adv-x="633" 
d="M289 -23l-182 362q-23 40 -48 56t-65 15v47h304v-47q-63 0 -85 -7.5t-22 -27.5q0 -9 5.5 -23.5t18.5 -40.5l122 -245l128 257q16 32 16 50q0 37 -87 37h-22v47h267v-47q-22 0 -37 -2.5t-26.5 -10.5t-21.5 -22t-22 -36l-231 -442q-32 -63 -68.5 -91.5t-83.5 -28.5
q-25 0 -46.5 8t-37 21.5t-24.5 32t-9 39.5q0 29 17 48t43 19q23 0 39 -15.5t16 -38.5q0 -19 -11.5 -31.5t-28.5 -14.5q12 -11 20.5 -15t20.5 -4q31 0 56 21.5t53 70.5zM388 672h115l-115 -134h-78z" />
    <glyph glyph-name="thorn" unicode="&#xfe;" horiz-adv-x="614" 
d="M-5 -161h9q29 0 47.5 4t29.5 15t15 30t4 49v584q0 30 -4 49t-14.5 30t-28.5 15t-46 4h-10v48h184v-292q36 51 77 73.5t98 22.5q49 0 89.5 -17.5t69.5 -49t44.5 -76.5t15.5 -100q0 -50 -13 -89t-41 -74q-32 -38 -73 -58.5t-89 -20.5q-57 0 -104.5 28t-73.5 77v-116
q0 -39 4 -65.5t13.5 -42.5t25 -23t39.5 -7h21v-46h-289v48zM181 205q9 -73 50 -118t99 -45q32 0 59 14.5t47 40t31.5 61t11.5 76.5q0 40 -11 73.5t-30.5 57.5t-46.5 37.5t-60 13.5q-61 0 -101 -41.5t-49 -113.5v-56z" />
    <glyph glyph-name="ydieresis" unicode="&#xff;" horiz-adv-x="633" 
d="M289 -23l-182 362q-23 40 -48 56t-65 15v47h304v-47q-63 0 -85 -7.5t-22 -27.5q0 -9 5.5 -23.5t18.5 -40.5l122 -245l128 257q16 32 16 50q0 37 -87 37h-22v47h267v-47q-22 0 -37 -2.5t-26.5 -10.5t-21.5 -22t-22 -36l-231 -442q-32 -63 -68.5 -91.5t-83.5 -28.5
q-25 0 -46.5 8t-37 21.5t-24.5 32t-9 39.5q0 29 17 48t43 19q23 0 39 -15.5t16 -38.5q0 -19 -11.5 -31.5t-28.5 -14.5q12 -11 20.5 -15t20.5 -4q31 0 56 21.5t53 70.5zM466 662q24 0 40.5 -16.5t16.5 -40.5q0 -23 -17 -40t-41 -17q-23 0 -39.5 16.5t-16.5 40.5q0 25 16 41
t41 16zM234 662q24 0 40.5 -16.5t16.5 -40.5q0 -23 -17 -40t-41 -17q-23 0 -39.5 16.5t-16.5 40.5q0 25 16 41t41 16z" />
    <glyph glyph-name="dotlessi" unicode="&#x131;" horiz-adv-x="337" 
d="M30 48h10q28 0 46 4t28.5 15t14.5 30t4 49v165q0 30 -4 49t-14.5 30t-28.5 15t-46 4h-10v48h184v-309q0 -31 4 -50.5t14.5 -30.5t29 -15t47.5 -4v-48h-279v48z" />
    <glyph glyph-name="OE" unicode="&#x152;" horiz-adv-x="1230" 
d="M686 0h-31.5t-22.5 -1t-19.5 -2t-22.5 -2q-37 -5 -58.5 -7.5t-36.5 -4t-27 -2t-28 -0.5q-87 0 -155.5 22t-124.5 69q-60 50 -92 116.5t-32 143.5q0 74 31 142.5t86 116.5q107 95 286 95h20t19.5 -1.5t29.5 -4t50 -6.5q10 -1 26.5 -2.5t35 -2.5t36.5 -1.5t30 -0.5h476
v-229h-48q-2 27 -4.5 46t-6.5 34t-9.5 26.5t-13.5 22.5q-35 48 -121 48h-230v-246h86q67 0 93 32q5 6 9 14t7 20t5.5 30.5t5.5 46.5h48v-344h-48q0 43 -6 72.5t-20 46.5t-37.5 24.5t-57.5 7.5h-85v-267h206q48 0 80 9t52.5 32.5t31 63t15.5 101.5h48v-258h-476zM632 512
q0 29 -14.5 54t-39.5 38q-26 14 -67 21.5t-84 7.5q-65 0 -118.5 -27t-92.5 -81q-32 -43 -49 -93t-17 -101q0 -63 23 -118t62.5 -95.5t93.5 -63.5t116 -23q46 0 89.5 13t67.5 33q17 15 23.5 30.5t6.5 42.5v362z" />
    <glyph glyph-name="oe" unicode="&#x153;" horiz-adv-x="956" 
d="M908 139q-27 -75 -82.5 -114t-136.5 -39q-65 0 -114 23t-88 73q-27 -47 -79 -71.5t-122 -24.5q-59 0 -105.5 17t-79 49.5t-50 78.5t-17.5 104q0 53 18.5 96.5t52 74.5t81 48t105.5 17q66 0 119 -24t77 -65q68 89 195 89q155 0 214 -129q14 -29 19.5 -59.5t5.5 -72.5h-385
q3 -28 7.5 -45.5t13.5 -35.5q21 -42 59.5 -65t84.5 -23q50 0 86 23.5t63 74.5h58zM285 423q-35 0 -63.5 -13.5t-48.5 -37.5t-31.5 -58t-11.5 -75q0 -45 11.5 -82t31.5 -63.5t48.5 -41t62.5 -14.5q35 0 64 14t49.5 39.5t32 61.5t11.5 79t-11 78.5t-31.5 60.5t-49.5 38.5
t-64 13.5zM825 258q-21 162 -142 162q-31 0 -57.5 -12t-46 -33.5t-31.5 -51t-13 -65.5h290z" />
    <glyph glyph-name="Scaron" unicode="&#x160;" horiz-adv-x="721" 
d="M47 246h48q5 -29 11.5 -50t16 -37.5t22.5 -29.5t31 -25q22 -15 48 -27.5t53.5 -21t55.5 -13.5t54 -5q44 0 84.5 12.5t69.5 35.5q47 35 47 90q0 28 -13.5 52t-36.5 38q-25 16 -77 21l-145 12q-42 3 -71.5 7t-51 8.5t-37 11t-29.5 15.5q-33 21 -53.5 60.5t-20.5 83.5
t19.5 81t55 64t84 42t106.5 15q45 0 90 -8.5t77 -23.5q26 -11 46 -17.5t31 -6.5q7 0 14 4.5t10 9.5q2 3 3 7t3 16h48v-210h-48q-5 25 -11.5 43t-16.5 32t-23 25.5t-32 22.5q-39 24 -86.5 37t-95.5 13q-38 0 -71.5 -10t-58 -27.5t-38.5 -41t-14 -50.5q0 -26 14.5 -47
t39.5 -32q20 -8 80 -14l139 -11q39 -3 67 -6.5t49 -9t37.5 -13.5t33.5 -20q36 -26 57 -67.5t21 -86.5t-20 -86.5t-54 -67.5q-36 -28 -88.5 -43.5t-110.5 -15.5q-45 0 -94.5 10t-91.5 27q-29 12 -52.5 19t-36.5 7q-40 0 -40 -44h-48v246zM162 826l56 54l142 -68l141 68
l56 -54l-197 -98z" />
    <glyph glyph-name="scaron" unicode="&#x161;" horiz-adv-x="511" 
d="M59 177h43q5 -26 10.5 -41.5t16.5 -29.5q23 -30 63 -49t82 -19q48 0 78.5 22.5t30.5 57.5q0 31 -21 47.5t-68 22.5l-104 12q-66 8 -103 43t-37 89q0 29 13.5 54.5t36.5 44t55 29.5t68 11q19 0 35 -1.5t31 -5t30.5 -9t33.5 -13.5q13 -6 24 -6q17 0 20 21h38v-148h-38
q-8 29 -16 45.5t-23 30.5q-21 20 -51.5 31t-64.5 11q-48 0 -79.5 -21.5t-31.5 -55.5q0 -27 17.5 -41t55.5 -18l109 -12q45 -5 72.5 -16.5t47.5 -34.5q35 -40 35 -92q0 -32 -13.5 -59t-37.5 -47.5t-56.5 -32t-69.5 -11.5q-16 0 -28.5 1t-27.5 5.5t-36.5 12t-55.5 21.5
q-12 5 -19 5q-10 0 -14.5 -7t-7.5 -24h-43v177zM87 634l54 53l114 -76l114 76l55 -53l-169 -111z" />
    <glyph glyph-name="Ydieresis" unicode="&#x178;" horiz-adv-x="833" 
d="M227 52h21q73 0 100 29q10 11 13.5 24t3.5 40v141l-184 256q-16 22 -30 36t-29.5 22t-35 11t-46.5 3h-21v53h380v-53h-32q-79 0 -79 -41q0 -6 0.5 -10.5t3 -9.5t8 -14t16.5 -24l121 -180l133 181q14 20 19 30.5t5 23.5q0 23 -21 33.5t-70 10.5h-18v53h329v-53h-17
q-48 0 -87 -23.5t-78 -76.5l-167 -228v-141q0 -30 5 -44.5t19 -25.5q29 -23 93 -23h21v-52h-376v52zM570 861q24 0 40.5 -16.5t16.5 -40.5q0 -23 -17 -40t-41 -17q-23 0 -39.5 16.5t-16.5 40.5q0 25 16 41t41 16zM262 862q24 0 41 -16.5t17 -40.5t-17 -41t-41 -17
t-40.5 16.5t-16.5 41.5t16 41t41 16z" />
    <glyph glyph-name="Zcaron" unicode="&#x17d;" horiz-adv-x="706" 
d="M34 47l481 568h-265q-97 0 -131 -54q-11 -18 -16 -43.5t-7 -77.5h-48v227h600v-47l-479 -568h303q45 0 70.5 12.5t45.5 44.5q14 22 21.5 51.5t13.5 82.5h48v-243h-637v47zM155 826l56 54l142 -68l141 68l56 -54l-197 -98z" />
    <glyph glyph-name="zcaron" unicode="&#x17e;" horiz-adv-x="540" 
d="M38 48l340 361h-170q-34 0 -56 -5t-34.5 -18t-17.5 -36t-5 -58v-20h-48v185h442v-48l-339 -361h182q32 0 53.5 5t35 17.5t19.5 33t7 51.5l1 41h50v-196h-460v48zM102 634l54 53l114 -76l114 76l55 -53l-169 -111z" />
    <glyph glyph-name="florin" unicode="&#x192;" horiz-adv-x="695" 
d="M336 472h-107l9 48h107l7 44q7 41 25 75t44.5 58t59.5 37.5t71 13.5q53 0 84 -24.5t31 -66.5q0 -32 -16.5 -51t-42.5 -19q-23 0 -38.5 14.5t-15.5 37.5q0 36 35 48q-15 20 -40 20q-42 0 -71.5 -34.5t-40.5 -96.5l-10 -56h121l-9 -48h-121l-72 -421q-7 -41 -25 -75
t-44.5 -58t-59.5 -37.5t-71 -13.5q-51 0 -81.5 25.5t-30.5 68.5q0 30 17 50t43 20q23 0 37 -15t14 -39q0 -36 -35 -48q13 -20 39 -20q43 0 72.5 34.5t40.5 96.5z" />
    <glyph glyph-name="circumflex" unicode="&#x2c6;" 
d="M82 576l168 111l169 -111l-55 -53l-114 77l-114 -77z" />
    <glyph glyph-name="caron" unicode="&#x2c7;" 
d="M82 634l54 53l114 -76l114 76l55 -53l-169 -111z" />
    <glyph glyph-name="ring" unicode="&#x2da;" 
d="M250 723q22 0 42 -8.5t34 -23t22.5 -34.5t8.5 -43q0 -21 -8.5 -40t-23 -33.5t-33.5 -22.5t-41 -8q-23 0 -42.5 8.5t-34 23t-23 34t-8.5 41.5t8.5 41t23 33.5t34 23t41.5 8.5zM250 662q-19 0 -32.5 -13.5t-13.5 -33.5q0 -19 13.5 -32.5t32.5 -13.5t32 13t13 32
q0 20 -13 34t-32 14z" />
    <glyph glyph-name="tilde" unicode="&#x2dc;" 
d="M78 559q5 23 9 36t13 25q13 19 33.5 30t41.5 11q14 0 31 -4.5t48 -15.5q17 -7 29 -11t22 -6.5t18 -3.5t17 -1q41 0 48 33h33q-20 -102 -101 -102q-9 0 -16 1t-16.5 3t-23.5 6.5t-35 11.5q-31 11 -49 15t-31 4q-34 0 -40 -32h-31z" />
    <glyph glyph-name="uni03BC" unicode="&#x3bc;" horiz-adv-x="539" 
d="M21 -162q22 0 35.5 2t21.5 7t11 13.5t3 22.5v548q0 27 -14 35t-57 9v28l150 5v-397q0 -44 21 -65t56 -21q25 0 46.5 13t36.5 34.5t23.5 51t8.5 62.5v245q0 27 -13.5 35t-54.5 9v28l148 5v-435q0 -14 3 -22.5t11 -13.5t21.5 -7t35.5 -2v-27l-149 -5v74h-2
q-22 -34 -50.5 -56t-78.5 -23q-35 0 -63 9v-189h-150v27z" />
    <glyph glyph-name="endash" unicode="&#x2013;" horiz-adv-x="695" 
d="M130 267h434v-67h-434v67z" />
    <glyph glyph-name="emdash" unicode="&#x2014;" horiz-adv-x="1000" 
d="M0 267h1000v-67h-1000v67z" />
    <glyph glyph-name="quoteleft" unicode="&#x2018;" horiz-adv-x="353" 
d="M238 656q-30 -17 -49.5 -45.5t-20.5 -54.5q11 4 17 4q23 0 37 -14t14 -36q0 -24 -16 -39.5t-41 -15.5q-29 0 -46 19.5t-17 51.5q0 48 25 87t79 73z" />
    <glyph glyph-name="quoteright" unicode="&#x2019;" horiz-adv-x="353" 
d="M116 485q29 17 49 45.5t21 54.5l-9 -3t-8 -1q-23 0 -37 14t-14 36q0 24 16 39.5t41 15.5q29 0 46 -19.5t17 -51.5q0 -48 -25 -87t-79 -73z" />
    <glyph glyph-name="quotesinglbase" unicode="&#x201a;" horiz-adv-x="295" 
d="M86 -96q30 17 49.5 45.5t20.5 54.5l-9 -3t-8 -1q-23 0 -37 14t-14 36q0 24 16 39.5t41 15.5q29 0 46 -19.5t17 -51.5q0 -48 -25 -86.5t-79 -73.5z" />
    <glyph glyph-name="quotedblleft" unicode="&#x201c;" horiz-adv-x="544" 
d="M238 656q-30 -17 -49.5 -45.5t-20.5 -54.5q11 4 17 4q23 0 37 -14t14 -36q0 -24 -16 -39.5t-41 -15.5q-29 0 -46 19.5t-17 51.5q0 48 25 87t79 73zM429 656q-30 -17 -49.5 -45.5t-20.5 -54.5q9 4 16 4q23 0 37 -14t14 -36q0 -24 -16 -39.5t-41 -15.5q-29 0 -46 19.5
t-17 51.5q0 48 25.5 87.5t79.5 72.5z" />
    <glyph glyph-name="quotedblright" unicode="&#x201d;" horiz-adv-x="544" 
d="M116 485q29 17 49 45.5t21 54.5l-9 -3t-8 -1q-23 0 -37 14t-14 36q0 24 16 39.5t41 15.5q29 0 46 -19.5t17 -51.5q0 -48 -25 -87t-79 -73zM306 485q30 17 50 45.5t20 54.5q-9 -4 -17 -4q-22 0 -36 14t-14 36q0 24 16 39.5t41 15.5q29 0 46 -19.5t17 -51.5
q0 -48 -25.5 -86.5t-79.5 -73.5z" />
    <glyph glyph-name="quotedblbase" unicode="&#x201e;" horiz-adv-x="549" 
d="M306 -105q32 18 52.5 47.5t21.5 56.5l-10.5 -3t-8.5 -1q-23 0 -37.5 15t-14.5 38q0 24 17 40.5t43 16.5q29 0 47 -20.5t18 -53.5q0 -51 -26 -91t-83 -76zM116 -105q32 18 52 47.5t21 56.5q-11 -4 -18 -4q-23 0 -38 15t-15 38q0 24 17 40.5t43 16.5q29 0 47.5 -20.5
t18.5 -53.5q0 -29 -11.5 -59.5t-29.5 -52.5q-13 -14 -28 -26.5t-40 -28.5z" />
    <glyph glyph-name="dagger" unicode="&#x2020;" horiz-adv-x="605" 
d="M287 426l-143 -36q-12 -3 -20 -3q-20 0 -36 15.5t-16 35.5q0 21 15 35.5t36 14.5q10 0 15 -1l148 -32l-35 163q-1 5 -1.5 8.5t-0.5 6.5q0 23 15.5 38t38.5 15q22 0 37.5 -15.5t15.5 -37.5q0 -10 -1 -15l-36 -163l149 32q4 1 6 1h9q21 0 36 -14.5t15 -35.5
q0 -20 -16 -35.5t-36 -15.5q-8 0 -21 3l-142 36l37 -490q1 -11 1.5 -20.5t0.5 -12.5q0 -26 -15 -41t-40 -15t-40 15t-15 41q0 5 0.5 14t1.5 19z" />
    <glyph glyph-name="daggerdbl" unicode="&#x2021;" horiz-adv-x="605" 
d="M286 78l-148 -32q-5 -1 -15 -1q-21 0 -36 14.5t-15 35.5q0 20 16 35.5t36 15.5q8 0 20 -3l143 -36q-5 29 -7.5 51.5t-4.5 41t-2.5 34.5t-0.5 33t0.5 33t2.5 34l4.5 40.5t7.5 51.5l-143 -36q-12 -3 -20 -3q-20 0 -36 15.5t-16 35.5q0 21 15 35.5t36 14.5q10 0 15 -1
l148 -32l-35 163q-1 5 -1.5 8.5t-0.5 6.5q0 23 15.5 38t38.5 15q22 0 37.5 -15.5t15.5 -37.5q0 -10 -1 -15l-36 -163l149 32q4 1 6 1h9q21 0 36 -14.5t15 -35.5q0 -20 -16 -35.5t-36 -15.5q-8 0 -21 3l-142 36q4 -29 7 -51.5t5 -40.5t2.5 -34t0.5 -33t-0.5 -33.5t-2.5 -34.5
t-5 -40.5t-7 -51.5l142 36q13 3 21 3q20 0 36 -15.5t16 -35.5q0 -21 -15 -35.5t-36 -14.5q-10 0 -15 1l-149 32l36 -163q1 -5 1 -14q0 -23 -15.5 -38.5t-37.5 -15.5q-23 0 -38.5 15.5t-15.5 38.5q0 2 0.5 5.5t1.5 8.5z" />
    <glyph glyph-name="bullet" unicode="&#x2022;" horiz-adv-x="667" 
d="M337 477q28 0 52.5 -11t43 -30t29.5 -44t11 -53q0 -29 -11 -54.5t-29.5 -44t-44 -29.5t-53.5 -11q-29 0 -54 11t-44 29.5t-30 43.5t-11 54t11 54.5t30 44t44.5 29.5t55.5 11z" />
    <glyph glyph-name="ellipsis" unicode="&#x2026;" horiz-adv-x="885" 
d="M147 105q24 0 40.5 -16.5t16.5 -40.5q0 -23 -17 -40t-41 -17q-23 0 -39.5 16.5t-16.5 40.5q0 25 16 41t41 16zM442 105q24 0 40.5 -16.5t16.5 -40.5q0 -23 -17 -40t-41 -17q-23 0 -39.5 16.5t-16.5 40.5q0 25 16 41t41 16zM737 105q24 0 40.5 -16.5t16.5 -40.5
q0 -23 -17 -40t-41 -17q-23 0 -39.5 16.5t-16.5 40.5q0 25 16 41t41 16z" />
    <glyph glyph-name="perthousand" unicode="&#x2030;" horiz-adv-x="1226" 
d="M191 615q36 0 66.5 -11.5t52 -32.5t33.5 -50t12 -64t-11.5 -64t-33.5 -49.5t-52.5 -31.5t-67.5 -11t-67 11.5t-51.5 32t-33 50t-11.5 65.5q0 34 12.5 62.5t34 49t51.5 32t66 11.5zM192 581q-21 0 -38.5 -9t-30.5 -25t-20.5 -38t-7.5 -47q0 -57 26.5 -91.5t70.5 -34.5
q45 0 72 34t27 91q0 53 -27.5 86.5t-71.5 33.5zM165 5l468 630l39 -31l-466 -630zM647 309q36 0 66.5 -11.5t52 -32.5t33.5 -50t12 -64t-11.5 -64t-33.5 -49.5t-52.5 -31.5t-67.5 -11t-67 11.5t-51.5 32t-33 50t-11.5 65.5q0 34 12.5 62.5t34 49t51.5 32t66 11.5zM648 275
q-21 0 -38.5 -9t-30.5 -25t-20.5 -38t-7.5 -47q0 -57 26.5 -91.5t70.5 -34.5q45 0 72 34t27 91q0 53 -27.5 86.5t-71.5 33.5zM1035 309q36 0 66.5 -11.5t52 -32.5t33.5 -50t12 -64t-11.5 -64t-33.5 -49.5t-52.5 -31.5t-67.5 -11t-67 11.5t-51.5 32t-33 50t-11.5 65.5
q0 34 12.5 62.5t34 49t51.5 32t66 11.5zM1036 275q-21 0 -38.5 -9t-30.5 -25t-20.5 -38t-7.5 -47q0 -57 26.5 -91.5t70.5 -34.5q45 0 72 34t27 91q0 53 -27.5 86.5t-71.5 33.5z" />
    <glyph glyph-name="guilsinglleft" unicode="&#x2039;" horiz-adv-x="307" 
d="M57 234l118 116h75l-119 -116l119 -117h-75z" />
    <glyph glyph-name="guilsinglright" unicode="&#x203a;" horiz-adv-x="307" 
d="M177 234l-120 116h75l118 -116l-118 -117h-75z" />
    <glyph glyph-name="Euro" unicode="&#x20ac;" horiz-adv-x="695" 
d="M688 147q-5 -28 -20 -56.5t-45 -51t-78 -36.5t-119 -14q-56 0 -109.5 11t-98.5 36.5t-77.5 68.5t-47.5 106h-75v38h69q-4 23 -4 57q0 12 0.5 23t1.5 22h-67v37h74q11 51 37 94t69 74.5t103.5 49.5t140.5 18q54 0 100.5 -8t80 -22t52.5 -32t19 -38q0 -27 -24.5 -48
t-72.5 -21q-16 0 -31.5 3t-28 9.5t-20 17.5t-7.5 27q0 9 4 16t8.5 13.5t8.5 13t4 14.5q0 4 -7.5 9t-19.5 9t-27.5 6.5t-32.5 2.5q-36 0 -67.5 -9.5t-56 -33t-41 -64t-23.5 -101.5h355v-37h-359q-1 -11 -1 -22.5v-24.5v-28.5t1 -26.5h291v-38h-286q12 -94 57.5 -143
t139.5 -49q74 0 120.5 34t54.5 94h55z" />
    <glyph glyph-name="trademark" unicode="&#x2122;" horiz-adv-x="982" 
d="M104 372h14q32 0 44 9t12 33v223h-55q-17 0 -31.5 -5.5t-22.5 -14.5t-11.5 -23t-4.5 -43h-30v116h365v-116h-30v8q0 42 -14.5 60t-47.5 18h-61v-223q0 -24 12 -33t44 -9h13v-30h-196v30zM422 372h14q32 0 44.5 9t12.5 33v181q0 24 -12.5 33t-43.5 9h-15v30h137l133 -258
l129 258h136v-30h-14q-32 0 -43.5 -9t-11.5 -33v-181q0 -24 11.5 -33t43.5 -9h13v-30h-197v30h13q33 0 45 9t12 33v197l-135 -269h-29l-138 269v-197q0 -24 11.5 -33t43.5 -9h13v-30h-173v30z" />
    <glyph glyph-name="uniE300" unicode="&#xe300;" 
d="M64 861h133l107 -114h-94z" />
    <glyph glyph-name="uniE301" unicode="&#xe301;" 
d="M303 861h134l-146 -114h-94z" />
    <glyph glyph-name="uniE302" unicode="&#xe302;" 
d="M53 782l198 98l197 -98l-56 -54l-141 68l-142 -68z" />
    <glyph glyph-name="uniE303" unicode="&#xe303;" 
d="M52 826l56 54l142 -68l141 68l56 -54l-197 -98z" />
    <glyph glyph-name="uniE304" unicode="&#xe304;" 
d="M27 756q29 52 64 76.5t80 24.5q24 0 50 -6l69 -16q52 -12 77 -12q47 0 70 38l36 -9q-20 -39 -36 -57t-40 -30q-34 -17 -69 -17q-12 0 -28.5 2t-29.5 5l-78 18q-26 6 -37.5 8t-22.5 2q-23 0 -37 -8t-28 -27z" />
    <glyph glyph-name="uniE305" unicode="&#xe305;" 
d="M404 861q24 0 40.5 -16.5t16.5 -40.5q0 -23 -17 -40t-41 -17q-23 0 -39.5 16.5t-16.5 40.5q0 25 16 41t41 16zM96 862q24 0 41 -16.5t17 -40.5t-17 -41t-41 -17t-40.5 16.5t-16.5 41.5t16 41t41 16z" />
    <glyph glyph-name="uniE308" unicode="&#xe308;" 
d="M250 917q22 0 42 -8.5t34 -23t22.5 -34.5t8.5 -43q0 -21 -8.5 -40t-23 -33.5t-33.5 -22.5t-41 -8q-23 0 -42.5 8.5t-34 23t-23 34t-8.5 41.5t8.5 41t23 33.5t34 23t41.5 8.5zM250 856q-19 0 -32.5 -13.5t-13.5 -32.5t13.5 -32.5t32.5 -13.5t32 13t13 32q0 20 -13 33.5
t-32 13.5z" />
    <glyph glyph-name="glyph231" horiz-adv-x="0" 
 />
    <glyph glyph-name="glyph235" horiz-adv-x="0" 
 />
    </font>
</defs>
</svg>
