<?xml version="1.0" standalone="no"?>
<!DOCTYPE svg PUBLIC "-//W3C//DTD SVG 1.1//EN" "http://www.w3.org/Graphics/SVG/1.1/DTD/svg11.dtd" >
<svg xmlns="http://www.w3.org/2000/svg" xmlns:xlink="http://www.w3.org/1999/xlink" version="1.1">
<metadata>
Created by FontForge 20200314 at Sun Nov 27 18:42:25 2011
 By Unknown
(URW)++,Copyright 2004 by (URW)++ Design &#38; Development
</metadata>
<defs>
<font id="VoltaW01-MediumItalic" horiz-adv-x="500" >
  <font-face 
    font-family="VoltaW01-MediumItalic"
    font-weight="500"
    font-style="italic"
    font-stretch="normal"
    units-per-em="1000"
    panose-1="4 0 6 0 0 0 0 0 0 0"
    ascent="748"
    descent="-252"
    x-height="457"
    cap-height="667"
    bbox="-96 -256 1231 921"
    underline-thickness="98"
    underline-position="-200"
    slope="-12"
    unicode-range="U+000D-2122"
  />
<missing-glyph horiz-adv-x="0" 
 />
    <glyph glyph-name=".notdef" horiz-adv-x="0" 
 />
    <glyph glyph-name=".null" horiz-adv-x="0" 
 />
    <glyph glyph-name="uni000D" unicode="&#xd;" horiz-adv-x="0" 
 />
    <glyph glyph-name="space" unicode=" " horiz-adv-x="300" 
 />
    <glyph glyph-name="exclam" unicode="!" horiz-adv-x="377" 
d="M151 153q16 0 31 -6.5t26 -18t17.5 -27t6.5 -32.5q0 -35 -24 -59t-59 -24t-59.5 24t-24.5 59t24.5 59.5t61.5 24.5zM143 200l26 309q4 45 10 67.5t17 35.5q23 26 60 26t62 -23t25 -57q0 -13 -4 -29.5t-11 -33.5l-126 -295h-59z" />
    <glyph glyph-name="quotedbl" unicode="&#x22;" horiz-adv-x="453" 
d="M316 399l29 268h181l-91 -268h-119zM93 399l28 268h182l-91 -268h-119z" />
    <glyph glyph-name="numbersign" unicode="#" horiz-adv-x="650" 
d="M312 376l-34 -92h98l33 92h-97zM364 41h-77l62 169h-98l-61 -169h-76l61 169h-104l27 74h104l33 92h-104l27 75h104l56 154h77l-57 -154h98l56 154h76l-56 -154h112l-27 -75h-112l-33 -92h112l-27 -74h-112z" />
    <glyph glyph-name="dollar" unicode="$" horiz-adv-x="623" 
d="M306 52q12 -2 20 -2.5t16 -0.5q58 0 94.5 26.5t36.5 68.5q0 18 -10 35t-27 30q-8 6 -16 10.5t-18 8.5t-23 7.5t-31 8.5zM364 560q-14 2 -27 3t-22 1q-23 0 -42.5 -6.5t-34 -18t-23 -26.5t-8.5 -32q0 -14 4 -24.5t13.5 -19.5t26 -16.5t42.5 -15.5l33 -12zM559 422h-54v15
q0 42 -20 66t-70 42l-37 -168q107 -34 154.5 -76.5t47.5 -104.5q0 -38 -17 -75.5t-48 -64.5q-32 -29 -69.5 -42t-88.5 -13q-9 0 -27 0.5t-35 2.5l-19 -84h-55l21 93q-11 4 -19.5 6.5t-16 5.5t-16 6t-20.5 8q-28 10 -42 10q-27 0 -37 -36h-59l41 183h59q1 -51 33.5 -86.5
t87.5 -46.5l44 197q-26 9 -45 16t-33.5 13t-27 12.5t-25.5 14.5q-34 20 -53 51.5t-19 67.5q0 37 16.5 70.5t45 58t66 39t80.5 14.5q18 0 33.5 -2.5t38.5 -8.5l20 94h55l-23 -107l15 -6q26 -11 45.5 -17t27.5 -6q25 0 31 42h54z" />
    <glyph glyph-name="percent" unicode="%" horiz-adv-x="724" 
d="M245 594q-15 0 -29 -12.5t-24.5 -33.5t-16.5 -49t-6 -59q0 -65 42 -65q32 0 54 47q11 23 17 51.5t6 53.5q0 67 -43 67zM240 630q27 0 49.5 -9.5t39 -27t26 -41t9.5 -51.5q0 -34 -13 -65.5t-35.5 -55.5t-51.5 -38t-60 -14q-24 0 -45 10t-37 27t-25 40.5t-9 49.5
q0 34 12.5 66t33.5 56t48.5 38.5t57.5 14.5zM549 254q-15 0 -28.5 -12.5t-24 -33.5t-16.5 -49t-6 -58q0 -66 42 -66q17 0 29.5 11t23.5 36q11 23 17 51t6 54q0 67 -43 67zM545 290q54 0 88.5 -36t34.5 -93q0 -34 -13 -65t-35.5 -55t-51.5 -38.5t-60 -14.5q-24 0 -45 10
t-36.5 27.5t-24.5 40.5t-9 50q0 34 12.5 65.5t33.5 55.5t48.5 38.5t57.5 14.5zM188 -15l-56 39l429 615l59 -36z" />
    <glyph glyph-name="ampersand" unicode="&#x26;" horiz-adv-x="740" 
d="M288 329q-59 -31 -86.5 -69t-27.5 -87q0 -23 7 -43.5t20 -35.5t29.5 -23.5t36.5 -8.5q15 0 29 5.5t37 19.5q-45 73 -45 242zM442 431q105 50 105 114q0 14 -9.5 23t-23.5 9q-29 0 -47 -37t-25 -109zM721 142q-12 -39 -24 -60.5t-32 -40.5q-30 -29 -70.5 -44.5
t-85.5 -15.5q-92 0 -146 66q-46 -35 -86.5 -50.5t-90.5 -15.5q-75 0 -119.5 42t-44.5 113q0 91 70.5 155t200.5 90q5 48 15.5 82.5t30.5 68.5q29 50 73.5 78.5t92.5 28.5q45 0 72 -23.5t27 -65.5q0 -52 -41.5 -96t-122.5 -78q-1 -8 -1 -15v-10q0 -16 1 -30t2.5 -28.5
t4.5 -31t8 -37.5q5 7 9.5 14t9.5 14q17 26 30 44.5t24.5 32t21.5 22.5t21 16q38 24 78 24q37 0 61 -23.5t24 -59.5q0 -32 -19 -52t-50 -20q-26 0 -43 16t-17 41q0 9 5 22h-4q-14 1 -31 -16.5t-50 -64.5l-56 -80q17 -52 39.5 -74t57.5 -22q70 0 97 84h58z" />
    <glyph glyph-name="quotesingle" unicode="'" horiz-adv-x="235" 
d="M94 399l28 268h187l-91 -268h-124z" />
    <glyph glyph-name="parenleft" unicode="(" horiz-adv-x="447" 
d="M466 612q-40 -3 -68 -12t-49.5 -30t-39 -56.5t-35.5 -89.5q-18 -53 -33 -109.5t-26 -110t-17 -100.5t-6 -80q0 -53 23 -83t75 -46l-14 -65q-26 5 -45 10.5t-34 11.5t-28.5 13.5t-26.5 18.5q-48 38 -72.5 103t-24.5 155q0 62 11 123t31 116.5t49.5 104t65.5 85.5
q51 51 115.5 79.5t132.5 28.5q5 0 12.5 -0.5t17.5 -1.5z" />
    <glyph glyph-name="parenright" unicode=")" horiz-adv-x="447" 
d="M-13 -104q40 3 68 12.5t49.5 30.5t39 56t35.5 89q18 53 33 109.5t26 110t17 100.5t6 80q0 53 -23 83.5t-75 46.5l14 65q25 -5 44.5 -10.5t34.5 -11.5t28 -14t27 -18q48 -38 72.5 -103t24.5 -155q0 -62 -11 -123t-31 -116.5t-49.5 -104t-65.5 -85.5q-51 -51 -115.5 -79.5
t-132.5 -28.5h-12.5t-17.5 1z" />
    <glyph glyph-name="asterisk" unicode="*" horiz-adv-x="589" 
d="M222 512q-56 14 -56 58q0 24 15 41t37 17q17 0 31 -11t33 -38l56 -81l-5 82q-1 7 -1 13.5v17.5q0 26 4 39t14 21q17 11 38 11q26 0 43 -15t17 -37q0 -11 -10 -30.5t-27 -39.5l-57 -69l78 29q23 8 40.5 13t27.5 5q19 0 33.5 -17t14.5 -39q0 -23 -15 -40.5t-35 -17.5
q-24 0 -58 14l-86 35l65 -81q24 -29 24 -58q0 -22 -16.5 -36.5t-41.5 -14.5q-29 0 -41 17.5t-12 56.5v10l6 101l-63 -90q-13 -17 -28.5 -27.5t-30.5 -10.5q-21 0 -36.5 17.5t-15.5 41.5q0 43 59 58l106 26z" />
    <glyph glyph-name="plus" unicode="+" 
d="M233 401v201h81v-201h202v-78h-202v-201h-81v201h-202v78h202z" />
    <glyph glyph-name="comma" unicode="," horiz-adv-x="327" 
d="M21 -119l19 11q32 19 53 50t21 59q-65 21 -65 81q0 35 24.5 58.5t62.5 23.5q39 0 64 -27t25 -69q0 -63 -42 -124t-115 -104l-27 -16z" />
    <glyph glyph-name="hyphen" unicode="-" horiz-adv-x="328" 
d="M285 196h-261l26 119h261z" />
    <glyph glyph-name="period" unicode="." horiz-adv-x="327" 
d="M140 162q18 0 33.5 -7t27 -19t18.5 -28t7 -34t-7 -34t-19 -28t-28 -19t-34 -7q-36 0 -62 25.5t-26 61.5q0 19 7 35t19 28t28.5 19t35.5 7z" />
    <glyph glyph-name="slash" unicode="/" horiz-adv-x="365" 
d="M39 -129l-63 28l369 791l63 -28z" />
    <glyph glyph-name="zero" unicode="0" horiz-adv-x="623" 
d="M378 587q-26 0 -51 -16.5t-45 -46.5q-17 -26 -33.5 -72t-29.5 -99.5t-21 -109t-8 -99.5q0 -50 23.5 -80.5t61.5 -30.5q37 0 69 31.5t55 91.5q12 31 23.5 71.5t19.5 83t13 83t5 71.5q0 59 -21.5 90.5t-60.5 31.5zM376 638q53 0 96.5 -19.5t74 -54.5t47.5 -85.5t17 -111.5
q0 -40 -9.5 -81.5t-27 -81t-42 -75.5t-54.5 -64q-88 -84 -203 -84q-54 0 -97.5 19t-74.5 53.5t-47.5 84t-16.5 111.5q0 79 27 150t72.5 124t107 84t130.5 31z" />
    <glyph glyph-name="one" unicode="1" horiz-adv-x="623" 
d="M381 151q-4 -16 -4 -38q0 -51 70 -51h15l-14 -62h-347l14 62h17q41 0 62.5 21.5t33.5 74.5l46 208q8 37 8 60q0 25 -18.5 40t-48.5 15h-28l16 62h19q27 0 57 7.5t54 20.5q15 8 26.5 18t25.5 30h100z" />
    <glyph glyph-name="two" unicode="2" horiz-adv-x="623" 
d="M483 0h-468q12 51 29 89.5t44 70t65.5 58t94.5 55.5q27 14 45.5 24.5t32.5 19t24.5 17t20.5 17.5q27 26 39.5 53.5t12.5 61.5q0 50 -29.5 82t-75.5 32q-27 0 -47.5 -10t-40.5 -33q20 -13 28.5 -25.5t8.5 -32.5q0 -31 -20 -51t-50 -20q-32 0 -53 22.5t-21 57.5
q0 32 17 59.5t47.5 47.5t71.5 31.5t89 11.5q54 0 98 -12.5t75 -35.5t48 -55.5t17 -72.5q0 -56 -32 -103t-93 -80q-17 -9 -28 -15t-27.5 -12.5t-44 -16t-76.5 -25.5q-59 -21 -93.5 -42.5t-53.5 -48.5h222q26 0 44 3.5t30.5 11t20.5 20.5t14 32h56z" />
    <glyph glyph-name="three" unicode="3" horiz-adv-x="623" 
d="M270 352q77 5 117 36t40 85q0 47 -31 78t-77 31q-28 0 -48 -10.5t-40 -34.5q41 -20 41 -60q0 -26 -19 -44.5t-47 -18.5q-31 0 -52.5 21.5t-21.5 51.5q0 24 12.5 49t33.5 45q61 57 165 57q52 0 95 -12t74 -33.5t48 -52t17 -66.5q0 -40 -20.5 -73t-54.5 -47l-17.5 -7
t-18.5 -5.5t-27 -5.5t-42 -8q36 -11 55 -20t37 -25q23 -18 34.5 -44.5t11.5 -57.5q0 -38 -17.5 -74t-46.5 -59q-39 -32 -97 -49.5t-122 -17.5q-47 0 -86.5 10.5t-68 29t-44.5 44t-16 55.5q0 33 22 55t54 22q29 0 49.5 -18.5t20.5 -45.5q0 -43 -40 -60q23 -20 41.5 -28
t41.5 -8q29 0 55.5 12.5t46.5 33.5t31.5 48.5t11.5 57.5q0 52 -27.5 78.5t-87.5 31.5z" />
    <glyph glyph-name="four" unicode="4" horiz-adv-x="623" 
d="M373 455l-241 -226h189zM469 229h108l-16 -62h-107l-7 -38q-2 -8 -2 -12q-2 -26 19.5 -40.5t59.5 -14.5h16l-15 -62h-362l19 62h19q65 0 86 38q7 11 10.5 23.5t10.5 43.5h-275l11 62l425 390h92z" />
    <glyph glyph-name="five" unicode="5" horiz-adv-x="623" 
d="M582 619q-11 -37 -22.5 -61t-27.5 -38t-37.5 -19.5t-51.5 -5.5h-5l-213 5l-30 -128q76 47 159 47q40 0 76 -15t63 -40.5t43 -59.5t16 -73q0 -57 -28.5 -109.5t-76.5 -87.5q-35 -26 -83.5 -39.5t-102.5 -13.5q-44 0 -80 9t-61.5 25t-40 38t-14.5 49q0 32 21 54.5t53 22.5
q28 0 47 -18t19 -44q0 -34 -31 -53q15 -15 28.5 -20.5t34.5 -5.5q32 0 59.5 14t48 38.5t32.5 58t12 71.5q0 57 -28 90.5t-74 33.5q-67 0 -113 -60l-66 2l81 333h393z" />
    <glyph glyph-name="six" unicode="6" horiz-adv-x="623" 
d="M335 360q-72 0 -105 -89q-10 -26 -16 -60.5t-6 -64.5q0 -109 78 -109q61 0 97 82q13 32 21 70t8 70q0 48 -20.5 74.5t-56.5 26.5zM256 391q19 10 34 17t28.5 11t27 5.5t29.5 1.5q42 0 77 -14t61 -39t40.5 -59t14.5 -74q0 -49 -19.5 -98.5t-51.5 -84.5q-33 -37 -82 -56.5
t-107 -19.5q-57 0 -105 19t-79 54q-26 31 -42 77.5t-16 97.5q0 77 26.5 154t73.5 137q43 56 108.5 87t137.5 31q43 0 79.5 -9t62 -25.5t40 -39t14.5 -49.5q0 -33 -21.5 -55t-53.5 -22q-30 0 -50.5 18.5t-20.5 45.5q0 17 8 30t27 24q-19 16 -37 22.5t-43 6.5q-88 0 -131 -97
q-8 -18 -15 -39.5t-15 -57.5z" />
    <glyph glyph-name="seven" unicode="7" horiz-adv-x="623" 
d="M637 619q-10 -38 -20.5 -66.5t-26.5 -58t-40 -65t-61 -85.5q-27 -37 -46.5 -68t-33.5 -60.5t-23.5 -59.5t-17.5 -66q-14 -60 -38 -84.5t-69 -24.5q-36 0 -57 20.5t-21 56.5q0 29 13.5 63.5t36.5 68.5q16 23 49 57t88 83q37 34 62.5 59t41.5 44t25 34.5t15 32.5h-208
q-29 0 -48.5 -3.5t-33 -12t-22.5 -23.5t-17 -39h-61l47 197h466z" />
    <glyph glyph-name="eight" unicode="8" horiz-adv-x="623" 
d="M259 279q-32 -8 -49.5 -17.5t-34.5 -27.5q-14 -16 -21.5 -35t-7.5 -39q0 -25 11 -46.5t30.5 -38t46 -26t56.5 -9.5q55 0 90.5 27.5t35.5 70.5q0 24 -14 42.5t-46 38.5zM388 377q104 28 104 106q0 20 -9.5 38t-25.5 31.5t-37.5 21t-45.5 7.5q-47 0 -78 -23t-31 -58
q0 -23 14 -42t47 -40zM456 338q56 -37 79 -71t23 -81q0 -43 -21 -80.5t-57 -65t-85 -43.5t-105 -16q-51 0 -95.5 14t-77.5 38t-52 57t-19 71q0 36 18 68.5t50 55.5q17 13 34.5 20.5t49.5 15.5q-42 28 -60.5 58t-18.5 69q0 41 19.5 76t54 60.5t82 39.5t103.5 14
q49 0 89.5 -11t69 -30.5t44 -48t15.5 -62.5q0 -29 -13.5 -57t-36.5 -46q-18 -14 -36.5 -23t-53.5 -22z" />
    <glyph glyph-name="nine" unicode="9" horiz-adv-x="623" 
d="M368 582q-63 0 -97 -82q-14 -32 -22 -69t-8 -68q0 -49 20 -76t58 -27q72 0 105 89q11 26 16.5 59.5t5.5 64.5q0 109 -78 109zM398 228q-20 -10 -35 -16.5t-28.5 -10.5t-27 -5.5t-28.5 -1.5q-42 0 -77.5 14t-61.5 38.5t-40.5 58.5t-14.5 75q0 48 19.5 98t51.5 85
q33 36 82 55.5t107 19.5q56 0 101 -17.5t76.5 -49.5t48.5 -78t17 -103q0 -77 -26.5 -154t-73.5 -137q-44 -56 -109 -87t-137 -31q-44 0 -80 9t-61.5 25.5t-40 39t-14.5 49.5q0 33 21.5 55t53.5 22q30 0 50.5 -18.5t20.5 -45.5q0 -17 -8 -29.5t-27 -23.5q19 -17 37 -23.5
t42 -6.5q62 0 100.5 46t61.5 148z" />
    <glyph glyph-name="colon" unicode=":" horiz-adv-x="327" 
d="M207 495q18 0 33.5 -7t27 -19t18.5 -28t7 -34t-7 -34t-19 -28t-28 -19t-34 -7q-36 0 -62 25.5t-26 61.5q0 19 7 35t19 28t28.5 19t35.5 7zM140 162q18 0 33.5 -7t27 -19t18.5 -28t7 -34t-7 -34t-19 -28t-28 -19t-34 -7q-36 0 -62 25.5t-26 61.5q0 19 7 35t19 28t28.5 19
t35.5 7z" />
    <glyph glyph-name="semicolon" unicode=";" horiz-adv-x="327" 
d="M201 495q18 0 33.5 -7t27 -19t18.5 -28t7 -34t-7 -34t-19 -28t-28 -19t-34 -7q-36 0 -62 25.5t-26 61.5q0 19 7 35t19 28t28.5 19t35.5 7zM21 -119l19 11q32 19 52.5 49.5t21.5 59.5q-65 21 -65 81q0 35 24.5 58.5t62.5 23.5q39 0 64 -27t25 -69q0 -63 -42.5 -124
t-114.5 -104l-27 -16z" />
    <glyph glyph-name="less" unicode="&#x3c;" 
d="M490 474l-256 -137l255 -137l1 -165l-433 233v140l433 233v-167z" />
    <glyph glyph-name="equal" unicode="=" 
d="M517 324v-75h-486v75h486zM517 476v-75h-486v75h486z" />
    <glyph glyph-name="greater" unicode="&#x3e;" 
d="M57 201l256 137l-255 137l-1 166l433 -234v-139l-433 -233v166z" />
    <glyph glyph-name="question" unicode="?" horiz-adv-x="556" 
d="M262 153q34 0 58 -24.5t24 -59.5q0 -34 -24.5 -58.5t-58.5 -24.5q-35 0 -59.5 24t-24.5 59t24.5 59.5t60.5 24.5zM244 200l22 83q4 16 8.5 27t10.5 20t14 18t21 21q24 21 38.5 36.5t23 28.5t11.5 25t3 27q0 41 -26 67t-67 26q-24 0 -41.5 -9t-34.5 -29q35 -23 35 -57
q0 -28 -22.5 -48t-52.5 -20q-32 0 -54 23t-22 58q0 30 16.5 56t45.5 45t69.5 29.5t87.5 10.5q102 0 160.5 -42.5t58.5 -116.5q0 -35 -17 -67.5t-46 -54.5q-8 -6 -14 -10t-15 -9t-25.5 -12.5t-45.5 -21.5q-32 -16 -48.5 -40t-22.5 -64h-71z" />
    <glyph glyph-name="at" unicode="@" horiz-adv-x="673" 
d="M422 353q11 33 11 50q0 23 -12.5 37.5t-32.5 14.5q-24 0 -49 -21t-43 -57q-15 -31 -25 -66.5t-10 -58.5q0 -29 12.5 -45.5t33.5 -16.5q30 0 52.5 24t40.5 76zM670 170q-20 -40 -51 -73t-69.5 -56.5t-83.5 -36.5t-91 -13q-69 0 -130 26t-106.5 71.5t-71.5 106.5t-26 131
t26 131t71.5 106t107 71t131.5 26q63 0 118 -22t96 -59.5t64.5 -87.5t23.5 -107q0 -56 -23 -104t-67 -81q-29 -23 -61.5 -35.5t-61.5 -12.5q-51 0 -71 41q-32 -24 -54.5 -33.5t-48.5 -9.5q-54 0 -87.5 37t-33.5 95q0 41 16.5 80.5t43.5 70t61.5 49.5t70.5 19q62 0 95 -48
l12 32h82l-77 -236q-7 -20 -8 -24.5t-1 -10.5q0 -9 7 -15t18 -6q18 0 41.5 14t43.5 37q25 29 38 64t13 73q0 48 -19.5 90t-53.5 73.5t-79.5 50t-97.5 18.5q-59 0 -110 -22t-89 -60.5t-59.5 -90.5t-21.5 -112t22 -112t60 -91t89 -61t110 -22q70 0 132.5 34.5t100.5 94.5h59z
" />
    <glyph glyph-name="A" unicode="A" horiz-adv-x="708" 
d="M385 507l-164 -252h201zM606 136q7 -40 22 -54.5t47 -14.5h18l-15 -67h-342l15 67h18q40 0 56 12t16 41v11l-8 57h-255l-30 -49q-17 -27 -17 -41t17.5 -22.5t46.5 -8.5h23l-15 -67h-268l15 67h7q23 0 46.5 14.5t39.5 38.5l361 547h110z" />
    <glyph glyph-name="B" unicode="B" horiz-adv-x="780" 
d="M280 67h114q81 0 127.5 35t46.5 96q0 27 -10.5 51.5t-28.5 38.5q-29 23 -94 23h-101zM349 380q26 -1 50 -1.5t32 -0.5q51 0 80 8.5t49 28.5q16 17 25.5 42.5t9.5 51.5q0 91 -104 91h-93zM544 667q219 0 219 -151q0 -37 -16.5 -69.5t-47.5 -55.5q-12 -8 -23.5 -14.5
t-26.5 -12t-34 -10.5t-45 -10q23 -5 40 -10t30.5 -10.5t24 -11.5t20.5 -14q52 -41 52 -108q0 -48 -26 -90.5t-68 -64.5q-32 -17 -74.5 -26t-91.5 -9h-476l15 67h15q85 0 105 87l80 362q3 11 4.5 20.5t1.5 14.5q0 26 -21 37.5t-69 11.5h-14l15 67h411z" />
    <glyph glyph-name="C" unicode="C" horiz-adv-x="731" 
d="M714 228q-12 -32 -23 -56.5t-22.5 -44t-25 -36t-30.5 -31.5q-92 -84 -230 -84q-72 0 -133.5 23t-106 64t-69.5 97.5t-25 123.5q0 45 10.5 90t30 86.5t47.5 78.5t63 66q104 86 245 86q45 0 88 -9.5t82 -29.5q24 -11 36.5 -15.5t21.5 -4.5q29 0 40 35h63l-45 -212h-63
q-2 37 -7.5 58.5t-19.5 41.5q-23 31 -63 49t-85 18q-137 0 -215 -148q-24 -48 -37.5 -102t-13.5 -105q0 -48 14 -88t39 -68t60.5 -43.5t79.5 -15.5q75 0 134 47t86 129h74z" />
    <glyph glyph-name="D" unicode="D" horiz-adv-x="858" 
d="M279 67h78q45 0 80 4.5t62.5 14t49 25t39.5 38.5q19 23 34 53t26 64t17 69.5t6 70.5q0 55 -20 98t-57 66q-26 16 -59.5 23t-86.5 7h-51zM16 67h15q85 0 105 87l80 362q3 11 4.5 20.5t1.5 14.5q0 26 -21 37.5t-69 11.5h-14l15 67h362q344 0 344 -287q0 -85 -29 -156
t-84 -124q-28 -26 -58 -45t-64 -31t-73.5 -18t-85.5 -6h-444z" />
    <glyph glyph-name="E" unicode="E" horiz-adv-x="745" 
d="M726 445h-67q5 25 6.5 39t1.5 28q0 47 -27.5 67.5t-90.5 20.5h-152l-49 -223h68q29 0 48.5 3.5t32 14t20.5 28t15 46.5h67l-59 -267h-67q2 14 3.5 25.5t1.5 22.5q0 28 -18 44.5t-47 16.5h-80l-54 -244h102.5t57.5 1t33 3.5t28 6.5q48 14 82 51.5t46 89.5h67l-49 -219
h-645l15 67h15q85 0 105 87l80 362q3 11 4.5 21t1.5 15q0 26 -21 37t-69 11h-14l15 67h642z" />
    <glyph glyph-name="F" unicode="F" horiz-adv-x="706" 
d="M730 448h-67q6 33 8 48t2 29q0 40 -26.5 57.5t-86.5 17.5h-163l-50 -223h69q28 0 47 4t32 14.5t21.5 29t14.5 46.5h69l-59 -266h-69q4 16 5.5 30t1.5 26q0 51 -66 51h-80l-36 -161q-5 -25 -5 -36q0 -26 21 -37t69 -11h14l-15 -67h-380l15 67h15q85 0 105 87l80 362
q3 11 4.5 21t1.5 15q0 26 -21 37t-69 11h-14l15 67h646z" />
    <glyph glyph-name="G" unicode="G" horiz-adv-x="814" 
d="M815 241h-19q-40 0 -62.5 -19.5t-32.5 -64.5l-35 -157h-85l-16 53q-29 -22 -53.5 -36.5t-49 -23.5t-50.5 -13t-57 -4q-157 0 -244 111q-31 41 -47.5 89t-16.5 99q0 80 32 158t89 137q56 58 129.5 89.5t154.5 31.5q36 0 74.5 -7t72.5 -20q5 -2 18.5 -8t36.5 -17
q16 -8 31 -8q28 0 34 36h62l-49 -220h-67v9l-1 24q-1 30 -14 56.5t-35.5 45.5t-53 30t-64.5 11q-42 0 -82 -17t-70 -47q-28 -28 -50.5 -63t-38 -74.5t-24 -81.5t-8.5 -84q0 -45 13.5 -83.5t36.5 -67t55 -44.5t70 -16q30 0 58 12t49.5 31.5t34.5 45.5t13 54q0 29 -17.5 41
t-60.5 12h-15l14 67h354z" />
    <glyph glyph-name="H" unicode="H" horiz-adv-x="941" 
d="M297 151q-5 -25 -5 -36q0 -26 21 -37t69 -11h14l-15 -67h-380l15 67h15q85 0 105 87l80 362q3 11 4.5 21t1.5 15q0 26 -21 37t-69 11h-14l15 67h379l-14 -67h-16q-86 0 -104 -87l-31 -137h307l31 140q5 22 5 36q0 26 -21 37t-68 11h-14l14 67h380l-14 -67h-16
q-86 0 -105 -87l-80 -362q-5 -23 -5 -36q0 -26 21 -37t68 -11h14l-14 -67h-380l15 67h15q85 0 105 87l34 155h-307z" />
    <glyph glyph-name="I" unicode="I" horiz-adv-x="473" 
d="M381 0h-380l15 67h15q85 0 105 87l80 362q3 11 4.5 21t1.5 15q0 26 -21 37t-69 11h-14l15 67h379l-14 -67h-16q-86 0 -104 -87l-81 -362q-5 -25 -5 -36q0 -26 21 -37t69 -11h14z" />
    <glyph glyph-name="J" unicode="J" horiz-adv-x="601" 
d="M448 164q-20 -89 -82 -138t-156 -49q-41 0 -76 10.5t-60.5 29.5t-40 44t-14.5 55q0 41 27 68.5t67 27.5q35 0 59 -23t24 -57q0 -22 -10 -37.5t-34 -30.5q18 -21 46 -21q31 0 50 21t29 66l86 386q5 25 5 36q0 26 -21 37t-68 11h-15l15 67h382l-15 -67h-15q-86 0 -105 -87z
" />
    <glyph glyph-name="K" unicode="K" horiz-adv-x="871" 
d="M886 600h-19q-30 0 -60 -15t-78 -55l-129 -106l98 -251q13 -31 25.5 -51.5t27 -32.5t33 -17t43.5 -5l-15 -67h-364l15 67h18q65 0 65 41q0 9 -3 21t-14 40l-59 153l-167 -135l-5 -21q-2 -9 -3 -18.5t-1 -18.5q0 -32 18 -47t59 -15h15l-15 -67h-370l15 67h15q85 0 105 87
l80 362q3 11 4.5 21t1.5 15q0 26 -21 37t-69 11h-14l15 67h371l-15 -67h-16q-74 0 -97 -99l-44 -197l253 201q29 23 41.5 38.5t12.5 27.5q0 29 -53 29h-20l15 67h320z" />
    <glyph glyph-name="L" unicode="L" horiz-adv-x="697" 
d="M641 0h-640l15 67h15q85 0 105 87l80 362q3 11 4.5 21t1.5 15q0 26 -21 37t-69 11h-14l15 67h392l-15 -67h-23q-47 0 -73 -21t-36 -66l-99 -446h113q49 0 86 8t64.5 26t46.5 47t33 71h67z" />
    <glyph glyph-name="M" unicode="M" horiz-adv-x="1060" 
d="M1100 667l-15 -67h-15q-86 0 -105 -87l-80 -362q-6 -24 -6 -36q-1 -25 20.5 -36.5t69.5 -11.5h14l-15 -67h-378l15 67h15q85 0 105 87l67 304l-324 -458h-81l-103 460l-74 -319q-3 -14 -3 -25q0 -25 19 -36.5t65 -13.5l-14 -66h-276l15 67h15q85 0 105 87l80 362
q3 11 4.5 21t1.5 15q0 26 -21 37t-69 11h-14l15 67h265l110 -486l338 486h254z" />
    <glyph glyph-name="N" unicode="N" horiz-adv-x="868" 
d="M558 0l-274 506l-79 -355q-5 -23 -5 -36q0 -26 20.5 -37t68.5 -11h14l-15 -67h-292l15 67h15q85 0 105 87l80 362q3 11 4.5 21t1.5 15q0 26 -21 37t-69 11h-14l15 67h242l274 -499l77 348q5 23 5 36q0 26 -21 37t-68 11h-14l14 67h294l-15 -67h-15q-86 0 -105 -87
l-113 -513h-125z" />
    <glyph glyph-name="O" unicode="O" horiz-adv-x="833" 
d="M476 629q-119 0 -184 -128q-13 -25 -24.5 -58.5t-20 -70.5t-13.5 -73.5t-5 -67.5q0 -44 11.5 -79.5t33.5 -61t52 -39t68 -13.5q60 0 108 35t81 102q13 27 24 60.5t19 69t12.5 71t4.5 66.5q0 89 -43.5 138t-123.5 49zM476 691q76 0 139 -23t108.5 -65t70.5 -100t25 -128
q0 -71 -28 -142.5t-77 -125.5q-59 -64 -140 -97.5t-178 -33.5q-78 0 -141.5 22.5t-108.5 63.5t-69.5 98.5t-24.5 128.5q0 89 38.5 171t105.5 137q59 48 127 71t153 23z" />
    <glyph glyph-name="P" unicode="P" horiz-adv-x="727" 
d="M335 319h66q45 0 74.5 6.5t50.5 22.5q30 21 48.5 60t18.5 81q0 26 -9 48.5t-26 37.5q-14 13 -33.5 19t-48.5 6h-79zM297 151q-5 -25 -5 -36q0 -26 21 -37t69 -11h14l-15 -67h-380l15 67h15q85 0 105 87l80 362q3 11 4.5 20.5t1.5 14.5q0 26 -21 37.5t-69 11.5h-14l15 67
h389q57 0 98.5 -10t71.5 -31q32 -23 49.5 -59.5t17.5 -81.5q0 -55 -26 -103.5t-73 -80.5q-20 -13 -40.5 -22t-45 -14.5t-55.5 -8.5t-71 -3l-128 -1z" />
    <glyph glyph-name="Q" unicode="Q" horiz-adv-x="832" 
d="M521 96q15 15 26 28t19.5 25.5t15.5 27t14 32.5q19 49 30 107t11 109q0 100 -43.5 152t-125.5 52q-105 0 -170 -110q-15 -25 -28 -59t-22 -71.5t-14.5 -76.5t-5.5 -73q0 -43 8 -73t26 -53q31 45 61.5 64t70.5 19q46 0 74 -22.5t53 -77.5zM406 43q-20 75 -57 75
q-15 0 -26.5 -7.5t-30.5 -30.5q35 -38 91 -38h9.5t13.5 1zM745 26q-11 -43 -22 -69t-29 -47q-22 -26 -54 -41t-66 -15q-54 0 -91.5 33.5t-55.5 96.5q-15 -1 -27.5 -1.5t-20.5 -0.5q-73 0 -133.5 23t-104 64.5t-67.5 99.5t-24 128q0 85 32 157.5t89 125.5t134 83t167 30
q78 0 141.5 -22.5t108.5 -63t69.5 -98.5t24.5 -128q0 -69 -24.5 -135t-69.5 -120q-17 -20 -33.5 -35.5t-35.5 -29t-42.5 -25.5t-53.5 -25l17 -37q18 -37 41 -37q17 0 33.5 11.5t27.5 31.5q5 9 9 18.5t9 27.5h51z" />
    <glyph glyph-name="R" unicode="R" horiz-adv-x="825" 
d="M352 384h94q21 0 35.5 0.5t25 1t18 2.5t15.5 5q37 12 59.5 44t22.5 73q0 47 -27.5 68.5t-87.5 21.5h-107zM809 105q-13 -57 -55.5 -89.5t-105.5 -32.5q-60 0 -97 26t-37 68q0 20 8 54l20 93q3 13 3 27q0 35 -19.5 50.5t-65.5 15.5h-123l-36 -166q-6 -23 -6 -36
q0 -26 21 -37t69 -11h14l-15 -67h-383l15 67h15q85 0 105 87l80 362q3 11 4.5 21t1.5 15q0 26 -21 37t-69 11h-14l15 67h414q43 0 76 -3t58.5 -10t45 -18.5t35.5 -27.5q15 -16 23.5 -38.5t8.5 -47.5q0 -54 -29 -96t-83 -62q-17 -8 -33 -11.5t-39 -6.5q17 -5 25.5 -8t17.5 -7
q27 -12 42 -34t15 -48q0 -10 -1.5 -22.5t-5.5 -26.5l-20 -90q-2 -7 -3 -13t-1 -11q-1 -14 7.5 -22.5t21.5 -8.5q35 0 51 76l6 26h55z" />
    <glyph glyph-name="S" unicode="S" horiz-adv-x="675" 
d="M632 446h-61q-2 43 -12 68.5t-34 49.5q-28 29 -66.5 43.5t-85.5 14.5q-57 0 -91 -24.5t-34 -66.5q0 -17 5 -30t17 -23.5t33 -20.5t53 -20l122 -41q171 -59 171 -191q0 -51 -21 -93t-59 -72.5t-90.5 -47t-116.5 -16.5q-31 0 -55.5 2.5t-49 8.5t-51.5 16.5t-62 26.5
q-18 9 -30 9q-14 0 -22 -9t-12 -30h-64l50 224h59q3 -42 11.5 -67t25.5 -45q13 -15 33.5 -27t45 -21t52 -14t54.5 -5q33 0 60 7.5t47 21t31 32t11 41.5q0 57 -80 84l-98 34q-65 22 -100.5 38.5t-57.5 35.5q-60 51 -60 137q0 48 19 87.5t53.5 68t82.5 44t106 15.5
q21 0 40.5 -2t39 -6.5t41.5 -12t49 -18.5q23 -10 34 -13t22 -3q28 0 31 31h62z" />
    <glyph glyph-name="T" unicode="T" horiz-adv-x="675" 
d="M703 446h-65q4 20 6 39t2 30q0 81 -87 81h-70l-98 -445q-5 -23 -5 -36q0 -26 21.5 -37t72.5 -11h22l-15 -67h-405l15 67h23q47 0 73 21t37 66l97 442q-46 1 -79 -5.5t-57.5 -24t-42 -46.5t-32.5 -74h-65l49 221h652z" />
    <glyph glyph-name="U" unicode="U" horiz-adv-x="855" 
d="M126 667h366l-15 -67h-15q-86 0 -105 -87l-60 -270q-8 -35 -8 -63q0 -56 41.5 -89t112.5 -33q80 0 132.5 52t75.5 155l58 261q3 12 3 22q0 25 -16.5 38.5t-46.5 13.5h-27l16 67h279l-14 -67h-16q-86 0 -105 -87l-67 -302q-10 -46 -31 -87t-49 -68q-40 -38 -101.5 -59
t-133.5 -21q-66 0 -123 18.5t-94 51.5q-58 52 -58 136q0 15 3 38t8 45l58 261q1 5 1.5 10t0.5 10q0 54 -59 54h-26z" />
    <glyph glyph-name="V" unicode="V" horiz-adv-x="727" 
d="M814 600h-15q-23 0 -46 -20t-53 -65l-336 -515h-130l-83 528q-3 22 -7.5 36.5t-11 22t-17.5 10.5t-27 3h-31l15 67h356l-15 -67h-24q-41 0 -57 -14t-16 -48q0 -7 1 -18t3 -21l55 -338l239 364q15 22 15 35q0 19 -14 29.5t-40 10.5h-38l15 67h276z" />
    <glyph glyph-name="W" unicode="W" horiz-adv-x="985" 
d="M1072 600h-22q-15 0 -25.5 -3.5t-20.5 -13t-20.5 -27t-23.5 -44.5l-253 -512h-124l-49 424l-210 -424h-130l-51 509q-5 44 -16 63q-8 12 -21.5 20t-27.5 8h-21l15 67h346l-14 -67h-20q-45 0 -62 -16.5t-17 -58.5l1 -17l31 -313l232 472h103l48 -458l154 304q6 13 10.5 27
t4.5 22q0 18 -13 28t-36 10h-33l15 67h264z" />
    <glyph glyph-name="X" unicode="X" horiz-adv-x="763" 
d="M800 600q-23 -2 -41 -5t-34 -10t-30 -17t-30 -25l-189 -179l101 -211q22 -46 50.5 -66t70.5 -20h26l-16 -67h-379l16 67h21q60 0 60 35q0 15 -8 33l-60 123l-132 -129q-10 -10 -16 -20t-6 -16q0 -11 12 -18.5t31 -7.5h19l-15 -67h-276l15 67q33 0 58 11.5t59 41.5
l216 205l-85 189q-22 47 -49 66.5t-69 19.5h-22l15 67h358l-15 -67h-19q-20 0 -34 -10.5t-14 -24.5q0 -17 10 -37l43 -97l124 122q9 7 9 21q0 26 -31 26h-23l15 67h279z" />
    <glyph glyph-name="Y" unicode="Y" horiz-adv-x="635" 
d="M731 595h-20q-27 0 -47.5 -15t-43.5 -50l-174 -269l-25 -110q-5 -25 -5 -36q0 -26 21 -37t69 -11h14l-15 -67h-396l15 67h23q47 0 73 21t36 66l24 107l-109 252q-20 46 -40 64t-52 18h-23l15 66h350l-15 -66h-18q-25 0 -39.5 -12.5t-14.5 -34.5q0 -19 10 -39l71 -158
l106 162q11 17 16 29t5 22q0 31 -44 31h-20l15 66h253z" />
    <glyph glyph-name="Z" unicode="Z" horiz-adv-x="672" 
d="M704 600l-484 -533h93q68 0 120 13t84 39q23 18 38 42t30 67h62l-51 -228h-602l15 67l478 533h-114q-90 0 -146 -38q-14 -10 -24.5 -20.5t-19.5 -24.5t-16.5 -32.5t-15.5 -42.5h-63l49 225h582z" />
    <glyph glyph-name="bracketleft" unicode="[" horiz-adv-x="388" 
d="M292 600l-157 -704h100l-15 -67h-235l186 838h234l-15 -67h-98z" />
    <glyph glyph-name="backslash" unicode="\" horiz-adv-x="365" 
d="M227 690l18 -791l-76 -28l-18 791z" />
    <glyph glyph-name="bracketright" unicode="]" horiz-adv-x="388" 
d="M100 -104l156 704h-100l15 67h235l-186 -838h-234l15 67h99z" />
    <glyph glyph-name="asciicircum" unicode="^" 
d="M34 345l146 326h186l146 -326h-147l-92 214l-92 -214h-147z" />
    <glyph glyph-name="underscore" unicode="_" 
d="M523 -54v-98h-500v98h500z" />
    <glyph glyph-name="grave" unicode="`" 
d="M364 543h-89l-75 148h153z" />
    <glyph glyph-name="a" unicode="a" horiz-adv-x="649" 
d="M400 265q-19 -8 -33 -13.5t-26.5 -10l-25 -9t-29.5 -9.5q-46 -15 -66 -35t-20 -49q0 -25 16 -40.5t42 -15.5q45 0 79.5 29.5t45.5 76.5zM648 150q-15 -85 -52.5 -124.5t-103.5 -39.5q-33 0 -59.5 11.5t-42.5 32.5q-8 11 -12.5 22t-8.5 30q-47 -51 -90 -73.5t-95 -22.5
q-33 0 -60 10t-47 28t-31 42.5t-11 54.5q0 42 24 78.5t63 54.5q16 7 27 11t26.5 7t40 6t67.5 8q38 5 70 12t44 15q27 17 27 48q0 27 -27.5 44.5t-70.5 17.5q-27 0 -47.5 -6t-41.5 -20q6 -10 8.5 -16.5t2.5 -14.5q0 -21 -18 -34.5t-47 -13.5q-32 0 -50.5 15t-18.5 41
q0 45 57.5 71t157.5 26q109 0 173.5 -33t64.5 -90q0 -21 -6 -48l-40 -169q-4 -15 -4 -33q0 -34 27 -34q38 0 53 86h51z" />
    <glyph glyph-name="b" unicode="b" horiz-adv-x="615" 
d="M362 387q-27 0 -52 -17.5t-44 -47.5t-30.5 -68.5t-11.5 -80.5q0 -46 20.5 -72.5t55.5 -26.5q65 0 108 94q13 28 20 58t7 57q0 48 -19.5 76t-53.5 28zM120 0h-88l113 510q4 18 6 31t2 22q0 47 -50 47h-16l13 57l231 2l-61 -277q38 42 75.5 61t82.5 19q38 0 69.5 -13
t54 -37t34.5 -58t12 -75q0 -66 -24.5 -129t-68.5 -108q-31 -32 -74 -49.5t-88 -17.5q-26 0 -46.5 5t-38 16.5t-33.5 30.5t-33 48z" />
    <glyph glyph-name="c" unicode="c" horiz-adv-x="522" 
d="M491 157q-8 -24 -17 -43t-19.5 -34t-23.5 -28t-30 -25q-31 -22 -64.5 -32t-75.5 -10q-51 0 -92.5 15t-71 43t-45.5 67t-16 87q0 65 30.5 123.5t84.5 96.5q38 26 87.5 40.5t104.5 14.5q40 0 73 -8.5t57 -24t37 -37t13 -47.5q0 -31 -21.5 -52.5t-53.5 -21.5q-29 0 -49 19
t-20 46q0 14 5.5 25.5t19.5 27.5q-15 16 -41 16q-35 0 -65.5 -17.5t-53 -48t-35.5 -71.5t-13 -88q0 -62 28 -95t80 -33q91 0 126 95h61z" />
    <glyph glyph-name="d" unicode="d" horiz-adv-x="662" 
d="M339 388q-28 0 -53 -16.5t-43.5 -45.5t-29.5 -67.5t-11 -81.5q0 -50 19.5 -77.5t54.5 -27.5q23 0 45.5 12t37.5 33q23 32 37 77t14 88q0 51 -19 78.5t-52 27.5zM667 158q-8 -38 -14.5 -58.5t-18.5 -40.5q-20 -33 -53.5 -51t-76.5 -18q-48 0 -76.5 20.5t-44.5 67.5
q-86 -92 -188 -92q-35 0 -64 13t-50 36.5t-33 56t-12 71.5q0 53 17 107t47 99q33 50 82 77.5t103 27.5q51 0 86 -22t65 -74l30 132q5 20 6.5 32.5t1.5 20.5q0 47 -50 47h-16l12 57l232 2l-116 -527q-4 -14 -5.5 -27t-1.5 -23q0 -12 6 -19.5t17 -7.5q21 0 35.5 21t26.5 72h53
z" />
    <glyph glyph-name="e" unicode="e" horiz-adv-x="543" 
d="M381 286q3 14 4.5 29t1.5 23q0 32 -17.5 51t-47.5 19q-40 0 -68 -31t-42 -91h169zM505 157q-18 -35 -31.5 -54.5t-31.5 -37.5q-38 -37 -89 -58t-105 -21q-47 0 -86 15.5t-67 43.5t-43.5 67t-15.5 86q0 58 21.5 108t59.5 87t89 58t110 21q47 0 86.5 -14t67.5 -38.5
t43.5 -59.5t15.5 -77q0 -8 -2 -25t-5 -34h-323q-1 -11 -1.5 -21.5t-0.5 -15.5q0 -54 29 -84.5t80 -30.5q46 0 77.5 20.5t54.5 64.5h67z" />
    <glyph glyph-name="f" unicode="f" horiz-adv-x="409" 
d="M305 400l-128 -576h-155l128 576h-91l12 57h91l9 39q9 37 16.5 59.5t16.5 38.5q23 42 69.5 64.5t110.5 22.5q30 0 56.5 -8t46 -22.5t30.5 -33.5t11 -41q0 -31 -21 -52.5t-52 -21.5q-26 0 -43.5 16.5t-17.5 42.5q0 20 9.5 34t26.5 19q-19 8 -29 8q-48 0 -63 -73l-21 -92
h117l-13 -57h-116z" />
    <glyph glyph-name="g" unicode="g" horiz-adv-x="604" 
d="M267 -19q-51 0 -84.5 -2t-53 -6.5t-27 -12t-7.5 -19.5q0 -32 48 -50.5t132 -18.5q45 0 85.5 5.5t71 15t48 22.5t17.5 27q0 12 -9.5 19.5t-35 12t-70.5 6t-115 1.5zM364 419q-22 1 -43 -9.5t-37 -29.5t-25.5 -43.5t-9.5 -51.5q0 -38 21 -61t56 -23q21 0 40.5 11.5t35.5 30
t25.5 42.5t9.5 48q0 38 -19.5 61t-53.5 25zM449 101q139 0 139 -115q0 -86 -75.5 -129t-224.5 -43t-220.5 28.5t-71.5 88.5q0 41 32 65q11 8 25 13.5t43 14.5q-29 18 -41 37t-12 47q0 35 21 60t70 49q-18 23 -25 41t-7 43q0 36 18 67.5t49 54.5t73.5 36t92.5 13
q21 0 38.5 -2t46.5 -7q-11 24 -15.5 39.5t-4.5 33.5q0 24 9 45.5t24.5 38t35.5 26.5t43 10q35 0 58.5 -24t23.5 -59q0 -32 -18.5 -53t-46.5 -21q-22 0 -37 12t-21 33q-14 -14 -14 -32q0 -9 2 -16.5t8 -15.5t17.5 -17.5t29.5 -24.5q32 -26 49 -57.5t17 -64.5
q0 -37 -18.5 -67.5t-51.5 -53t-78.5 -35t-99.5 -12.5t-92 10.5t-71 33.5q-40 -19 -40 -49q0 -28 34 -38q4 -2 7.5 -2.5t11 -1t21 -0.5h37.5h209z" />
    <glyph glyph-name="h" unicode="h" horiz-adv-x="674" 
d="M267 367q28 29 51.5 48.5t46.5 31.5t46 17.5t49 5.5q61 0 97 -30t36 -81q0 -14 -3 -34.5t-8 -38.5l-43 -162q-5 -18 -6 -23t-1 -13q0 -27 24 -27q20 0 37.5 22.5t25.5 60.5l3 16h54l-6 -26q-10 -50 -39 -90q-22 -29 -49 -42t-68 -13q-63 0 -97.5 26t-34.5 74
q0 18 4.5 40.5t13.5 53.5l30 100q4 11 6 25t2 25q0 21 -12.5 33t-34.5 12q-21 0 -46.5 -15.5t-48.5 -41.5q-25 -29 -44.5 -71t-30.5 -90l-35 -160h-154l113 510l7 35t2 18q0 47 -51 47h-16l13 57h234z" />
    <glyph glyph-name="i" unicode="i" horiz-adv-x="367" 
d="M263 671q30 0 52 -22.5t22 -53.5q0 -32 -22 -54t-54 -22t-54 22t-22 53q0 32 22.5 54.5t55.5 22.5zM240 143q-8 -37 -8 -52q0 -30 26 -30q11 0 19 4t15 15t13 29.5t13 47.5h54q-9 -46 -17 -69t-20 -41q-19 -26 -52.5 -41t-71.5 -15q-57 0 -93.5 28.5t-36.5 73.5
q0 11 3.5 35t10.5 52l28 128q2 12 3.5 22t1.5 19q0 51 -51 51h-31l13 57l251 2z" />
    <glyph glyph-name="j" unicode="j" horiz-adv-x="336" 
d="M271 671q30 0 52 -22.5t22 -53.5q0 -32 -22 -54t-54 -22t-54 22t-22 53q0 32 22.5 54.5t55.5 22.5zM225 37q-24 -105 -62 -151q-63 -72 -146 -72q-49 0 -79.5 25.5t-30.5 66.5q0 34 21.5 57.5t53.5 23.5q23 0 39 -15.5t16 -38.5q0 -28 -29 -50q5 -5 8.5 -7t9.5 -2
q23 0 38 18.5t15 46.5q0 6 -1 13t-3 15q-3 14 -5 23.5t-2 12.5q0 7 3 27t8 41l53 238q2 11 3.5 21t1.5 20q0 50 -51 50h-31l13 57l250 2z" />
    <glyph glyph-name="k" unicode="k" horiz-adv-x="633" 
d="M226 196l177 143q21 17 26.5 23.5t5.5 16.5q0 14 -10.5 20.5t-36.5 6.5h-18l12 51h261l-12 -51h-14q-13 0 -21.5 -1t-17.5 -5.5t-21.5 -13.5t-31.5 -24l-86 -68l38 -130q20 -70 51 -70q20 0 33 16t24 54h49q-16 -84 -66 -128q-23 -20 -54.5 -32.5t-61.5 -12.5
q-21 0 -37 5t-28 17t-21.5 33t-19.5 53l-29 97l-111 -89l-24 -107h-150l113 509q5 25 7 35.5t2 18.5q0 47 -51 47h-16l13 57h230z" />
    <glyph glyph-name="l" unicode="l" horiz-adv-x="342" 
d="M216 137q-3 -14 -4.5 -22t-2.5 -12.5t-1 -8v-7.5q0 -29 24 -29q37 0 55 81l3 15h56l-5 -25q-17 -75 -55 -109.5t-104 -34.5q-56 0 -90.5 27.5t-34.5 72.5q0 14 3 33.5t9 47.5l76 344q5 24 7 34.5t2 18.5q0 47 -51 47h-16l13 57h234z" />
    <glyph glyph-name="m" unicode="m" horiz-adv-x="1000" 
d="M282 358q44 59 91.5 86t105.5 27q38 0 68 -16t44 -43q5 -10 8.5 -21.5t6.5 -29.5q48 58 92.5 84t95.5 26q55 0 90.5 -31.5t35.5 -80.5q0 -14 -4 -36.5t-11 -45.5l-38 -121q-11 -36 -12 -63q-1 -14 6.5 -22.5t19.5 -8.5q21 0 35.5 21t30.5 74h54q-15 -48 -30.5 -80.5
t-35 -52t-44 -27.5t-57.5 -8q-57 0 -91.5 28t-34.5 74q0 14 3.5 32t14.5 57l32 117q3 9 4 17.5t1 19.5q0 18 -11.5 29.5t-30.5 11.5q-24 0 -48 -14.5t-45 -40.5t-37.5 -62t-25.5 -79l-40 -179h-151l60 271q5 20 7.5 38t2.5 27q0 18 -10.5 29.5t-27.5 11.5q-23 0 -47.5 -15
t-46 -41t-38.5 -60.5t-25 -72.5l-42 -188h-150l69 308q2 12 3.5 22t1.5 19q0 51 -51 51h-31l13 57l242 2z" />
    <glyph glyph-name="n" unicode="n" horiz-adv-x="693" 
d="M57 0l69 308q2 12 3.5 22t1.5 19q0 51 -51 51h-31l13 57l240 2l-24 -112q17 23 27.5 35.5t22.5 23.5q34 32 74 48.5t82 16.5q57 0 91.5 -33t34.5 -86q0 -15 -5 -37l-46 -189q-2 -5 -2 -10v-14q0 -36 26 -36q21 0 35 21.5t24 69.5h52q-4 -26 -8.5 -45.5t-11 -34.5t-15 -27
t-20.5 -22q-42 -37 -108 -37q-59 0 -91.5 26t-32.5 72q0 29 7 56l37 153q3 12 3 24q0 24 -11 38t-30 14q-24 0 -49 -14t-46.5 -37t-38.5 -54.5t-24 -65.5l-45 -203h-153z" />
    <glyph glyph-name="o" unicode="o" horiz-adv-x="565" 
d="M316 410q-30 0 -55.5 -19.5t-44 -53.5t-29.5 -80.5t-11 -100.5q0 -51 18 -79.5t50 -28.5q23 0 45.5 14t39.5 39q13 19 23.5 44t18 52.5t12 55t4.5 53.5q0 49 -19 76.5t-52 27.5zM315 472q49 0 90 -14.5t69.5 -41.5t44.5 -64.5t16 -83.5q0 -61 -25.5 -118.5t-70.5 -98.5
q-71 -65 -193 -65q-105 0 -163.5 55t-58.5 153q0 60 22 111t60.5 88t92 58t116.5 21z" />
    <glyph glyph-name="p" unicode="p" horiz-adv-x="639" 
d="M382 383q-27 0 -52.5 -17.5t-44.5 -46.5t-30.5 -67t-11.5 -79q0 -46 22 -74.5t57 -28.5q27 0 51.5 17.5t43 46.5t30 66.5t11.5 78.5q0 49 -20 76.5t-56 27.5zM277 382q43 48 84 68.5t92 20.5q38 0 69 -13.5t53 -39t34 -61t12 -78.5q0 -38 -8.5 -75t-23.5 -70t-36.5 -61
t-48.5 -48q-25 -19 -58.5 -29t-70.5 -10q-56 0 -89.5 21.5t-61.5 74.5l-60 -258h-149l107 484q5 22 5 41q0 51 -50 51h-32l13 57l236 2z" />
    <glyph glyph-name="q" unicode="q" horiz-adv-x="594" 
d="M306 383q-29 0 -53.5 -19.5t-43.5 -54.5q-8 -15 -14 -33.5t-11 -38.5t-7.5 -39.5t-2.5 -36.5q0 -41 21 -66.5t53 -25.5q30 0 55.5 18.5t45.5 53.5q14 28 23.5 66.5t9.5 72.5q0 48 -20.5 75.5t-55.5 27.5zM435 -186h-148l55 248q-24 -21 -44 -35.5t-39.5 -23.5t-40 -13
t-43.5 -4q-76 0 -118 48q-22 24 -34.5 61t-12.5 76q0 63 24 123.5t66 105.5q68 71 162 71q55 0 90 -22t64 -73l71 81h91z" />
    <glyph glyph-name="r" unicode="r" horiz-adv-x="540" 
d="M271 327q13 19 23 31.5t17.5 22t14.5 17t15 15.5q26 27 61.5 43t68.5 16q43 0 70.5 -25.5t27.5 -66.5q0 -36 -23 -60t-58 -24q-29 0 -48.5 18.5t-19.5 45.5q0 8 3 22q-64 -7 -111 -65t-75 -165l-34 -152h-146l69 308q2 12 3.5 22t1.5 19q0 51 -51 51h-31l13 57l238 2z
" />
    <glyph glyph-name="s" unicode="s" horiz-adv-x="556" 
d="M430 377q-9 17 -36 27.5t-61 10.5q-38 0 -64.5 -15t-26.5 -37q0 -23 30 -41q8 -5 28.5 -13t57.5 -20q73 -24 107.5 -58.5t34.5 -82.5q0 -36 -18 -66t-50.5 -51.5t-78 -33t-100.5 -11.5q-48 0 -88.5 11t-70 30t-46 45t-16.5 56q0 28 20 48.5t48 20.5q24 0 42.5 -16.5
t18.5 -38.5q0 -28 -28 -50q19 -23 48 -34t74 -11q48 0 73.5 15.5t25.5 44.5q0 20 -11.5 32t-40.5 23q-113 44 -149 70q-58 43 -58 100q0 31 17 57t48 44.5t74.5 28.5t95.5 10q46 0 84 -9t65 -24.5t42 -38t15 -49.5q0 -26 -17.5 -43.5t-44.5 -17.5q-25 0 -42.5 15t-17.5 38
q0 11 3.5 18t12.5 16z" />
    <glyph glyph-name="t" unicode="t" horiz-adv-x="410" 
d="M305 457h121l-12 -57h-122l-57 -257q-8 -37 -8 -52q0 -30 26 -30q21 0 35 22.5t25 73.5h54q-5 -26 -10 -44.5t-10.5 -32t-12 -24t-14.5 -20.5q-17 -20 -49.5 -32.5t-68.5 -12.5q-58 0 -92 28t-34 76q0 14 3 32t11 53l48 220h-88l13 57q73 10 114.5 45.5t64.5 107.5h96z
" />
    <glyph glyph-name="u" unicode="u" horiz-adv-x="701" 
d="M574 143q-3 -16 -5 -29t-2 -21q0 -14 7.5 -23t20.5 -9q20 0 33.5 23t23.5 73h54q-10 -50 -20 -75t-26 -46q-18 -21 -47.5 -33t-64.5 -12q-60 0 -95 32q-14 13 -21.5 28.5t-12.5 44.5q-32 -30 -59.5 -51t-52.5 -34t-49 -19t-49 -6q-57 0 -92 33t-35 86q0 26 6 55l33 148
q2 12 3.5 22t1.5 19q0 51 -51 51h-31l13 57l250 2l-64 -291q-2 -8 -3 -18t-1 -19q0 -24 12 -37.5t32 -13.5q28 0 55.5 16.5t51 46t42 70.5t29.5 90l34 154h149z" />
    <glyph glyph-name="v" unicode="v" horiz-adv-x="556" 
d="M244 193q-4 -19 -6 -32.5t-2 -23.5q0 -25 14.5 -39.5t38.5 -14.5q29 0 59.5 17t55.5 44t41 59.5t16 63.5q0 29 -15 47q-3 3 -4.5 5.5t-5 4.5t-9.5 6t-17 10q-12 7 -19.5 22.5t-7.5 32.5q0 34 23 57t57 23q44 0 72 -32t28 -83q0 -69 -34.5 -141.5t-97.5 -132.5
q-106 -101 -221 -101q-27 0 -51 9.5t-41 26.5t-27 39.5t-10 49.5q0 10 1.5 21.5t6.5 31.5l32 145q2 12 3.5 21.5t1.5 19.5q0 51 -51 51h-31l13 57h246z" />
    <glyph glyph-name="w" unicode="w" horiz-adv-x="880" 
d="M241 164q-5 -23 -5 -40q0 -23 13 -36.5t33 -13.5q50 0 104 77q20 28 30.5 52t18.5 62l42 192h151l-61 -277q-5 -18 -7 -34t-2 -25q0 -19 14 -29.5t40 -10.5q65 0 123 69q24 28 39.5 63.5t15.5 61.5q0 20 -11 34l-5 5t-5.5 4.5t-10.5 6.5t-20 11q-14 8 -22 24t-8 34
q0 34 22 55t57 21q45 0 74 -33t29 -85q0 -60 -33 -125.5t-93 -128.5q-114 -116 -228 -116q-62 0 -90.5 27.5t-33.5 91.5q-96 -121 -203 -121q-60 0 -94.5 30.5t-34.5 83.5q0 14 2 31.5t6 34.5l33 149q3 12 4 21.5t1 19.5q0 50 -51 50h-31l13 57h249z" />
    <glyph glyph-name="x" unicode="x" horiz-adv-x="593" 
d="M550 167q-23 -87 -69 -134.5t-108 -47.5q-48 0 -75.5 25t-46.5 88q-2 5 -3 9t-2 9l-21 -29q-41 -54 -73 -78.5t-64 -24.5q-33 0 -56.5 22t-23.5 54t21.5 53.5t53.5 21.5q24 0 38.5 -11t22.5 -37l87 101l-34 139q-8 33 -27.5 51t-48.5 18h-19l14 61h205l24 -117
q32 40 53.5 65t38.5 39t32 18.5t34 4.5t36 -6.5t29.5 -17t19.5 -25.5t7 -31q0 -32 -20.5 -52.5t-52.5 -20.5q-29 0 -44 15t-19 48q-12 -5 -21.5 -12.5t-23.5 -24.5l-52 -68l25 -105l12 -37.5t5 -14.5q4 -10 12 -16t17 -6q19 0 36 19.5t28 54.5h53z" />
    <glyph glyph-name="y" unicode="y" horiz-adv-x="657" 
d="M551 57q-8 -37 -16.5 -64t-18.5 -47.5t-23 -36.5t-30 -30q-36 -30 -87.5 -45.5t-114.5 -15.5q-75 0 -117.5 24.5t-42.5 69.5q0 30 21.5 49.5t54.5 19.5q30 0 52 -17.5t22 -42.5q0 -23 -19 -39q10 -5 15.5 -6.5t13.5 -1.5q99 0 126 118l22 100q-26 -23 -47.5 -39.5
t-42 -26.5t-40.5 -14.5t-42 -4.5q-68 0 -109 34.5t-41 91.5q0 12 2.5 27t7.5 38l24 111q2 11 3.5 21t1.5 19q0 51 -51 51h-31l13 57h249l-52 -234q-6 -25 -8.5 -42.5t-2.5 -29.5q0 -26 16 -42.5t42 -16.5q27 0 55 19t48 50q6 10 12.5 24.5t13 30.5t12 31.5t7.5 26.5l41 183
h150z" />
    <glyph glyph-name="z" unicode="z" horiz-adv-x="540" 
d="M523 400l-300 -339h61q36 0 61.5 4.5t44 15.5t31.5 29.5t24 46.5h52l-35 -157h-456l11 50l312 350h-82q-29 0 -42.5 -3t-29.5 -12q-21 -12 -32 -29t-19 -49h-56l33 150h434z" />
    <glyph glyph-name="braceleft" unicode="{" 
d="M338 364q-7 -26 -14 -44.5t-17 -32.5t-23 -24.5t-32 -20.5q21 -16 29.5 -31.5t8.5 -38.5q0 -25 -7 -54l-19 -86q-9 -40 -13 -64t-4 -36q0 -17 3.5 -28t12.5 -17t24.5 -8.5t40.5 -2.5l-15 -67q-26 -1 -40.5 -1.5t-23 -0.5h-14h-13.5q-47 0 -70.5 3.5t-38.5 12.5
q-39 23 -39 73q0 26 7 57l30 137q5 24 7.5 38.5t2.5 26.5q0 45 -38 57l15 68q16 5 28 13t21 21t16.5 32.5t15.5 47.5l31 141q9 41 24.5 67.5t38.5 43.5q13 9 25.5 15t29 9t38.5 4.5t53 1.5h14.5h15.5t21.5 -0.5t33.5 -0.5l-16 -76q-4 1 -7 1h-5q-53 0 -75 -26
q-7 -8 -12 -16.5t-10 -22t-10.5 -35t-12.5 -55.5z" />
    <glyph glyph-name="bar" unicode="|" 
d="M357 667v-834h-168v834h168z" />
    <glyph glyph-name="braceright" unicode="}" 
d="M161 118q6 25 13.5 44t17 33.5t23 25.5t31.5 21q-23 17 -30 31t-7 40q0 22 6 51l18 81q6 25 9 41.5t5 27t2.5 17t0.5 13.5q0 31 -15 43.5t-53 12.5h-5t-8 -1l17 76q22 0 35 0.5t22 0.5h16h17q47 0 70.5 -3.5t39.5 -12.5q39 -22 39 -74q0 -12 -1.5 -24t-4.5 -27l-32 -141
q-1 -6 -2.5 -14t-2.5 -16.5t-1.5 -16t-0.5 -11.5q0 -44 38 -56l-15 -68q-17 -5 -29.5 -14t-22.5 -23.5t-17.5 -35t-13.5 -49.5l-30 -137q-10 -43 -25 -70t-39 -45q-13 -9 -25.5 -15t-29 -9.5t-38 -5t-52.5 -1.5h-11.5h-14t-23 0.5t-38.5 1.5l15 67q32 0 52.5 5t34.5 21.5
t24 47.5t21 82z" />
    <glyph glyph-name="asciitilde" unicode="~" horiz-adv-x="667" 
d="M116 613q29 73 66 107.5t86 34.5q18 0 42.5 -7t69.5 -25q20 -8 31.5 -12.5t19 -7t12 -3t10.5 -0.5q20 0 35 13t32 45l80 -68q-15 -38 -31.5 -65t-35 -43.5t-40.5 -24t-49 -7.5q-11 0 -20 1t-20.5 4.5t-28 10t-43.5 17.5t-43 16t-28 5q-18 0 -32.5 -13.5t-31.5 -45.5z" />
    <glyph glyph-name="uni00A0" unicode="&#xa0;" horiz-adv-x="300" 
 />
    <glyph glyph-name="exclamdown" unicode="&#xa1;" horiz-adv-x="377" 
d="M223 472q35 0 59.5 -24t24.5 -59t-24.5 -59.5t-60.5 -24.5q-34 0 -58 24.5t-24 59.5q0 34 24.5 58.5t58.5 24.5zM229 257l-26 -309q-5 -45 -10.5 -67.5t-16.5 -35.5q-23 -26 -61 -26q-36 0 -61 23.5t-25 57.5q0 13 4 29.5t11 33.5l126 294h59z" />
    <glyph glyph-name="cent" unicode="&#xa2;" horiz-adv-x="623" 
d="M360 474q-26 -10 -41.5 -22t-30.5 -35q-19 -29 -29.5 -65.5t-10.5 -73.5q0 -83 44 -112zM550 241q-58 -155 -222 -160l-20 -88h-55l20 88q-29 5 -45.5 11t-33.5 17q-42 27 -66 73.5t-24 102.5q0 54 20 99t56 78.5t85.5 53.5t108.5 22l19 88h55l-19 -88q72 -14 113 -49
t41 -85q0 -30 -20.5 -50.5t-50.5 -20.5q-28 0 -46 18t-18 45q0 28 22 49q-9 17 -21.5 24.5t-32.5 8.5l-72 -325q7 -1 12 -1h10q83 0 130 89h54z" />
    <glyph glyph-name="sterling" unicode="&#xa3;" horiz-adv-x="623" 
d="M494 327h-129q13 -22 18 -36.5t5 -30.5q0 -32 -18 -60.5t-63 -66.5l112 -27q28 -7 54 -7q45 0 69 50h56q-13 -43 -26 -68t-35 -48q-50 -52 -106 -52q-14 0 -28.5 1.5t-36.5 6t-55 12.5t-85 22q-24 6 -46.5 9.5t-38.5 3.5q-45 0 -65 -42h-59q6 21 12.5 37.5t13.5 29.5
t15.5 24t19.5 22q22 21 49.5 32.5t56.5 11.5q14 0 27 -2t39 -7q27 27 27 50q0 16 -7.5 37t-21.5 42l-35 56h-134l17 59h79q-24 40 -24 82q0 37 19.5 68.5t54 54t82.5 35t106 12.5q49 0 91 -9.5t72 -26.5t47 -40t17 -51q0 -32 -19.5 -53t-50.5 -21q-28 0 -46 17t-18 43
q0 14 5 24.5t17 21.5q-17 23 -38.5 33.5t-54.5 10.5q-29 0 -54 -8t-43 -22.5t-28.5 -34t-10.5 -41.5q0 -21 7.5 -43.5t24.5 -51.5h180z" />
    <glyph glyph-name="currency" unicode="&#xa4;" horiz-adv-x="720" 
d="M385 450q-24 0 -44.5 -8.5t-35.5 -23.5t-23.5 -35.5t-8.5 -43.5t8.5 -43t23.5 -35t35 -23.5t43 -8.5t43.5 8.5t35.5 23.5t23.5 35.5t8.5 43.5q0 22 -8.5 42t-23.5 35t-35 24t-42 9zM163 210q-17 30 -26.5 63.5t-9.5 65.5t9 63t30 69l-105 104l86 87l107 -107
q40 20 67.5 28t61.5 8t61.5 -7.5t66.5 -27.5l105 104l85 -85l-102 -102q22 -36 31 -67.5t9 -67.5q0 -33 -8 -61t-28 -66l102 -102l-85 -87l-101 102q-35 -21 -66 -30.5t-65 -9.5q-35 0 -68.5 9.5t-71.5 30.5l-102 -101l-85 85z" />
    <glyph glyph-name="yen" unicode="&#xa5;" horiz-adv-x="623" 
d="M425 291l-16 -71h-93l-15 -69q-6 -24 -6 -37q-3 -47 80 -47h13l-15 -67h-357l15 67h21q42 0 66 21t34 66l15 66h-96l16 71h78l-82 222q-17 46 -34.5 64t-45.5 18h-21l15 66h315l-15 -66h-16q-23 0 -36 -13t-13 -35q0 -9 2 -19t5 -19l61 -157l99 161q11 18 15.5 29.5
t4.5 22.5q0 30 -39 30h-18l14 66h228l-14 -66h-19q-24 0 -42.5 -14.5t-40.5 -50.5l-144 -239h81z" />
    <glyph glyph-name="brokenbar" unicode="&#xa6;" 
d="M357 153v-320h-168v320h168zM357 667v-356h-168v356h168z" />
    <glyph glyph-name="section" unicode="&#xa7;" horiz-adv-x="579" 
d="M347 195q17 9 24 12.5t14 8.5q15 11 24 26t9 30q0 31 -59 58l-87 41q-90 -22 -90 -65q0 -36 72 -69zM426 443q64 -30 92 -62t28 -76q0 -52 -33 -89.5t-96 -59.5q23 -21 37.5 -36t23 -29t11.5 -27.5t3 -31.5q0 -42 -19 -77.5t-53 -61t-81 -40t-103 -14.5q-86 0 -145 34
q-38 21 -60.5 54.5t-22.5 67.5q0 29 19.5 47t50.5 18q27 0 46 -16.5t19 -40.5q0 -19 -11 -32t-27 -13h-4.5t-5.5 1q17 -30 44.5 -44t71.5 -14q27 0 50.5 7t41 19.5t27 29t9.5 36.5q0 21 -14 36.5t-47 32.5l-101 51q-71 35 -102 70.5t-31 81.5q0 57 58 95q10 6 20.5 11.5
t23 10.5t28.5 10.5t38 12.5q-8 5 -15 9.5t-15 9.5q-40 25 -56 46.5t-16 50.5q0 34 24 68t62 54q67 35 161 35q45 0 82.5 -7.5t64.5 -21.5t41.5 -33t14.5 -43q0 -27 -18 -44.5t-47 -17.5q-26 0 -44.5 14.5t-18.5 37.5q0 26 28 37q-15 14 -37 20t-58 6q-53 0 -88 -18.5
t-35 -47.5q0 -17 19 -33.5t64 -36.5z" />
    <glyph glyph-name="dieresis" unicode="&#xa8;" 
d="M215 697q30 0 52 -22.5t22 -53.5q0 -32 -22 -54t-54 -22t-54 22t-22 53q0 33 22.5 55t55.5 22zM458 697q30 0 52 -22.5t22 -53.5q0 -32 -22 -54t-54 -22t-54 22t-22 53q0 33 22.5 55t55.5 22z" />
    <glyph glyph-name="copyright" unicode="&#xa9;" horiz-adv-x="766" 
d="M412 638q-63 0 -118 -23.5t-95.5 -65t-64 -97t-23.5 -119.5q0 -63 23.5 -118t64 -96.5t94 -65.5t114.5 -24t115 24t94.5 65t63.5 96.5t23 118.5t-23 118.5t-63 97t-92.5 65.5t-112.5 24zM412 681q70 0 132 -27.5t108.5 -75t73.5 -111t27 -134.5q0 -72 -27 -135t-74 -110
t-110 -74.5t-134 -27.5q-72 0 -135 27.5t-110 74.5t-74.5 110t-27.5 135q0 73 27.5 136.5t74.5 110.5t111 74t138 27zM602 370h-39q-2 23 -9.5 38t-24.5 29q-19 15 -44.5 24t-50.5 9q-57 0 -91.5 -38.5t-34.5 -100.5q0 -29 10 -54.5t28 -44.5t42 -29.5t52 -10.5
q48 0 81.5 25.5t45.5 70.5h35q-26 -135 -182 -135q-47 0 -85 13t-65 36.5t-42 56.5t-15 74q0 40 13.5 73.5t38.5 57t60 36.5t77 13q60 0 117 -24q15 -6 19.5 -7.5t9.5 -1.5q17 0 19 20h35v-130z" />
    <glyph glyph-name="ordfeminine" unicode="&#xaa;" horiz-adv-x="420" 
d="M290 421q-21 -8 -33.5 -12.5t-31.5 -10.5q-26 -8 -37.5 -18.5t-11.5 -26.5q0 -14 9.5 -22.5t23.5 -8.5q26 0 46 17t26 43zM455 362q-10 -54 -34 -79t-67 -25q-32 0 -52.5 13.5t-26.5 39.5q-27 -28 -54 -40.5t-59 -12.5q-42 0 -69 23.5t-27 59.5q0 26 15 48.5t41 33.5
q10 4 16.5 6.5t16.5 4.5t25.5 4t42.5 5q46 5 64 13.5t18 25.5q0 16 -16 25.5t-42 9.5q-27 0 -49 -13q4 -5 5 -8.5t1 -8.5q0 -14 -12.5 -23t-32.5 -9t-33 10t-13 26q0 29 37 45t100 16q71 0 111.5 -21t40.5 -56q0 -14 -3 -27l-24 -100q-1 -5 -1.5 -9.5t-0.5 -9.5
q0 -18 14 -18q21 0 28 51h40z" />
    <glyph glyph-name="guillemotleft" unicode="&#xab;" horiz-adv-x="512" 
d="M165 256l117 -115h-117l-117 115l117 114h117zM343 256l117 -115h-117l-116 115l116 114h117z" />
    <glyph glyph-name="logicalnot" unicode="&#xac;" 
d="M327 147h-270v147h433v-294h-163v147z" />
    <glyph glyph-name="uni00AD" unicode="&#xad;" horiz-adv-x="328" 
d="M285 196h-261l26 119h261z" />
    <glyph glyph-name="registered" unicode="&#xae;" horiz-adv-x="766" 
d="M412 638q-63 0 -118 -23.5t-95.5 -65t-64 -97t-23.5 -119.5q0 -63 23.5 -118t64 -96.5t94 -65.5t114.5 -24t115 24t94.5 65t63.5 96.5t23 118.5t-23 118.5t-63 97t-92.5 65.5t-112.5 24zM412 681q70 0 132 -27.5t108.5 -75t73.5 -111t27 -134.5q0 -72 -27 -135t-74 -110
t-110 -74.5t-134 -27.5q-72 0 -135 27.5t-110 74.5t-74.5 110t-27.5 135q0 73 27.5 136.5t74.5 110.5t111 74t138 27zM401 356q79 0 79 58q0 49 -68 49h-79v-107h68zM627 262q0 -17 -0.5 -29t-2.5 -20.5t-5 -14.5t-7 -12q-9 -14 -26 -21t-37 -7q-46 0 -62 27q-5 10 -7.5 21
t-4.5 40q-2 24 -5 38.5t-10.5 22.5t-20.5 10.5t-34 2.5h-72v-54q0 -37 11.5 -51.5t40.5 -16.5h13v-34h-208v34h9q29 2 41 15.5t12 43.5v147q0 30 -12.5 43.5t-41.5 15.5h-12v34h276q31 0 48.5 -4t30.5 -15q26 -21 26 -59q0 -60 -84 -79q36 -5 52.5 -24t17.5 -55q2 -35 6 -46
t15 -11t14.5 10.5t3.5 47.5h35z" />
    <glyph glyph-name="macron" unicode="&#xaf;" 
d="M527 581h-403l17 76h402z" />
    <glyph glyph-name="degree" unicode="&#xb0;" 
d="M272 611q-19 0 -36 -8t-30 -21.5t-20.5 -31t-7.5 -37.5t7.5 -38t20.5 -31.5t30 -21t37 -7.5q19 0 36.5 7.5t31 21t21 30.5t7.5 37q0 21 -7.5 39t-20.5 31.5t-31 21.5t-38 8zM274 674q34 0 63 -12.5t50.5 -34.5t34 -52t12.5 -64q0 -33 -12.5 -61.5t-34.5 -50.5t-51 -34.5
t-62 -12.5t-62.5 12.5t-51.5 34.5t-34.5 51t-12.5 62q0 34 12.5 63.5t34.5 51.5t51.5 34.5t62.5 12.5z" />
    <glyph glyph-name="plusminus" unicode="&#xb1;" 
d="M517 93v-78h-486v78h486zM233 404v201h81v-201h202v-78h-202v-193h-81v193h-202v78h202z" />
    <glyph glyph-name="uni00B2" unicode="&#xb2;" horiz-adv-x="409" 
d="M352 248h-302q7 31 17.5 55t27.5 43t42 35.5t61 33.5q31 15 51.5 27.5t32.5 25t17 26t5 30.5q0 29 -18 47.5t-47 18.5q-28 0 -49 -21q22 -14 22 -36q0 -19 -13.5 -32t-33.5 -13q-22 0 -36 14.5t-14 35.5q0 20 11 37t30 29.5t45.5 19.5t57.5 7q70 0 112 -29.5t42 -78.5
q0 -33 -20.5 -61.5t-58.5 -48.5q-11 -6 -18 -9.5t-17.5 -7t-27.5 -9t-48 -15.5q-66 -22 -86 -47h134q32 0 45.5 8t19.5 31h42z" />
    <glyph glyph-name="uni00B3" unicode="&#xb3;" horiz-adv-x="409" 
d="M208 462q98 5 98 67q0 27 -19 45t-48 18q-30 0 -49 -22q25 -13 25 -38q0 -17 -13 -28.5t-33 -11.5t-34.5 13.5t-14.5 32.5t10.5 36t28.5 30t43 20t54 7q67 0 109 -28t42 -73q0 -24 -13.5 -44.5t-35.5 -28.5q-11 -4 -21.5 -6.5t-30.5 -6.5q77 -23 77 -86q0 -27 -13 -49
t-37 -38t-57.5 -25t-73.5 -9q-61 0 -100 24t-39 61q0 21 14.5 35t36.5 14q20 0 33.5 -12t13.5 -30q0 -11 -4.5 -18t-15.5 -17q18 -17 46 -17q18 0 33.5 7t27 18.5t18.5 27t7 32.5q0 59 -74 63z" />
    <glyph glyph-name="acute" unicode="&#xb4;" 
d="M355 543h-89l76 148h153z" />
    <glyph glyph-name="mu" unicode="&#xb5;" 
d="M50 480h141v-246q0 -35 3 -52.5t12 -31.5q24 -41 68 -41q82 0 82 127v244h141v-480h-141v61q-26 -70 -84 -70q-27 0 -45.5 13t-35.5 44v-219h-141v651z" />
    <glyph glyph-name="paragraph" unicode="&#xb6;" horiz-adv-x="635" 
d="M272 321q-78 -1 -119 32.5t-41 96.5q0 46 21.5 91t57.5 74q18 14 37 24t41.5 16t50.5 9t63 3h260l-14 -61h-50l-160 -719h-79l159 719h-85l-159 -719h-79z" />
    <glyph glyph-name="periodcentered" unicode="&#xb7;" horiz-adv-x="257" 
d="M136 364q19 0 36 -7.5t29.5 -20.5t20 -30.5t7.5 -36.5q0 -20 -7.5 -37t-20.5 -30t-30.5 -20.5t-36.5 -7.5q-20 0 -37 7.5t-30 20.5t-20.5 30t-7.5 36q0 41 28 68.5t69 27.5z" />
    <glyph glyph-name="cedilla" unicode="&#xb8;" 
d="M210 0l-42 -66q26 0 40.5 -1.5t28.5 -5.5q28 -8 44.5 -29.5t16.5 -48.5q0 -42 -33.5 -66.5t-90.5 -24.5q-43 0 -84.5 14t-70.5 37l19 29q21 -9 36 -15t26.5 -9.5t21.5 -5t21 -1.5q24 0 39.5 12t15.5 31q0 24 -29.5 39t-76.5 15q-6 0 -11 -1l64 97h65z" />
    <glyph glyph-name="uni00B9" unicode="&#xb9;" horiz-adv-x="409" 
d="M286 341q-1 -5 -1.5 -10.5t-0.5 -10.5q0 -29 42 -29h13l-10 -43h-225l10 43h14q24 0 36.5 12t18.5 41l27 123q5 22 5 34q0 14 -11 22.5t-29 8.5h-21l11 43h16q64 0 99 45h68z" />
    <glyph glyph-name="ordmasculine" unicode="&#xba;" horiz-adv-x="368" 
d="M247 509q-17 0 -31.5 -11t-25.5 -30.5t-17 -46t-6 -56.5q0 -64 40 -64q16 0 31 12t26 32.5t18 47t7 55.5t-11 45t-31 16zM248 552q63 0 102 -34t39 -91q0 -37 -16 -71.5t-44 -58.5q-47 -39 -122 -39q-66 0 -104 34t-38 94q0 36 13.5 66.5t38 52.5t58 34.5t73.5 12.5z" />
    <glyph glyph-name="guillemotright" unicode="&#xbb;" horiz-adv-x="512" 
d="M342 370l117 -114l-117 -115h-116l117 115l-117 114h116zM164 370l117 -114l-117 -115h-117l117 115l-117 114h117z" />
    <glyph glyph-name="onequarter" unicode="&#xbc;" horiz-adv-x="926" 
d="M732 263l-137 -122h109zM804 141h68l-12 -43h-67l-3 -19q-1 -2 -1 -6q0 -30 48 -30h13l-11 -43h-235l14 43h15q31 0 42.5 10.5t18.5 44.5h-173l8 41l266 233h63zM295 -7l-53 37l419 600l54 -37zM286 341q-1 -5 -1.5 -10.5t-0.5 -10.5q0 -29 42 -29h13l-10 -43h-225l10 43
h14q24 0 36.5 12t18.5 41l27 123q5 22 5 34q0 14 -11 22.5t-29 8.5h-21l11 43h16q64 0 99 45h68z" />
    <glyph glyph-name="onehalf" unicode="&#xbd;" horiz-adv-x="926" 
d="M813 0h-302q7 31 17.5 55t27.5 43t42 35.5t61 33.5q31 15 51.5 27.5t32.5 25t17 26t5 30.5q0 29 -18 47.5t-46 18.5q-29 0 -50 -21q22 -14 22 -36q0 -19 -13.5 -32t-33.5 -13q-22 0 -36 14.5t-14 35.5q0 20 11 37t30 29.5t45.5 19.5t57.5 7q70 0 112 -29.5t42 -78.5
q0 -33 -20.5 -61.5t-58.5 -48.5q-11 -6 -18 -9.5t-17.5 -7t-27.5 -9t-48 -15.5q-66 -22 -86 -47h134q32 0 45.5 8t19.5 31h42zM295 -7l-53 37l419 600l54 -37zM286 341q-1 -5 -1.5 -10.5t-0.5 -10.5q0 -29 42 -29h13l-10 -43h-225l10 43h14q24 0 36.5 12t18.5 41l27 123
q5 22 5 34q0 14 -11 22.5t-29 8.5h-21l11 43h16q64 0 99 45h68z" />
    <glyph glyph-name="threequarters" unicode="&#xbe;" horiz-adv-x="926" 
d="M732 263l-137 -122h109zM803 141h69l-12 -43h-67l-3 -19q-1 -2 -1 -6q0 -30 48 -30h13l-11 -43h-235l14 43h15q31 0 42.5 10.5t18.5 44.5h-173l8 41l266 233h63zM295 -7l-53 37l419 600l54 -37zM208 462q98 5 98 67q0 27 -19 45t-48 18q-30 0 -49 -22q25 -13 25 -38
q0 -17 -13 -28.5t-33 -11.5t-34.5 13.5t-14.5 32.5t10.5 36t28.5 30t43 20t54 7q67 0 109 -28t42 -73q0 -24 -13.5 -44.5t-35.5 -28.5q-11 -4 -21.5 -6.5t-30.5 -6.5q77 -23 77 -86q0 -27 -13 -49t-37 -38t-57.5 -25t-73.5 -9q-61 0 -100 24t-39 61q0 21 14.5 35t36.5 14
q20 0 33.5 -12t13.5 -30q0 -11 -4.5 -18t-15.5 -17q18 -17 46 -17q18 0 33.5 7t27 18.5t18.5 27t7 32.5q0 59 -74 63z" />
    <glyph glyph-name="questiondown" unicode="&#xbf;" horiz-adv-x="556" 
d="M291 472q35 0 59.5 -24t24.5 -59t-24.5 -59.5t-60.5 -24.5q-34 0 -58 24.5t-24 59.5q0 34 24.5 58.5t58.5 24.5zM308 257l-23 -83q-5 -16 -9 -27t-9.5 -20t-14 -18t-21.5 -21q-23 -21 -38 -36.5t-23.5 -28.5t-11.5 -25.5t-3 -27.5q0 -40 26 -66t67 -26q24 0 42 9t35 30
q-36 22 -36 56q0 28 22.5 48t53.5 20q32 0 53.5 -23t21.5 -58q0 -30 -16.5 -56t-46 -45t-69.5 -29.5t-87 -10.5q-102 0 -160.5 42.5t-58.5 116.5q0 35 17 67.5t46 54.5q9 6 14.5 10t15 9t26 12.5t45.5 21.5q32 16 48.5 40t22.5 64h71z" />
    <glyph glyph-name="Agrave" unicode="&#xc0;" horiz-adv-x="708" 
d="M517 858l12 -110h-103l-60 110h151zM385 507l-164 -252h201zM606 136q7 -40 22 -54.5t47 -14.5h18l-15 -67h-342l15 67h18q40 0 56 12t16 41v11l-8 57h-255l-30 -49q-17 -27 -17 -41t17.5 -22.5t46.5 -8.5h23l-15 -67h-268l15 67h7q23 0 46.5 14.5t39.5 38.5l361 547h110
z" />
    <glyph glyph-name="Aacute" unicode="&#xc1;" horiz-adv-x="708" 
d="M531 748h-103l59 110h150zM385 507l-164 -252h201zM606 136q7 -40 22 -54.5t47 -14.5h18l-15 -67h-342l15 67h18q40 0 56 12t16 41v11l-8 57h-255l-30 -49q-17 -27 -17 -41t17.5 -22.5t46.5 -8.5h23l-15 -67h-268l15 67h7q23 0 46.5 14.5t39.5 38.5l361 547h110z" />
    <glyph glyph-name="Acircumflex" unicode="&#xc2;" horiz-adv-x="708" 
d="M650 721l-172 72l-176 -72l-35 76l233 95l191 -82zM385 507l-164 -252h201zM606 136q7 -40 22 -54.5t47 -14.5h18l-15 -67h-342l15 67h18q40 0 56 12t16 41v11l-8 57h-255l-30 -49q-17 -27 -17 -41t17.5 -22.5t46.5 -8.5h23l-15 -67h-268l15 67h7q23 0 46.5 14.5
t39.5 38.5l361 547h110z" />
    <glyph glyph-name="Atilde" unicode="&#xc3;" horiz-adv-x="708" 
d="M666 800q-28 -31 -60 -45t-76 -14q-14 0 -24.5 1t-22.5 4t-29 9.5t-45 18.5q-14 6 -33 6q-25 0 -43 -15l-20 -17l-36 39l31 31q50 47 117 47q15 0 26 -1t23.5 -5t29.5 -11t43 -19q14 -7 33 -7q16 0 28 7t32 28l42 -39zM385 507l-164 -252h201zM606 136q7 -40 22 -54.5
t47 -14.5h18l-15 -67h-342l15 67h18q40 0 56 12t16 41v11l-8 57h-255l-30 -49q-17 -27 -17 -41t17.5 -22.5t46.5 -8.5h23l-15 -67h-268l15 67h7q23 0 46.5 14.5t39.5 38.5l361 547h110z" />
    <glyph glyph-name="Adieresis" unicode="&#xc4;" horiz-adv-x="708" 
d="M360 881q30 0 52 -22.5t22 -53.5q0 -32 -22 -54t-54 -22t-54 22t-22 53q0 32 22.5 54.5t55.5 22.5zM603 881q30 0 52 -22.5t22 -53.5q0 -32 -22 -54t-54 -22t-54 22t-22 53q0 32 22.5 54.5t55.5 22.5zM385 507l-164 -252h201zM606 136q7 -40 22 -54.5t47 -14.5h18
l-15 -67h-342l15 67h18q40 0 56 12t16 41v11l-8 57h-255l-30 -49q-17 -27 -17 -41t17.5 -22.5t46.5 -8.5h23l-15 -67h-268l15 67h7q23 0 46.5 14.5t39.5 38.5l361 547h110z" />
    <glyph glyph-name="Aring" unicode="&#xc5;" horiz-adv-x="708" 
d="M484 865q-21 0 -35 -14t-14 -35q0 -20 13.5 -33.5t33.5 -13.5t34 14t14 34t-13.5 34t-32.5 14zM484 921q21 0 39.5 -8t32.5 -22.5t22 -33.5t8 -40t-8 -40t-22 -33.5t-33 -22.5t-40 -8q-22 0 -41 8t-33 22.5t-22 33.5t-8 41q0 21 8 40t22.5 33t33.5 22t41 8zM385 507
l-164 -252h201zM606 136q7 -40 22 -54.5t47 -14.5h18l-15 -67h-342l15 67h18q40 0 56 12t16 41v11l-8 57h-255l-30 -49q-17 -27 -17 -41t17.5 -22.5t46.5 -8.5h23l-15 -67h-268l15 67h7q23 0 46.5 14.5t39.5 38.5l361 547h110z" />
    <glyph glyph-name="AE" unicode="&#xc6;" horiz-adv-x="1111" 
d="M276 260h254l71 317zM1097 442h-65q7 30 9 44t2 29q0 85 -127 85h-148l-49 -217h70q26 0 49.5 6t35.5 17t19 24t13 39h65l-58 -259h-65q2 11 3.5 23t1.5 18q0 65 -74 65h-74l-56 -249h114q42 0 73 4t54.5 13.5t41.5 24.5t33 38q11 17 18 33t14 42h65l-49 -222h-641l15 67
h15q85 0 105 87l8 36h-312l-42 -41q-22 -22 -22 -43q0 -17 18 -28t47 -11h29l-15 -67h-314l15 67q5 -1 8 -1h7q9 0 22.5 3t21.5 8q5 3 8.5 5t9.5 7t15.5 14.5t27.5 26.5l385 380q24 23 33 36t9 24q0 30 -58 30h-16l15 67h744z" />
    <glyph glyph-name="Ccedilla" unicode="&#xc7;" horiz-adv-x="731" 
d="M714 228q-37 -111 -109 -175t-175 -76l-35 -56q26 0 40.5 -1.5t28.5 -6.5q28 -8 44.5 -29.5t16.5 -48.5q0 -42 -33.5 -66.5t-90.5 -24.5q-43 0 -84.5 14t-70.5 38l20 29l13 -6q30 -14 50.5 -20t40.5 -6q24 0 39.5 12t15.5 31q0 24 -29.5 39.5t-75.5 15.5q-6 0 -11 -1
l55 84q-37 4 -65.5 9.5t-52 13.5t-43.5 20.5t-41 29.5q-53 43 -83 107t-30 133q0 44 10.5 88.5t30 86t47.5 78t63 65.5q104 86 245 86q45 0 88 -9.5t82 -29.5q24 -11 36.5 -15.5t21.5 -4.5q29 0 40 35h63l-45 -212h-63q-2 37 -7.5 58.5t-19.5 41.5q-23 31 -63 49t-85 18
q-137 0 -215 -148q-24 -48 -37.5 -102t-13.5 -105q0 -48 14 -88t39 -68t60.5 -43.5t79.5 -15.5q75 0 134 47t86 129h74z" />
    <glyph glyph-name="Egrave" unicode="&#xc8;" horiz-adv-x="745" 
d="M534 858l12 -110h-102l-60 110h150zM726 445h-67q5 25 6.5 39t1.5 28q0 47 -27.5 67.5t-90.5 20.5h-152l-49 -223h68q29 0 48.5 3.5t32 14t20.5 28t15 46.5h67l-59 -267h-67q2 14 3.5 25.5t1.5 22.5q0 28 -18 44.5t-47 16.5h-80l-54 -244h102.5t57.5 1t33 3.5t28 6.5
q48 14 82 51.5t46 89.5h67l-49 -219h-645l15 67h15q85 0 105 87l80 362q3 11 4.5 21t1.5 15q0 26 -21 37t-69 11h-14l15 67h642z" />
    <glyph glyph-name="Eacute" unicode="&#xc9;" horiz-adv-x="745" 
d="M528 748h-102l58 110h151zM726 445h-67q5 25 6.5 39t1.5 28q0 47 -27.5 67.5t-90.5 20.5h-152l-49 -223h68q29 0 48.5 3.5t32 14t20.5 28t15 46.5h67l-59 -267h-67q2 14 3.5 25.5t1.5 22.5q0 28 -18 44.5t-47 16.5h-80l-54 -244h102.5t57.5 1t33 3.5t28 6.5
q48 14 82 51.5t46 89.5h67l-49 -219h-645l15 67h15q85 0 105 87l80 362q3 11 4.5 21t1.5 15q0 26 -21 37t-69 11h-14l15 67h642z" />
    <glyph glyph-name="Ecircumflex" unicode="&#xca;" horiz-adv-x="745" 
d="M668 721l-172 72l-176 -72l-35 76l233 95l191 -82zM726 445h-67q5 25 6.5 39t1.5 28q0 47 -27.5 67.5t-90.5 20.5h-152l-49 -223h68q29 0 48.5 3.5t32 14t20.5 28t15 46.5h67l-59 -267h-67q2 14 3.5 25.5t1.5 22.5q0 28 -18 44.5t-47 16.5h-80l-54 -244h102.5t57.5 1
t33 3.5t28 6.5q48 14 82 51.5t46 89.5h67l-49 -219h-645l15 67h15q85 0 105 87l80 362q3 11 4.5 21t1.5 15q0 26 -21 37t-69 11h-14l15 67h642z" />
    <glyph glyph-name="Edieresis" unicode="&#xcb;" horiz-adv-x="745" 
d="M378 881q30 0 52 -22.5t22 -53.5q0 -32 -22 -54t-54 -22t-54 22t-22 53q0 32 22.5 54.5t55.5 22.5zM621 881q30 0 52 -22.5t22 -53.5q0 -32 -22 -54t-54 -22t-54 22t-22 53q0 32 22.5 54.5t55.5 22.5zM726 445h-67q5 25 6.5 39t1.5 28q0 47 -27.5 67.5t-90.5 20.5h-152
l-49 -223h68q29 0 48.5 3.5t32 14t20.5 28t15 46.5h67l-59 -267h-67q2 14 3.5 25.5t1.5 22.5q0 28 -18 44.5t-47 16.5h-80l-54 -244h102.5t57.5 1t33 3.5t28 6.5q48 14 82 51.5t46 89.5h67l-49 -219h-645l15 67h15q85 0 105 87l80 362q3 11 4.5 21t1.5 15q0 26 -21 37
t-69 11h-14l15 67h642z" />
    <glyph glyph-name="Igrave" unicode="&#xcc;" horiz-adv-x="473" 
d="M398 858l12 -110h-102l-60 110h150zM381 0h-380l15 67h15q85 0 105 87l80 362q3 11 4.5 21t1.5 15q0 26 -21 37t-69 11h-14l15 67h379l-14 -67h-16q-86 0 -104 -87l-81 -362q-5 -25 -5 -36q0 -26 21 -37t69 -11h14z" />
    <glyph glyph-name="Iacute" unicode="&#xcd;" horiz-adv-x="473" 
d="M392 748h-102l58 110h151zM381 0h-380l15 67h15q85 0 105 87l80 362q3 11 4.5 21t1.5 15q0 26 -21 37t-69 11h-14l15 67h379l-14 -67h-16q-86 0 -104 -87l-81 -362q-5 -25 -5 -36q0 -26 21 -37t69 -11h14z" />
    <glyph glyph-name="Icircumflex" unicode="&#xce;" horiz-adv-x="473" 
d="M532 721l-172 72l-176 -72l-35 76l232 95l192 -82zM381 0h-380l15 67h15q85 0 105 87l80 362q3 11 4.5 21t1.5 15q0 26 -21 37t-69 11h-14l15 67h379l-14 -67h-16q-86 0 -104 -87l-81 -362q-5 -25 -5 -36q0 -26 21 -37t69 -11h14z" />
    <glyph glyph-name="Idieresis" unicode="&#xcf;" horiz-adv-x="473" 
d="M260 869q26 0 44.5 -19.5t18.5 -45.5q0 -27 -19 -46t-46 -19t-46 19t-19 45q0 28 19 47t48 19zM467 869q26 0 44.5 -19.5t18.5 -45.5q0 -27 -19 -46t-46 -19t-46 19t-19 45q0 28 19 47t48 19zM381 0h-380l15 67h15q85 0 105 87l80 362q3 11 4.5 21t1.5 15q0 26 -21 37
t-69 11h-14l15 67h379l-14 -67h-16q-86 0 -104 -87l-81 -362q-5 -25 -5 -36q0 -26 21 -37t69 -11h14z" />
    <glyph glyph-name="Eth" unicode="&#xd0;" horiz-adv-x="834" 
d="M329 375h153l-14 -63h-153l-51 -240h77q45 0 80 4.5t62 14t48.5 25t39.5 38.5q19 23 34 53t26 64t17 69.5t6 70.5q0 55 -20 97.5t-57 66.5q-25 16 -59 23t-86 7h-54zM1 72h13q85 0 104 87l36 153h-105l14 63h104l31 146q5 23 5 36q0 31 -28 42q-9 4 -18.5 5t-38.5 1h-16
l16 67h360q344 0 344 -287q0 -84 -29 -155.5t-84 -124.5t-121 -76.5t-159 -23.5h-443z" />
    <glyph glyph-name="Ntilde" unicode="&#xd1;" horiz-adv-x="868" 
d="M744 800q-27 -31 -59 -45t-76 -14q-15 0 -25 1t-22 4t-29 9.5t-45 18.5q-15 6 -33 6q-25 0 -43 -15l-20 -17l-37 39l32 31q26 24 54 35.5t63 11.5q15 0 26 -1t23.5 -5t29.5 -11t43 -19q14 -7 33 -7q16 0 28 7t32 28l42 -39zM558 0l-274 506l-79 -355q-5 -23 -5 -36
q0 -26 20.5 -37t68.5 -11h14l-15 -67h-292l15 67h15q85 0 105 87l80 362q3 11 4.5 21t1.5 15q0 26 -21 37t-69 11h-14l15 67h242l274 -499l77 348q5 23 5 36q0 26 -21 37t-68 11h-14l14 67h294l-15 -67h-15q-86 0 -105 -87l-113 -513h-125z" />
    <glyph glyph-name="Ograve" unicode="&#xd2;" horiz-adv-x="833" 
d="M579 858l12 -110h-103l-60 110h151zM476 629q-119 0 -184 -128q-13 -25 -24.5 -58.5t-20 -70.5t-13.5 -73.5t-5 -67.5q0 -44 11.5 -79.5t33.5 -61t52 -39t68 -13.5q60 0 108 35t81 102q13 27 24 60.5t19 69t12.5 71t4.5 66.5q0 89 -43.5 138t-123.5 49zM476 691
q76 0 139 -23t108.5 -65t70.5 -100t25 -128q0 -71 -28 -142.5t-77 -125.5q-59 -64 -140 -97.5t-178 -33.5q-78 0 -141.5 22.5t-108.5 63.5t-69.5 98.5t-24.5 128.5q0 89 38.5 171t105.5 137q59 48 127 71t153 23z" />
    <glyph glyph-name="Oacute" unicode="&#xd3;" horiz-adv-x="833" 
d="M573 748h-103l59 110h150zM476 629q-119 0 -184 -128q-13 -25 -24.5 -58.5t-20 -70.5t-13.5 -73.5t-5 -67.5q0 -44 11.5 -79.5t33.5 -61t52 -39t68 -13.5q60 0 108 35t81 102q13 27 24 60.5t19 69t12.5 71t4.5 66.5q0 89 -43.5 138t-123.5 49zM476 691q76 0 139 -23
t108.5 -65t70.5 -100t25 -128q0 -71 -28 -142.5t-77 -125.5q-59 -64 -140 -97.5t-178 -33.5q-78 0 -141.5 22.5t-108.5 63.5t-69.5 98.5t-24.5 128.5q0 89 38.5 171t105.5 137q59 48 127 71t153 23z" />
    <glyph glyph-name="Ocircumflex" unicode="&#xd4;" horiz-adv-x="833" 
d="M712 721l-172 72l-175 -72l-36 76l233 95l192 -82zM476 629q-119 0 -184 -128q-13 -25 -24.5 -58.5t-20 -70.5t-13.5 -73.5t-5 -67.5q0 -44 11.5 -79.5t33.5 -61t52 -39t68 -13.5q60 0 108 35t81 102q13 27 24 60.5t19 69t12.5 71t4.5 66.5q0 89 -43.5 138t-123.5 49z
M476 691q76 0 139 -23t108.5 -65t70.5 -100t25 -128q0 -71 -28 -142.5t-77 -125.5q-59 -64 -140 -97.5t-178 -33.5q-78 0 -141.5 22.5t-108.5 63.5t-69.5 98.5t-24.5 128.5q0 89 38.5 171t105.5 137q59 48 127 71t153 23z" />
    <glyph glyph-name="Otilde" unicode="&#xd5;" horiz-adv-x="833" 
d="M728 800q-28 -31 -59.5 -45t-76.5 -14q-14 0 -24.5 1t-22.5 4t-29 9.5t-45 18.5q-14 6 -33 6q-23 0 -43 -15l-19 -17l-37 39l31 31q50 47 117 47q15 0 26 -1t23.5 -5t29.5 -11t43 -19q14 -7 33 -7q16 0 28 7t33 28l41 -39zM476 629q-119 0 -184 -128q-13 -25 -24.5 -58.5
t-20 -70.5t-13.5 -73.5t-5 -67.5q0 -44 11.5 -79.5t33.5 -61t52 -39t68 -13.5q60 0 108 35t81 102q13 27 24 60.5t19 69t12.5 71t4.5 66.5q0 89 -43.5 138t-123.5 49zM476 691q76 0 139 -23t108.5 -65t70.5 -100t25 -128q0 -71 -28 -142.5t-77 -125.5q-59 -64 -140 -97.5
t-178 -33.5q-78 0 -141.5 22.5t-108.5 63.5t-69.5 98.5t-24.5 128.5q0 89 38.5 171t105.5 137q59 48 127 71t153 23z" />
    <glyph glyph-name="Odieresis" unicode="&#xd6;" horiz-adv-x="833" 
d="M422 881q30 0 52 -22.5t22 -53.5q0 -32 -22 -54t-54 -22t-54 22t-22 53q0 32 22.5 54.5t55.5 22.5zM665 881q30 0 52 -22.5t22 -53.5q0 -32 -22 -54t-54 -22t-54 22t-22 53q0 32 22.5 54.5t55.5 22.5zM476 629q-119 0 -184 -128q-13 -25 -24.5 -58.5t-20 -70.5
t-13.5 -73.5t-5 -67.5q0 -44 11.5 -79.5t33.5 -61t52 -39t68 -13.5q60 0 108 35t81 102q13 27 24 60.5t19 69t12.5 71t4.5 66.5q0 89 -43.5 138t-123.5 49zM476 691q76 0 139 -23t108.5 -65t70.5 -100t25 -128q0 -71 -28 -142.5t-77 -125.5q-59 -64 -140 -97.5t-178 -33.5
q-78 0 -141.5 22.5t-108.5 63.5t-69.5 98.5t-24.5 128.5q0 89 38.5 171t105.5 137q59 48 127 71t153 23z" />
    <glyph glyph-name="multiply" unicode="&#xd7;" 
d="M272 417l149 150l57 -57l-150 -149l149 -147l-55 -55l-148 149l-148 -150l-57 57l150 148l-148 147l55 55z" />
    <glyph glyph-name="Oslash" unicode="&#xd8;" horiz-adv-x="831" 
d="M620 550q-26 42 -60 60.5t-85 18.5q-135 0 -200 -164q-21 -54 -32.5 -113t-11.5 -114q0 -11 0.5 -22t2.5 -31zM256 120q29 -43 63.5 -63.5t82.5 -20.5q69 0 120.5 45.5t81.5 131.5q18 53 28.5 110.5t10.5 108.5q0 14 -1 24.5t-3 27.5zM742 582q41 -49 60 -100.5
t19 -112.5q0 -70 -27 -140t-75 -124q-57 -64 -138 -97t-181 -33q-71 0 -124.5 16t-101.5 51l-75 -71l-42 45l73 70q-75 81 -75 206q0 86 31 159t86.5 126t131.5 83t166 30q138 0 226 -67l75 72l42 -47z" />
    <glyph glyph-name="Ugrave" unicode="&#xd9;" horiz-adv-x="855" 
d="M622 858l12 -110h-102l-60 110h150zM126 667h366l-15 -67h-15q-86 0 -105 -87l-60 -270q-8 -35 -8 -63q0 -56 41.5 -89t112.5 -33q80 0 132.5 52t75.5 155l58 261q3 12 3 22q0 25 -16.5 38.5t-46.5 13.5h-27l16 67h279l-14 -67h-16q-86 0 -105 -87l-67 -302
q-10 -46 -31 -87t-49 -68q-40 -38 -101.5 -59t-133.5 -21q-66 0 -123 18.5t-94 51.5q-58 52 -58 136q0 15 3 38t8 45l58 261q1 5 1.5 10t0.5 10q0 54 -59 54h-26z" />
    <glyph glyph-name="Uacute" unicode="&#xda;" horiz-adv-x="855" 
d="M623 748h-103l59 110h151zM126 667h366l-15 -67h-15q-86 0 -105 -87l-60 -270q-8 -35 -8 -63q0 -56 41.5 -89t112.5 -33q80 0 132.5 52t75.5 155l58 261q3 12 3 22q0 25 -16.5 38.5t-46.5 13.5h-27l16 67h279l-14 -67h-16q-86 0 -105 -87l-67 -302q-10 -46 -31 -87
t-49 -68q-40 -38 -101.5 -59t-133.5 -21q-66 0 -123 18.5t-94 51.5q-58 52 -58 136q0 15 3 38t8 45l58 261q1 5 1.5 10t0.5 10q0 54 -59 54h-26z" />
    <glyph glyph-name="Ucircumflex" unicode="&#xdb;" horiz-adv-x="855" 
d="M756 721l-172 72l-176 -72l-35 76l233 95l191 -82zM126 667h366l-15 -67h-15q-86 0 -105 -87l-60 -270q-8 -35 -8 -63q0 -56 41.5 -89t112.5 -33q80 0 132.5 52t75.5 155l58 261q3 12 3 22q0 25 -16.5 38.5t-46.5 13.5h-27l16 67h279l-14 -67h-16q-86 0 -105 -87
l-67 -302q-10 -46 -31 -87t-49 -68q-40 -38 -101.5 -59t-133.5 -21q-66 0 -123 18.5t-94 51.5q-58 52 -58 136q0 15 3 38t8 45l58 261q1 5 1.5 10t0.5 10q0 54 -59 54h-26z" />
    <glyph glyph-name="Udieresis" unicode="&#xdc;" horiz-adv-x="855" 
d="M433 881q30 0 52 -22.5t22 -53.5q0 -32 -22 -54t-54 -22t-54 22t-22 53q0 32 22.5 54.5t55.5 22.5zM676 881q30 0 52 -22.5t22 -53.5q0 -32 -22 -54t-54 -22t-54 22t-22 53q0 32 22.5 54.5t55.5 22.5zM126 667h366l-15 -67h-15q-86 0 -105 -87l-60 -270q-8 -35 -8 -63
q0 -56 41.5 -89t112.5 -33q80 0 132.5 52t75.5 155l58 261q3 12 3 22q0 25 -16.5 38.5t-46.5 13.5h-27l16 67h279l-14 -67h-16q-86 0 -105 -87l-67 -302q-10 -46 -31 -87t-49 -68q-40 -38 -101.5 -59t-133.5 -21q-66 0 -123 18.5t-94 51.5q-58 52 -58 136q0 15 3 38t8 45
l58 261q1 5 1.5 10t0.5 10q0 54 -59 54h-26z" />
    <glyph glyph-name="Yacute" unicode="&#xdd;" horiz-adv-x="635" 
d="M540 748h-102l58 110h151zM731 595h-20q-27 0 -47.5 -15t-43.5 -50l-174 -269l-25 -110q-5 -25 -5 -36q0 -26 21 -37t69 -11h14l-15 -67h-396l15 67h23q47 0 73 21t36 66l24 107l-109 252q-20 46 -40 64t-52 18h-23l15 66h350l-15 -66h-18q-25 0 -39.5 -12.5t-14.5 -34.5
q0 -19 10 -39l71 -158l106 162q11 17 16 29t5 22q0 31 -44 31h-20l15 66h253z" />
    <glyph glyph-name="Thorn" unicode="&#xde;" horiz-adv-x="727" 
d="M308 199h53q45 0 74.5 6.5t50.5 22.5q30 21 48.5 60t18.5 81q0 26 -9 48.5t-26 37.5q-28 25 -82 25h-66zM482 547q117 0 177 -45.5t60 -135.5q0 -55 -26 -103.5t-73 -80.5q-19 -14 -39.5 -23t-45.5 -14.5t-56 -8.5t-71 -3h-114q-1 -5 -1.5 -10t-0.5 -8q0 -26 21 -37
t69 -11h14l-15 -67h-380l15 67h15q85 0 105 87l80 362q3 11 4.5 21t1.5 15q0 26 -21 37t-69 11h-14l15 67h379l-14 -67h-16q-35 0 -56.5 -12.5t-35.5 -40.5h92z" />
    <glyph glyph-name="germandbls" unicode="&#xdf;" horiz-adv-x="713" 
d="M151 457q5 32 10.5 55.5t12 41.5t14.5 31.5t19 25.5q29 33 82.5 51.5t120.5 18.5q51 0 93.5 -11t73.5 -30t48.5 -46t17.5 -58q0 -21 -9 -40t-25 -32q-8 -7 -16.5 -12t-19.5 -9.5t-25.5 -8t-33.5 -7.5q43 -12 64.5 -21t38.5 -22q64 -47 64 -155q0 -55 -17 -100
t-47.5 -76.5t-74 -49t-96.5 -17.5q-72 0 -113 35t-41 98q0 17 2 33t8 42h56q-3 -20 -4.5 -32.5t-1.5 -21.5q0 -33 16.5 -51t45.5 -18q15 0 30 6t25 17q27 28 42.5 73t15.5 95q0 42 -16.5 75t-44.5 47q-15 8 -32.5 11t-53.5 5l13 57q20 0 30 1.5t21 6.5q53 24 53 80
q0 35 -20.5 56.5t-52.5 21.5q-19 0 -37.5 -8t-31.5 -22q-15 -16 -25 -41t-21 -75l-144 -653h-154l107 482q5 25 5 42q0 29 -15.5 39.5t-61.5 12.5l13 57h92z" />
    <glyph glyph-name="agrave" unicode="&#xe0;" horiz-adv-x="649" 
d="M411 543h-88l-75 148h153zM400 265q-19 -8 -33 -13.5t-26.5 -10l-25 -9t-29.5 -9.5q-46 -15 -66 -35t-20 -49q0 -25 16 -40.5t42 -15.5q45 0 79.5 29.5t45.5 76.5zM648 150q-15 -85 -52.5 -124.5t-103.5 -39.5q-33 0 -59.5 11.5t-42.5 32.5q-8 11 -12.5 22t-8.5 30
q-47 -51 -90 -73.5t-95 -22.5q-33 0 -60 10t-47 28t-31 42.5t-11 54.5q0 42 24 78.5t63 54.5q16 7 27 11t26.5 7t40 6t67.5 8q38 5 70 12t44 15q27 17 27 48q0 27 -27.5 44.5t-70.5 17.5q-27 0 -47.5 -6t-41.5 -20q6 -10 8.5 -16.5t2.5 -14.5q0 -21 -18 -34.5t-47 -13.5
q-32 0 -50.5 15t-18.5 41q0 45 57.5 71t157.5 26q109 0 173.5 -33t64.5 -90q0 -21 -6 -48l-40 -169q-4 -15 -4 -33q0 -34 27 -34q38 0 53 86h51z" />
    <glyph glyph-name="aacute" unicode="&#xe1;" horiz-adv-x="649" 
d="M403 543h-89l76 148h153zM400 265q-19 -8 -33 -13.5t-26.5 -10l-25 -9t-29.5 -9.5q-46 -15 -66 -35t-20 -49q0 -25 16 -40.5t42 -15.5q45 0 79.5 29.5t45.5 76.5zM648 150q-15 -85 -52.5 -124.5t-103.5 -39.5q-33 0 -59.5 11.5t-42.5 32.5q-8 11 -12.5 22t-8.5 30
q-47 -51 -90 -73.5t-95 -22.5q-33 0 -60 10t-47 28t-31 42.5t-11 54.5q0 42 24 78.5t63 54.5q16 7 27 11t26.5 7t40 6t67.5 8q38 5 70 12t44 15q27 17 27 48q0 27 -27.5 44.5t-70.5 17.5q-27 0 -47.5 -6t-41.5 -20q6 -10 8.5 -16.5t2.5 -14.5q0 -21 -18 -34.5t-47 -13.5
q-32 0 -50.5 15t-18.5 41q0 45 57.5 71t157.5 26q109 0 173.5 -33t64.5 -90q0 -21 -6 -48l-40 -169q-4 -15 -4 -33q0 -34 27 -34q38 0 53 86h51z" />
    <glyph glyph-name="acircumflex" unicode="&#xe2;" horiz-adv-x="649" 
d="M522 526l-141 86l-162 -86l-44 58l226 121l176 -106zM400 265q-19 -8 -33 -13.5t-26.5 -10l-25 -9t-29.5 -9.5q-46 -15 -66 -35t-20 -49q0 -25 16 -40.5t42 -15.5q45 0 79.5 29.5t45.5 76.5zM648 150q-15 -85 -52.5 -124.5t-103.5 -39.5q-33 0 -59.5 11.5t-42.5 32.5
q-8 11 -12.5 22t-8.5 30q-47 -51 -90 -73.5t-95 -22.5q-33 0 -60 10t-47 28t-31 42.5t-11 54.5q0 42 24 78.5t63 54.5q16 7 27 11t26.5 7t40 6t67.5 8q38 5 70 12t44 15q27 17 27 48q0 27 -27.5 44.5t-70.5 17.5q-27 0 -47.5 -6t-41.5 -20q6 -10 8.5 -16.5t2.5 -14.5
q0 -21 -18 -34.5t-47 -13.5q-32 0 -50.5 15t-18.5 41q0 45 57.5 71t157.5 26q109 0 173.5 -33t64.5 -90q0 -21 -6 -48l-40 -169q-4 -15 -4 -33q0 -34 27 -34q38 0 53 86h51z" />
    <glyph glyph-name="atilde" unicode="&#xe3;" horiz-adv-x="649" 
d="M586 646q-26 -27 -45.5 -45.5t-36.5 -29.5t-32 -16t-30 -5q-33 0 -80 22q-18 8 -29 12.5t-19 7t-14.5 3t-14.5 0.5q-20 0 -32 -7t-29 -29l-45 38l17 20q34 40 64 58.5t60 18.5q37 0 79 -19q19 -8 31 -13t21 -7.5t15 -3.5t13 -1q20 0 34.5 7t31.5 25zM400 265
q-19 -8 -33 -13.5t-26.5 -10l-25 -9t-29.5 -9.5q-46 -15 -66 -35t-20 -49q0 -25 16 -40.5t42 -15.5q45 0 79.5 29.5t45.5 76.5zM648 150q-15 -85 -52.5 -124.5t-103.5 -39.5q-33 0 -59.5 11.5t-42.5 32.5q-8 11 -12.5 22t-8.5 30q-47 -51 -90 -73.5t-95 -22.5q-33 0 -60 10
t-47 28t-31 42.5t-11 54.5q0 42 24 78.5t63 54.5q16 7 27 11t26.5 7t40 6t67.5 8q38 5 70 12t44 15q27 17 27 48q0 27 -27.5 44.5t-70.5 17.5q-27 0 -47.5 -6t-41.5 -20q6 -10 8.5 -16.5t2.5 -14.5q0 -21 -18 -34.5t-47 -13.5q-32 0 -50.5 15t-18.5 41q0 45 57.5 71
t157.5 26q109 0 173.5 -33t64.5 -90q0 -21 -6 -48l-40 -169q-4 -15 -4 -33q0 -34 27 -34q38 0 53 86h51z" />
    <glyph glyph-name="adieresis" unicode="&#xe4;" horiz-adv-x="649" 
d="M263 697q30 0 52 -22.5t22 -53.5q0 -32 -22 -54t-54 -22t-54 22t-22 53q0 33 22.5 55t55.5 22zM506 697q30 0 52 -22.5t22 -53.5q0 -32 -22 -54t-54 -22t-54 22t-22 53q0 33 22.5 55t55.5 22zM400 265q-19 -8 -33 -13.5t-26.5 -10l-25 -9t-29.5 -9.5q-46 -15 -66 -35
t-20 -49q0 -25 16 -40.5t42 -15.5q45 0 79.5 29.5t45.5 76.5zM648 150q-15 -85 -52.5 -124.5t-103.5 -39.5q-33 0 -59.5 11.5t-42.5 32.5q-8 11 -12.5 22t-8.5 30q-47 -51 -90 -73.5t-95 -22.5q-33 0 -60 10t-47 28t-31 42.5t-11 54.5q0 42 24 78.5t63 54.5q16 7 27 11
t26.5 7t40 6t67.5 8q38 5 70 12t44 15q27 17 27 48q0 27 -27.5 44.5t-70.5 17.5q-27 0 -47.5 -6t-41.5 -20q6 -10 8.5 -16.5t2.5 -14.5q0 -21 -18 -34.5t-47 -13.5q-32 0 -50.5 15t-18.5 41q0 45 57.5 71t157.5 26q109 0 173.5 -33t64.5 -90q0 -21 -6 -48l-40 -169
q-4 -15 -4 -33q0 -34 27 -34q38 0 53 86h51z" />
    <glyph glyph-name="aring" unicode="&#xe5;" horiz-adv-x="649" 
d="M385 673q-21 0 -35 -14t-14 -34t13.5 -33.5t33.5 -13.5t34 13.5t14 33.5t-13.5 34t-32.5 14zM385 729q21 0 39.5 -8t32.5 -22.5t22 -33t8 -39.5q0 -22 -8 -41t-22 -33t-33 -22t-40 -8q-44 0 -74 30t-30 74q0 21 8 40t22.5 33t33.5 22t41 8zM400 265q-19 -8 -33 -13.5
t-26.5 -10l-25 -9t-29.5 -9.5q-46 -15 -66 -35t-20 -49q0 -25 16 -40.5t42 -15.5q45 0 79.5 29.5t45.5 76.5zM648 150q-15 -85 -52.5 -124.5t-103.5 -39.5q-33 0 -59.5 11.5t-42.5 32.5q-8 11 -12.5 22t-8.5 30q-47 -51 -90 -73.5t-95 -22.5q-33 0 -60 10t-47 28t-31 42.5
t-11 54.5q0 42 24 78.5t63 54.5q16 7 27 11t26.5 7t40 6t67.5 8q38 5 70 12t44 15q27 17 27 48q0 27 -27.5 44.5t-70.5 17.5q-27 0 -47.5 -6t-41.5 -20q6 -10 8.5 -16.5t2.5 -14.5q0 -21 -18 -34.5t-47 -13.5q-32 0 -50.5 15t-18.5 41q0 45 57.5 71t157.5 26
q109 0 173.5 -33t64.5 -90q0 -21 -6 -48l-40 -169q-4 -15 -4 -33q0 -34 27 -34q38 0 53 86h51z" />
    <glyph glyph-name="ae" unicode="&#xe6;" horiz-adv-x="891" 
d="M402 270q-14 -8 -24 -13t-20.5 -9.5t-23.5 -9t-31 -10.5q-56 -17 -77.5 -35.5t-21.5 -50.5q0 -25 15.5 -40.5t40.5 -15.5q45 0 80.5 31t46.5 82zM730 286q7 32 7 47q0 34 -18 55.5t-47 21.5q-38 0 -65.5 -29.5t-48.5 -94.5h172zM855 157q-10 -20 -18 -35t-16.5 -27
t-17.5 -22t-20 -20q-38 -33 -84 -50.5t-96 -17.5q-69 0 -119 30t-88 93q-24 -33 -41 -50.5t-37 -31.5q-60 -40 -130 -40q-33 0 -60 10.5t-46.5 29t-30.5 44t-11 55.5q0 35 15 65t42 50q13 9 27 16t32 12t42 9.5t56 9.5q41 6 65.5 10t40 8t24.5 8.5t20 12.5q8 6 13.5 16.5
t5.5 21.5q0 29 -23.5 46.5t-63.5 17.5q-32 0 -54.5 -7t-40.5 -22q6 -10 8 -16t2 -13q0 -23 -19 -37.5t-48 -14.5q-31 0 -50.5 15.5t-19.5 40.5q0 22 16.5 40t46.5 31t72 20t92 7q27 0 49.5 -2t42.5 -6t40 -11t41 -17q23 10 42 17t36 11.5t34.5 6t37.5 1.5q98 0 154 -52
t56 -143q0 -8 -1 -23t-3 -30h-326q-3 -29 -3 -49q0 -48 30 -76t80 -28q91 0 133 86h71z" />
    <glyph glyph-name="ccedilla" unicode="&#xe7;" horiz-adv-x="522" 
d="M491 157q-20 -69 -68.5 -112.5t-120.5 -57.5l-34 -53q26 0 40.5 -1.5t28.5 -5.5q28 -8 45 -29.5t17 -48.5q0 -42 -33.5 -66.5t-90.5 -24.5q-43 0 -84.5 14t-70.5 37l19 29l13 -6q31 -14 51.5 -19.5t40.5 -5.5q24 0 39.5 12t15.5 31q0 24 -29.5 39t-76.5 15q-6 0 -11 -1
l54 83q-28 3 -46 7.5t-36 12.5q-56 26 -87 75.5t-31 114.5q0 60 23 110.5t64 87.5t97 57.5t123 20.5q40 0 73 -8.5t57 -24t37 -37t13 -47.5q0 -31 -21.5 -52.5t-53.5 -21.5q-29 0 -49 19t-20 46q0 14 5.5 25.5t19.5 27.5q-15 16 -41 16q-35 0 -65.5 -17.5t-53 -48
t-35.5 -71.5t-13 -88q0 -62 28 -95t80 -33q91 0 126 95h61z" />
    <glyph glyph-name="egrave" unicode="&#xe8;" horiz-adv-x="543" 
d="M384 543h-88l-75 148h153zM381 286q3 14 4.5 29t1.5 23q0 32 -17.5 51t-47.5 19q-40 0 -68 -31t-42 -91h169zM505 157q-18 -35 -31.5 -54.5t-31.5 -37.5q-38 -37 -89 -58t-105 -21q-47 0 -86 15.5t-67 43.5t-43.5 67t-15.5 86q0 58 21.5 108t59.5 87t89 58t110 21
q47 0 86.5 -14t67.5 -38.5t43.5 -59.5t15.5 -77q0 -8 -2 -25t-5 -34h-323q-1 -11 -1.5 -21.5t-0.5 -15.5q0 -54 29 -84.5t80 -30.5q46 0 77.5 20.5t54.5 64.5h67z" />
    <glyph glyph-name="eacute" unicode="&#xe9;" horiz-adv-x="543" 
d="M376 543h-89l76 148h153zM381 286q3 14 4.5 29t1.5 23q0 32 -17.5 51t-47.5 19q-40 0 -68 -31t-42 -91h169zM505 157q-18 -35 -31.5 -54.5t-31.5 -37.5q-38 -37 -89 -58t-105 -21q-47 0 -86 15.5t-67 43.5t-43.5 67t-15.5 86q0 58 21.5 108t59.5 87t89 58t110 21
q47 0 86.5 -14t67.5 -38.5t43.5 -59.5t15.5 -77q0 -8 -2 -25t-5 -34h-323q-1 -11 -1.5 -21.5t-0.5 -15.5q0 -54 29 -84.5t80 -30.5q46 0 77.5 20.5t54.5 64.5h67z" />
    <glyph glyph-name="ecircumflex" unicode="&#xea;" horiz-adv-x="543" 
d="M495 526l-141 86l-162 -86l-44 58l226 121l176 -106zM381 286q3 14 4.5 29t1.5 23q0 32 -17.5 51t-47.5 19q-40 0 -68 -31t-42 -91h169zM505 157q-18 -35 -31.5 -54.5t-31.5 -37.5q-38 -37 -89 -58t-105 -21q-47 0 -86 15.5t-67 43.5t-43.5 67t-15.5 86q0 58 21.5 108
t59.5 87t89 58t110 21q47 0 86.5 -14t67.5 -38.5t43.5 -59.5t15.5 -77q0 -8 -2 -25t-5 -34h-323q-1 -11 -1.5 -21.5t-0.5 -15.5q0 -54 29 -84.5t80 -30.5q46 0 77.5 20.5t54.5 64.5h67z" />
    <glyph glyph-name="edieresis" unicode="&#xeb;" horiz-adv-x="543" 
d="M236 697q30 0 52 -22.5t22 -53.5q0 -32 -22 -54t-54 -22t-54 22t-22 53q0 33 22.5 55t55.5 22zM479 697q30 0 52 -22.5t22 -53.5q0 -32 -22 -54t-54 -22t-54 22t-22 53q0 33 22.5 55t55.5 22zM381 286q3 14 4.5 29t1.5 23q0 32 -17.5 51t-47.5 19q-40 0 -68 -31t-42 -91
h169zM505 157q-18 -35 -31.5 -54.5t-31.5 -37.5q-38 -37 -89 -58t-105 -21q-47 0 -86 15.5t-67 43.5t-43.5 67t-15.5 86q0 58 21.5 108t59.5 87t89 58t110 21q47 0 86.5 -14t67.5 -38.5t43.5 -59.5t15.5 -77q0 -8 -2 -25t-5 -34h-323q-1 -11 -1.5 -21.5t-0.5 -15.5
q0 -54 29 -84.5t80 -30.5q46 0 77.5 20.5t54.5 64.5h67z" />
    <glyph glyph-name="igrave" unicode="&#xec;" horiz-adv-x="367" 
d="M297 543h-88l-76 148h153zM240 143q-8 -37 -8 -52q0 -30 26 -30q11 0 19 4t15 15t13 29.5t13 47.5h54q-9 -46 -17 -69t-20 -41q-19 -26 -52.5 -41t-71.5 -15q-57 0 -93.5 28.5t-36.5 73.5q0 11 3.5 35t10.5 52l28 128q2 12 3.5 22t1.5 19q0 51 -51 51h-31l13 57l251 2z
" />
    <glyph glyph-name="iacute" unicode="&#xed;" horiz-adv-x="367" 
d="M288 543h-89l76 148h153zM240 143q-8 -37 -8 -52q0 -30 26 -30q11 0 19 4t15 15t13 29.5t13 47.5h54q-9 -46 -17 -69t-20 -41q-19 -26 -52.5 -41t-71.5 -15q-57 0 -93.5 28.5t-36.5 73.5q0 11 3.5 35t10.5 52l28 128q2 12 3.5 22t1.5 19q0 51 -51 51h-31l13 57l251 2z
" />
    <glyph glyph-name="icircumflex" unicode="&#xee;" horiz-adv-x="367" 
d="M408 526l-142 86l-161 -86l-44 58l226 121l175 -106zM240 143q-8 -37 -8 -52q0 -30 26 -30q11 0 19 4t15 15t13 29.5t13 47.5h54q-9 -46 -17 -69t-20 -41q-19 -26 -52.5 -41t-71.5 -15q-57 0 -93.5 28.5t-36.5 73.5q0 11 3.5 35t10.5 52l28 128q2 12 3.5 22t1.5 19
q0 51 -51 51h-31l13 57l251 2z" />
    <glyph glyph-name="idieresis" unicode="&#xef;" horiz-adv-x="367" 
d="M176 684q26 0 44.5 -19.5t18.5 -45.5q0 -27 -19 -46t-46 -19t-46 19t-19 45q0 28 19 47t48 19zM363 684q26 0 44.5 -19.5t18.5 -45.5q0 -27 -19 -46t-46 -19t-46 19t-19 45q0 28 19 47t48 19zM240 143q-8 -37 -8 -52q0 -30 26 -30q11 0 19 4t15 15t13 29.5t13 47.5h54
q-9 -46 -17 -69t-20 -41q-19 -26 -52.5 -41t-71.5 -15q-57 0 -93.5 28.5t-36.5 73.5q0 11 3.5 35t10.5 52l28 128q2 12 3.5 22t1.5 19q0 51 -51 51h-31l13 57l251 2z" />
    <glyph glyph-name="eth" unicode="&#xf0;" horiz-adv-x="565" 
d="M317 410q-30 0 -56 -19.5t-44.5 -54t-29.5 -81t-11 -100.5q0 -51 18 -79.5t51 -28.5q23 0 45.5 14t38.5 39q13 19 24 44t18.5 52.5t12 55t4.5 53.5q0 50 -19 77.5t-52 27.5zM153 680q23 -4 47 -9.5t45 -11t37.5 -11t25.5 -9.5l139 79l21 -48l-101 -56q29 -23 47 -39
t34 -36q43 -52 66 -117.5t23 -137.5q0 -68 -21.5 -123.5t-60.5 -95t-94 -61t-122 -21.5q-118 0 -179 88q-19 27 -27.5 54t-8.5 59q0 36 9.5 72.5t27 69t42 60t54.5 47.5q67 44 152 44q8 0 14.5 -1t17.5 -3q-10 18 -17.5 30.5t-15 22t-16.5 18t-21 18.5l-129 -74l-22 48
l103 56q-17 10 -46 20.5t-57 16.5z" />
    <glyph glyph-name="ntilde" unicode="&#xf1;" horiz-adv-x="693" 
d="M634 646q-50 -54 -81.5 -75t-62.5 -21q-32 0 -79 22q-18 8 -29.5 12.5t-19.5 7t-14 3t-15 0.5q-20 0 -31.5 -7t-28.5 -29l-45 38l17 20q34 40 64 58.5t59 18.5q38 0 79 -19q19 -8 31.5 -13t21.5 -7.5t15 -3.5t13 -1q19 0 34 7t32 25zM57 0l69 308q2 12 3.5 22t1.5 19
q0 51 -51 51h-31l13 57l240 2l-24 -112q17 23 27.5 35.5t22.5 23.5q34 32 74 48.5t82 16.5q57 0 91.5 -33t34.5 -86q0 -15 -5 -37l-46 -189q-2 -5 -2 -10v-14q0 -36 26 -36q21 0 35 21.5t24 69.5h52q-4 -26 -8.5 -45.5t-11 -34.5t-15 -27t-20.5 -22q-42 -37 -108 -37
q-59 0 -91.5 26t-32.5 72q0 29 7 56l37 153q3 12 3 24q0 24 -11 38t-30 14q-24 0 -49 -14t-46.5 -37t-38.5 -54.5t-24 -65.5l-45 -203h-153z" />
    <glyph glyph-name="ograve" unicode="&#xf2;" horiz-adv-x="565" 
d="M395 543h-88l-75 148h153zM316 410q-30 0 -55.5 -19.5t-44 -53.5t-29.5 -80.5t-11 -100.5q0 -51 18 -79.5t50 -28.5q23 0 45.5 14t39.5 39q13 19 23.5 44t18 52.5t12 55t4.5 53.5q0 49 -19 76.5t-52 27.5zM315 472q49 0 90 -14.5t69.5 -41.5t44.5 -64.5t16 -83.5
q0 -61 -25.5 -118.5t-70.5 -98.5q-71 -65 -193 -65q-105 0 -163.5 55t-58.5 153q0 60 22 111t60.5 88t92 58t116.5 21z" />
    <glyph glyph-name="oacute" unicode="&#xf3;" horiz-adv-x="565" 
d="M387 543h-89l76 148h153zM316 410q-30 0 -55.5 -19.5t-44 -53.5t-29.5 -80.5t-11 -100.5q0 -51 18 -79.5t50 -28.5q23 0 45.5 14t39.5 39q13 19 23.5 44t18 52.5t12 55t4.5 53.5q0 49 -19 76.5t-52 27.5zM315 472q49 0 90 -14.5t69.5 -41.5t44.5 -64.5t16 -83.5
q0 -61 -25.5 -118.5t-70.5 -98.5q-71 -65 -193 -65q-105 0 -163.5 55t-58.5 153q0 60 22 111t60.5 88t92 58t116.5 21z" />
    <glyph glyph-name="ocircumflex" unicode="&#xf4;" horiz-adv-x="565" 
d="M506 526l-141 86l-162 -86l-44 58l226 121l176 -106zM316 410q-30 0 -55.5 -19.5t-44 -53.5t-29.5 -80.5t-11 -100.5q0 -51 18 -79.5t50 -28.5q23 0 45.5 14t39.5 39q13 19 23.5 44t18 52.5t12 55t4.5 53.5q0 49 -19 76.5t-52 27.5zM315 472q49 0 90 -14.5t69.5 -41.5
t44.5 -64.5t16 -83.5q0 -61 -25.5 -118.5t-70.5 -98.5q-71 -65 -193 -65q-105 0 -163.5 55t-58.5 153q0 60 22 111t60.5 88t92 58t116.5 21z" />
    <glyph glyph-name="otilde" unicode="&#xf5;" horiz-adv-x="565" 
d="M570 646q-26 -27 -45.5 -45.5t-36.5 -29.5t-32 -16t-30 -5q-33 0 -80 22q-18 8 -29 12.5t-19 7t-14.5 3t-14.5 0.5q-20 0 -32 -7t-29 -29l-44 38l16 20q34 40 64 58.5t60 18.5q37 0 79 -19q19 -8 31.5 -13t21 -7.5t15 -3.5t13.5 -1q19 0 33.5 7t31.5 25zM316 410
q-30 0 -55.5 -19.5t-44 -53.5t-29.5 -80.5t-11 -100.5q0 -51 18 -79.5t50 -28.5q23 0 45.5 14t39.5 39q13 19 23.5 44t18 52.5t12 55t4.5 53.5q0 49 -19 76.5t-52 27.5zM315 472q49 0 90 -14.5t69.5 -41.5t44.5 -64.5t16 -83.5q0 -61 -25.5 -118.5t-70.5 -98.5
q-71 -65 -193 -65q-105 0 -163.5 55t-58.5 153q0 60 22 111t60.5 88t92 58t116.5 21z" />
    <glyph glyph-name="odieresis" unicode="&#xf6;" horiz-adv-x="565" 
d="M247 697q30 0 52 -22.5t22 -53.5q0 -32 -22 -54t-54 -22t-54 22t-22 53q0 33 22.5 55t55.5 22zM490 697q30 0 52 -22.5t22 -53.5q0 -32 -22 -54t-54 -22t-54 22t-22 53q0 33 22.5 55t55.5 22zM316 410q-30 0 -55.5 -19.5t-44 -53.5t-29.5 -80.5t-11 -100.5
q0 -51 18 -79.5t50 -28.5q23 0 45.5 14t39.5 39q13 19 23.5 44t18 52.5t12 55t4.5 53.5q0 49 -19 76.5t-52 27.5zM315 472q49 0 90 -14.5t69.5 -41.5t44.5 -64.5t16 -83.5q0 -61 -25.5 -118.5t-70.5 -98.5q-71 -65 -193 -65q-105 0 -163.5 55t-58.5 153q0 60 22 111t60.5 88
t92 58t116.5 21z" />
    <glyph glyph-name="divide" unicode="&#xf7;" 
d="M274 250q24 0 41 -17.5t17 -41.5t-17.5 -41.5t-41.5 -17.5t-41.5 17.5t-17.5 41.5q0 25 17.5 42t42.5 17zM275 591q24 0 41 -17.5t17 -41.5t-17.5 -41.5t-41.5 -17.5t-41.5 17.5t-17.5 41.5q0 25 17 42t43 17zM517 401v-78h-486v78h486z" />
    <glyph glyph-name="oslash" unicode="&#xf8;" horiz-adv-x="565" 
d="M374 362q-6 49 -55 49q-59 0 -100 -73q-9 -16 -15.5 -29.5t-11 -29.5t-8 -37t-7.5 -52l-3 -18zM184 98q6 -24 22.5 -37.5t40.5 -13.5q53 0 88.5 62t52.5 183zM494 396q23 -26 33 -56t10 -71q0 -59 -24.5 -114.5t-67.5 -95.5q-80 -72 -196 -72q-95 0 -144 39l-58 -54
l-39 42l54 51q-20 32 -28.5 59.5t-8.5 64.5q0 61 21.5 113.5t59.5 90t91 59t115 21.5q93 0 139 -38l57 53l41 -40z" />
    <glyph glyph-name="ugrave" unicode="&#xf9;" horiz-adv-x="701" 
d="M464 543h-89l-75 148h153zM574 143q-3 -16 -5 -29t-2 -21q0 -14 7.5 -23t20.5 -9q20 0 33.5 23t23.5 73h54q-10 -50 -20 -75t-26 -46q-18 -21 -47.5 -33t-64.5 -12q-60 0 -95 32q-14 13 -21.5 28.5t-12.5 44.5q-32 -30 -59.5 -51t-52.5 -34t-49 -19t-49 -6q-57 0 -92 33
t-35 86q0 26 6 55l33 148q2 12 3.5 22t1.5 19q0 51 -51 51h-31l13 57l250 2l-64 -291q-2 -8 -3 -18t-1 -19q0 -24 12 -37.5t32 -13.5q28 0 55.5 16.5t51 46t42 70.5t29.5 90l34 154h149z" />
    <glyph glyph-name="uacute" unicode="&#xfa;" horiz-adv-x="701" 
d="M455 543h-89l76 148h153zM574 143q-3 -16 -5 -29t-2 -21q0 -14 7.5 -23t20.5 -9q20 0 33.5 23t23.5 73h54q-10 -50 -20 -75t-26 -46q-18 -21 -47.5 -33t-64.5 -12q-60 0 -95 32q-14 13 -21.5 28.5t-12.5 44.5q-32 -30 -59.5 -51t-52.5 -34t-49 -19t-49 -6q-57 0 -92 33
t-35 86q0 26 6 55l33 148q2 12 3.5 22t1.5 19q0 51 -51 51h-31l13 57l250 2l-64 -291q-2 -8 -3 -18t-1 -19q0 -24 12 -37.5t32 -13.5q28 0 55.5 16.5t51 46t42 70.5t29.5 90l34 154h149z" />
    <glyph glyph-name="ucircumflex" unicode="&#xfb;" horiz-adv-x="701" 
d="M574 526l-141 86l-162 -86l-43 58l226 121l175 -106zM574 143q-3 -16 -5 -29t-2 -21q0 -14 7.5 -23t20.5 -9q20 0 33.5 23t23.5 73h54q-10 -50 -20 -75t-26 -46q-18 -21 -47.5 -33t-64.5 -12q-60 0 -95 32q-14 13 -21.5 28.5t-12.5 44.5q-32 -30 -59.5 -51t-52.5 -34
t-49 -19t-49 -6q-57 0 -92 33t-35 86q0 26 6 55l33 148q2 12 3.5 22t1.5 19q0 51 -51 51h-31l13 57l250 2l-64 -291q-2 -8 -3 -18t-1 -19q0 -24 12 -37.5t32 -13.5q28 0 55.5 16.5t51 46t42 70.5t29.5 90l34 154h149z" />
    <glyph glyph-name="udieresis" unicode="&#xfc;" horiz-adv-x="701" 
d="M315 697q30 0 52 -22.5t22 -53.5q0 -32 -22 -54t-54 -22t-54 22t-22 53q0 33 22.5 55t55.5 22zM558 697q30 0 52 -22.5t22 -53.5q0 -32 -22 -54t-54 -22t-54 22t-22 53q0 33 22.5 55t55.5 22zM574 143q-3 -16 -5 -29t-2 -21q0 -14 7.5 -23t20.5 -9q20 0 33.5 23t23.5 73
h54q-10 -50 -20 -75t-26 -46q-18 -21 -47.5 -33t-64.5 -12q-60 0 -95 32q-14 13 -21.5 28.5t-12.5 44.5q-32 -30 -59.5 -51t-52.5 -34t-49 -19t-49 -6q-57 0 -92 33t-35 86q0 26 6 55l33 148q2 12 3.5 22t1.5 19q0 51 -51 51h-31l13 57l250 2l-64 -291q-2 -8 -3 -18t-1 -19
q0 -24 12 -37.5t32 -13.5q28 0 55.5 16.5t51 46t42 70.5t29.5 90l34 154h149z" />
    <glyph glyph-name="yacute" unicode="&#xfd;" horiz-adv-x="657" 
d="M433 543h-89l76 148h153zM551 57q-8 -37 -16.5 -64t-18.5 -47.5t-23 -36.5t-30 -30q-36 -30 -87.5 -45.5t-114.5 -15.5q-75 0 -117.5 24.5t-42.5 69.5q0 30 21.5 49.5t54.5 19.5q30 0 52 -17.5t22 -42.5q0 -23 -19 -39q10 -5 15.5 -6.5t13.5 -1.5q99 0 126 118l22 100
q-26 -23 -47.5 -39.5t-42 -26.5t-40.5 -14.5t-42 -4.5q-68 0 -109 34.5t-41 91.5q0 12 2.5 27t7.5 38l24 111q2 11 3.5 21t1.5 19q0 51 -51 51h-31l13 57h249l-52 -234q-6 -25 -8.5 -42.5t-2.5 -29.5q0 -26 16 -42.5t42 -16.5q27 0 55 19t48 50q6 10 12.5 24.5t13 30.5
t12 31.5t7.5 26.5l41 183h150z" />
    <glyph glyph-name="thorn" unicode="&#xfe;" horiz-adv-x="639" 
d="M382 384q-27 0 -52.5 -17.5t-44.5 -46.5t-30.5 -67t-11.5 -80q0 -46 22 -74.5t57 -28.5q27 0 51.5 17.5t43 46.5t30 67t11.5 79q0 49 -20.5 76.5t-55.5 27.5zM277 382q44 48 84.5 69t91.5 21q77 0 122.5 -52.5t45.5 -140.5q0 -38 -8.5 -75t-23.5 -70t-36.5 -61t-48.5 -48
q-25 -19 -58.5 -29t-70.5 -10q-56 0 -90 21.5t-61 74.5l-60 -258h-149l154 694q2 12 3.5 22t1.5 19q0 51 -51 51h-31l13 57h235z" />
    <glyph glyph-name="ydieresis" unicode="&#xff;" horiz-adv-x="657" 
d="M294 697q30 0 52 -22.5t22 -53.5q0 -32 -22 -54t-54 -22t-54 22t-22 53q0 33 22.5 55t55.5 22zM536 697q30 0 52 -22.5t22 -53.5q0 -32 -22 -54t-54 -22t-54 22t-22 53q0 33 22.5 55t55.5 22zM551 57q-8 -37 -16.5 -64t-18.5 -47.5t-23 -36.5t-30 -30
q-36 -30 -87.5 -45.5t-114.5 -15.5q-75 0 -117.5 24.5t-42.5 69.5q0 30 21.5 49.5t54.5 19.5q30 0 52 -17.5t22 -42.5q0 -23 -19 -39q10 -5 15.5 -6.5t13.5 -1.5q99 0 126 118l22 100q-26 -23 -47.5 -39.5t-42 -26.5t-40.5 -14.5t-42 -4.5q-68 0 -109 34.5t-41 91.5
q0 12 2.5 27t7.5 38l24 111q2 11 3.5 21t1.5 19q0 51 -51 51h-31l13 57h249l-52 -234q-6 -25 -8.5 -42.5t-2.5 -29.5q0 -26 16 -42.5t42 -16.5q27 0 55 19t48 50q6 10 12.5 24.5t13 30.5t12 31.5t7.5 26.5l41 183h150z" />
    <glyph glyph-name="OE" unicode="&#x152;" horiz-adv-x="1197" 
d="M667 500q3 13 3 26q0 83 -124 83q-65 0 -121 -26t-97.5 -71.5t-65.5 -107t-24 -132.5q0 -102 52 -160t143 -58q135 0 163 125zM1182 442h-63q4 24 5.5 38t1.5 27q0 49 -28 71t-91 22h-153l-49 -220h77q45 0 70.5 21t39.5 69h65l-59 -262h-64q3 14 4 21t1 15q0 69 -72 69
h-77l-54 -246h130q104 0 157 47q17 16 30.5 37.5t32.5 65.5h61l-50 -217h-508q-11 0 -25.5 -1.5t-34.5 -3.5q-32 -4 -52.5 -6.5t-35 -3.5t-25.5 -1.5t-24 -0.5q-75 0 -137 22.5t-107 63.5t-70 97.5t-25 124.5q0 77 28.5 145t84.5 122q122 121 316 121h26t25 -1t39 -3t67 -6
q13 -1 24 -1.5t21 -0.5h547z" />
    <glyph glyph-name="oe" unicode="&#x153;" horiz-adv-x="889" 
d="M316 410q-30 0 -55.5 -19.5t-44 -54t-29.5 -81.5t-11 -101q0 -51 18 -79t50 -28q23 0 45.5 14t39.5 39q13 20 23.5 45t18 52t12 55t4.5 54q0 48 -19 76t-52 28zM727 286q2 14 3.5 29t1.5 23q0 32 -17.5 51t-47.5 19q-40 0 -67.5 -31t-41.5 -91h169zM851 157
q-18 -35 -31.5 -54.5t-31.5 -37.5q-37 -37 -88.5 -58t-103.5 -21q-48 0 -86 15t-73 47q-24 -18 -45 -29.5t-43 -19t-46 -10.5t-53 -3q-108 0 -167 54t-59 154q0 60 21.5 111t60 88t91.5 58t115 21q57 0 95.5 -14.5t73.5 -49.5q76 64 181 64q47 0 86 -14t67 -38.5t43.5 -59.5
t15.5 -77q0 -8 -2 -25l-4 -34h-323q-1 -11 -1.5 -21t-0.5 -16q0 -54 29 -84.5t80 -30.5q46 0 77.5 20.5t53.5 64.5h68z" />
    <glyph glyph-name="Scaron" unicode="&#x160;" horiz-adv-x="675" 
d="M293 892l173 -72l175 72l35 -75l-232 -96l-192 82zM632 446h-61q-2 43 -12 68.5t-34 49.5q-28 29 -66.5 43.5t-85.5 14.5q-57 0 -91 -24.5t-34 -66.5q0 -17 5 -30t17 -23.5t33 -20.5t53 -20l122 -41q171 -59 171 -191q0 -51 -21 -93t-59 -72.5t-90.5 -47t-116.5 -16.5
q-31 0 -55.5 2.5t-49 8.5t-51.5 16.5t-62 26.5q-18 9 -30 9q-14 0 -22 -9t-12 -30h-64l50 224h59q3 -42 11.5 -67t25.5 -45q13 -15 33.5 -27t45 -21t52 -14t54.5 -5q33 0 60 7.5t47 21t31 32t11 41.5q0 57 -80 84l-98 34q-65 22 -100.5 38.5t-57.5 35.5q-60 51 -60 137
q0 48 19 87.5t53.5 68t82.5 44t106 15.5q21 0 40.5 -2t39 -6.5t41.5 -12t49 -18.5q23 -10 34 -13t22 -3q28 0 31 31h62z" />
    <glyph glyph-name="scaron" unicode="&#x161;" horiz-adv-x="556" 
d="M220 705l142 -86l161 86l44 -58l-226 -121l-176 106zM430 377q-9 17 -36 27.5t-61 10.5q-38 0 -64.5 -15t-26.5 -37q0 -23 30 -41q8 -5 28.5 -13t57.5 -20q73 -24 107.5 -58.5t34.5 -82.5q0 -36 -18 -66t-50.5 -51.5t-78 -33t-100.5 -11.5q-48 0 -88.5 11t-70 30t-46 45
t-16.5 56q0 28 20 48.5t48 20.5q24 0 42.5 -16.5t18.5 -38.5q0 -28 -28 -50q19 -23 48 -34t74 -11q48 0 73.5 15.5t25.5 44.5q0 20 -11.5 32t-40.5 23q-113 44 -149 70q-58 43 -58 100q0 31 17 57t48 44.5t74.5 28.5t95.5 10q46 0 84 -9t65 -24.5t42 -38t15 -49.5
q0 -26 -17.5 -43.5t-44.5 -17.5q-25 0 -42.5 15t-17.5 38q0 11 3.5 18t12.5 16z" />
    <glyph glyph-name="Ydieresis" unicode="&#x178;" horiz-adv-x="635" 
d="M356 881q30 0 52 -22.5t22 -53.5q0 -32 -22 -54t-54 -22t-54 22t-22 53q0 32 22.5 54.5t55.5 22.5zM599 881q30 0 52 -22.5t22 -53.5q0 -32 -22 -54t-54 -22t-54 22t-22 53q0 32 22.5 54.5t55.5 22.5zM731 595h-20q-27 0 -47.5 -15t-43.5 -50l-174 -269l-25 -110
q-5 -25 -5 -36q0 -26 21 -37t69 -11h14l-15 -67h-396l15 67h23q47 0 73 21t36 66l24 107l-109 252q-20 46 -40 64t-52 18h-23l15 66h350l-15 -66h-18q-25 0 -39.5 -12.5t-14.5 -34.5q0 -19 10 -39l71 -158l106 162q11 17 16 29t5 22q0 31 -44 31h-20l15 66h253z" />
    <glyph glyph-name="Zcaron" unicode="&#x17d;" horiz-adv-x="672" 
d="M292 892l172 -72l175 72l35 -75l-232 -96l-192 82zM704 600l-484 -533h93q68 0 120 13t84 39q23 18 38 42t30 67h62l-51 -228h-602l15 67l478 533h-114q-90 0 -146 -38q-14 -10 -24.5 -20.5t-19.5 -24.5t-16.5 -32.5t-15.5 -42.5h-63l49 225h582z" />
    <glyph glyph-name="zcaron" unicode="&#x17e;" horiz-adv-x="540" 
d="M213 705l141 -86l162 86l44 -58l-227 -121l-175 106zM523 400l-300 -339h61q36 0 61.5 4.5t44 15.5t31.5 29.5t24 46.5h52l-35 -157h-456l11 50l312 350h-82q-29 0 -42.5 -3t-29.5 -12q-21 -12 -32 -29t-19 -49h-56l33 150h434z" />
    <glyph glyph-name="florin" unicode="&#x192;" horiz-adv-x="638" 
d="M527 344h-95l-126 -316q-22 -55 -44 -91t-51 -57t-67.5 -29.5t-92.5 -8.5q-18 0 -32 0.5t-34 2.5l42 108q11 -1 17 -1h13q21 0 34 3t23.5 15t21 35.5t27.5 64.5l109 274h-91l37 94h92l42 103q11 27 21 48t20 37t21 28t24 23q30 25 67 35.5t91 10.5q17 0 33.5 -0.5
t47.5 -2.5l-43 -109q-18 2 -25 2h-14q-17 0 -29 -3.5t-21.5 -12.5t-18.5 -25t-19 -42l-36 -92h93z" />
    <glyph glyph-name="circumflex" unicode="&#x2c6;" 
d="M474 526l-141 86l-162 -86l-44 58l226 121l176 -106z" />
    <glyph glyph-name="tilde" unicode="&#x2dc;" 
d="M537 646q-25 -27 -45 -45.5t-37 -29.5t-32 -16t-30 -5q-33 0 -80 22q-18 8 -29 12.5t-19 7t-14 3t-15 0.5q-20 0 -32 -7t-29 -29l-44 38l17 20q34 40 63.5 58.5t59.5 18.5q38 0 79 -19q19 -8 31.5 -13t21 -7.5t15 -3.5t13.5 -1q19 0 33.5 7t32.5 25z" />
    <glyph glyph-name="endash" unicode="&#x2013;" horiz-adv-x="623" 
d="M613 196h-623l26 119h623z" />
    <glyph glyph-name="emdash" unicode="&#x2014;" horiz-adv-x="820" 
d="M799 196h-778l26 119h779z" />
    <glyph glyph-name="quoteleft" unicode="&#x2018;" horiz-adv-x="326" 
d="M323 631l-19 -11q-31 -19 -52 -50.5t-22 -59.5q66 -20 66 -80q0 -35 -24.5 -58.5t-62.5 -23.5q-39 0 -64 27t-25 69q0 63 42 123.5t115 104.5l26 16z" />
    <glyph glyph-name="quoteright" unicode="&#x2019;" horiz-adv-x="326" 
d="M124 398l19 11q31 18 52.5 50t21.5 60q-65 19 -65 80q0 35 24.5 58.5t62.5 23.5q39 0 64 -27t25 -69q0 -63 -42 -124t-115 -104l-27 -16z" />
    <glyph glyph-name="quotesinglbase" unicode="&#x201a;" horiz-adv-x="327" 
d="M21 -119l19 11q32 19 53 50t21 59q-65 21 -65 81q0 35 24.5 58.5t62.5 23.5q39 0 64 -27t25 -69q0 -63 -42 -124t-115 -104l-27 -16z" />
    <glyph glyph-name="quotedblleft" unicode="&#x201c;" horiz-adv-x="554" 
d="M552 631l-19 -11q-32 -19 -52.5 -50t-21.5 -60q65 -19 65 -80q0 -35 -24.5 -58.5t-62.5 -23.5q-39 0 -64 27t-25 69q0 63 42 123.5t115 104.5l27 16zM323 631l-19 -11q-31 -19 -52 -50.5t-22 -59.5q66 -20 66 -80q0 -35 -24.5 -58.5t-62.5 -23.5q-39 0 -64 27t-25 69
q0 63 42 123.5t115 104.5l26 16z" />
    <glyph glyph-name="quotedblright" unicode="&#x201d;" horiz-adv-x="554" 
d="M353 398l19 11q31 19 52 50t22 60q-66 19 -66 80q0 35 24.5 58.5t62.5 23.5q39 0 64 -27t25 -69q0 -63 -42 -124t-115 -104l-26 -16zM124 398l19 11q31 18 52.5 50t21.5 60q-65 19 -65 80q0 35 24.5 58.5t62.5 23.5q39 0 64 -27t25 -69q0 -63 -42 -124t-115 -104l-27 -16
z" />
    <glyph glyph-name="quotedblbase" unicode="&#x201e;" horiz-adv-x="554" 
d="M9 -119l19 11q32 19 52.5 50t21.5 59q-65 21 -65 81q0 35 24.5 58.5t62.5 23.5q39 0 64 -27t25 -69q0 -63 -42 -124t-115 -104l-27 -16zM238 -119l19 11q31 19 52 50t22 59q-66 21 -66 81q0 35 24.5 58.5t62.5 23.5q39 0 64 -27t25 -69q0 -31 -11 -62.5t-31.5 -61.5
t-49.5 -56.5t-65 -47.5l-26 -16z" />
    <glyph glyph-name="dagger" unicode="&#x2020;" horiz-adv-x="579" 
d="M282 -110q-4 -28 -7.5 -41.5t-10.5 -24.5q-8 -14 -24 -22.5t-34 -8.5q-29 0 -49.5 20.5t-20.5 49.5q0 17 6 35l153 492l-120 -28q-7 -2 -15 -3t-13 -1q-29 0 -45 15.5t-16 43.5t17.5 45.5t44.5 17.5q5 0 13.5 -1t16.5 -3l127 -26v145q0 44 18.5 68t52.5 24q25 0 42 -16.5
t17 -41.5q0 -14 -8 -33l-65 -146l126 24q5 1 10.5 1.5t10.5 0.5q26 0 43 -17t17 -44q0 -26 -18 -44.5t-45 -18.5q-8 0 -17.5 2t-28.5 7l-114 29z" />
    <glyph glyph-name="daggerdbl" unicode="&#x2021;" horiz-adv-x="579" 
d="M348 390q-5 -54 -8.5 -88.5t-10.5 -64.5t-17.5 -63.5t-28.5 -84.5l121 29q13 3 27 3q29 0 45.5 -15.5t16.5 -42.5q0 -28 -17.5 -45.5t-45.5 -17.5q-14 0 -30 3l-127 26v-144q0 -45 -18.5 -68.5t-52.5 -23.5q-26 0 -43 16.5t-17 41.5q0 7 2 14t7 19l65 145l-126 -23
q-5 -2 -9.5 -2h-11.5q-26 0 -43 17t-17 43q0 27 18 45t45 18q16 0 46 -8l114 -30q4 56 8 91.5t10.5 66t17.5 62.5t29 81l-121 -28q-7 -2 -14.5 -3t-13.5 -1q-29 0 -45 15.5t-16 42.5q0 28 17.5 45.5t44.5 17.5q9 0 16 -0.5t15 -2.5l127 -26v144q0 45 18.5 69t52.5 24
q26 0 43 -16.5t17 -41.5q0 -7 -2 -14.5t-7 -18.5l-65 -146l126 24q5 1 10.5 1.5t10.5 0.5q26 0 43 -17t17 -44t-18 -45t-45 -18q-8 0 -18.5 1.5t-28.5 6.5z" />
    <glyph glyph-name="bullet" unicode="&#x2022;" horiz-adv-x="667" 
d="M360 477q28 0 52.5 -11t43 -30t29.5 -44t11 -53q0 -29 -11 -54.5t-29.5 -44t-44 -29.5t-53.5 -11q-29 0 -54 11t-44 29.5t-30 43.5t-11 54t11 54.5t30 44t44.5 29.5t55.5 11z" />
    <glyph glyph-name="ellipsis" unicode="&#x2026;" horiz-adv-x="980" 
d="M793 162q18 0 33.5 -7t27 -19t18.5 -28t7 -34t-7 -34t-19 -28t-28 -19t-34 -7q-36 0 -62 25.5t-26 61.5q0 19 7 35t19 28t28.5 19t35.5 7zM467 162q18 0 33.5 -7t27 -19t18.5 -28t7 -34t-7 -34t-19 -28t-28 -19t-34 -7q-36 0 -62 25.5t-26 61.5q0 19 7 35t19 28t28.5 19
t35.5 7zM140 162q18 0 33.5 -7t27 -19t18.5 -28t7 -34t-7 -34t-19 -28t-28 -19t-34 -7q-36 0 -62 25.5t-26 61.5q0 19 7 35t19 28t28.5 19t35.5 7z" />
    <glyph glyph-name="perthousand" unicode="&#x2030;" horiz-adv-x="1042" 
d="M868 254q-35 0 -58 -56q-8 -21 -13 -48.5t-5 -48.5q0 -66 42 -66q17 0 30 11t24 36q11 23 17 51t6 54q0 67 -43 67zM863 290q27 0 49.5 -9.5t39 -27t26 -41t9.5 -51.5q0 -34 -13 -65t-35.5 -55t-51.5 -38.5t-60 -14.5q-24 0 -45 10t-37 27.5t-25 40.5t-9 50
q0 34 12.5 65.5t33.5 55.5t48.5 38.5t57.5 14.5zM245 594q-15 0 -29 -12.5t-24.5 -33.5t-16.5 -49t-6 -59q0 -65 42 -65q32 0 54 47q11 23 17 51.5t6 53.5q0 67 -43 67zM240 630q27 0 49.5 -9.5t39 -27t26 -41t9.5 -51.5q0 -34 -13 -65.5t-35.5 -55.5t-51.5 -38t-60 -14
q-24 0 -45 10t-37 27t-25 40.5t-9 49.5q0 34 12.5 66t33.5 56t48.5 38.5t57.5 14.5zM549 254q-15 0 -28.5 -12.5t-24 -33.5t-16.5 -49t-6 -58q0 -66 42 -66q17 0 29.5 11t23.5 36q11 23 17 51t6 54q0 67 -43 67zM545 290q54 0 88.5 -36t34.5 -93q0 -34 -13 -65t-35.5 -55
t-51.5 -38.5t-60 -14.5q-24 0 -45 10t-36.5 27.5t-24.5 40.5t-9 50q0 34 12.5 65.5t33.5 55.5t48.5 38.5t57.5 14.5zM188 -15l-56 39l429 615l59 -36z" />
    <glyph glyph-name="guilsinglleft" unicode="&#x2039;" horiz-adv-x="334" 
d="M165 256l117 -115h-117l-117 115l117 114h117z" />
    <glyph glyph-name="guilsinglright" unicode="&#x203a;" horiz-adv-x="334" 
d="M164 370l117 -114l-117 -115h-117l117 115l-117 114h117z" />
    <glyph glyph-name="Euro" unicode="&#x20ac;" horiz-adv-x="731" 
d="M265 214q14 -78 60.5 -119.5t118.5 -41.5q66 0 125 35.5t101 100.5l-28 -128q-91 -85 -230 -85q-61 0 -114.5 17t-95.5 48.5t-71 75t-41 97.5h-113l50 76h55q1 17 2 31t4 29h-80l50 76h50q22 60 59 109t84.5 83.5t102.5 53.5t115 19q86 0 154 -39q20 -11 30.5 -15.5
t17.5 -4.5q17 0 26.5 8t16.5 27h62l-45 -212h-63q-1 37 -6 58.5t-16 41.5q-19 32 -52 49.5t-74 17.5q-75 0 -134.5 -50.5t-94.5 -145.5h316l-50 -76h-288q-3 -18 -5 -32t-3 -28h258l-50 -76h-204z" />
    <glyph glyph-name="trademark" unicode="&#x2122;" horiz-adv-x="1110" 
d="M1105 664l63 3l-10 -46h-14q-48 0 -60 -48l-47 -214q-3 -12 -3 -20q0 -14 12 -20t41 -6h12l-10 -46h-243l11 46h13q50 0 60 48l36 163l-188 -257h-56l-63 257l-40 -171q-1 -4 -1.5 -7t-0.5 -6q-1 -14 11.5 -20t41.5 -8l-10 -45h-179l11 46h13q49 0 60 48l47 214
q3 12 3 20q0 26 -52 26h-13l10 46h171l70 -281l203 281zM486 530h-48q2 12 3.5 23.5t1.5 19.5q0 45 -51 45h-39l-58 -259q-3 -14 -3 -20q-1 -14 12 -20t44 -6h17l-10 -46h-259l11 46h18q27 0 42 11t20 37l57 257q-27 0 -46 -3.5t-33 -13.5t-24 -27.5t-19 -43.5h-48l30 137
h412z" />
    <glyph glyph-name="glyph220" horiz-adv-x="0" 
 />
    </font>
</defs>
</svg>
